Andika-Regular.ufo
<glyph name="RtParen" format="2">
  <advance width="795"/>
  <unicode hex="0029"/>
  <outline>
    <contour>
      <point x="185" y="1485" type="line"/>
      <point x="410" y="1280"/>
      <point x="510" y="962"/>
      <point x="510" y="625" type="curve" smooth="yes"/>
      <point x="510" y="278"/>
      <point x="410" y="-8"/>
      <point x="185" y="-265" type="curve"/>
      <point x="280" y="-410" type="line"/>
      <point x="555" y="-125"/>
      <point x="700" y="218"/>
      <point x="700" y="625" type="curve" smooth="yes"/>
      <point x="700" y="1062"/>
      <point x="525" y="1444"/>
      <point x="260" y="1640" type="curve"/>
    </contour>
  </outline>
</glyph>
<glyph name="CircumAccent" format="2">
  <advance width="850"/>
  <unicode hex="005E"/>
  <anchor x="425" y="1635" name="U"/>
  <outline>
    <contour>
      <point x="850" y="1170" type="line"/>
      <point x="510" y="1600" type="line"/>
      <point x="340" y="1600" type="line"/>
      <point x="0" y="1170" type="line"/>
      <point x="150" y="1170" type="line"/>
      <point x="425" y="1450" type="line"/>
      <point x="700" y="1170" type="line"/>
    </contour>
  </outline>
</glyph>
<glyph name="GraveAccent" format="2">
  <advance width="580"/>
  <unicode hex="0060"/>
  <anchor x="390" y="1635" name="U"/>
  <outline>
    <contour>
      <point x="0" y="1600" type="line"/>
      <point x="420" y="1170" type="line"/>
      <point x="580" y="1170" type="line"/>
      <point x="230" y="1600" type="line"/>
    </contour>
  </outline>
</glyph>
<glyph name="LtnSmG.SngBowl" format="2">
  <advance width="1125"/>
  <unicode hex="0067"/>
  <anchor x="555" y="-432" name="H"/>
  <anchor x="555" y="-500" name="L"/>
  <anchor x="1125" y="1000" name="R"/>
  <anchor x="595" y="1100" name="U"/>
  <outline>
    <contour>
      <point x="990" y="965" type="line"/>
      <point x="881" y="1001"/>
      <point x="746" y="1040"/>
      <point x="625" y="1040" type="curve" smooth="yes"/>
      <point x="260" y="1040"/>
      <point x="105" y="742"/>
      <point x="105" y="435" type="curve" smooth="yes"/>
      <point x="105" y="117"/>
      <point x="276" y="-5"/>
      <point x="460" y="-5" type="curve" smooth="yes"/>
      <point x="570" y="-5"/>
      <point x="701" y="64"/>
      <point x="805" y="195" type="curve"/>
      <point x="805" y="-10" type="line" smooth="yes"/>
      <point x="805" y="-242"/>
      <point x="639" y="-310"/>
      <point x="535" y="-310" type="curve" smooth="yes"/>
      <point x="436" y="-310"/>
      <point x="339" y="-263"/>
      <point x="245" y="-195" type="curve"/>
      <point x="180" y="-350" type="line"/>
      <point x="286" y="-422"/>
      <point x="418" y="-470"/>
      <point x="545" y="-470" type="curve" smooth="yes"/>
      <point x="767" y="-470"/>
      <point x="990" y="-327"/>
      <point x="990" y="25" type="curve" smooth="yes"/>
    </contour>
    <contour>
      <point x="805" y="395" type="line"/>
      <point x="718" y="248"/>
      <point x="581" y="165"/>
      <point x="480" y="165" type="curve" smooth="yes"/>
      <point x="372" y="165"/>
      <point x="290" y="238"/>
      <point x="290" y="485" type="curve" smooth="yes"/>
      <point x="290" y="674"/>
      <point x="376" y="870"/>
      <point x="595" y="870" type="curve" smooth="yes"/>
      <point x="656" y="870"/>
      <point x="742" y="854"/>
      <point x="805" y="830" type="curve"/>
    </contour>
  </outline>
</glyph>
<glyph name="InvExclamationMrk" format="2">
  <advance width="764"/>
  <unicode hex="00A1"/>
  <outline>
    <contour>
      <point x="278" y="660" type="line"/>
      <point x="271" y="370"/>
      <point x="271" y="24"/>
      <point x="233" y="-410" type="curve"/>
      <point x="488" y="-410" type="line"/>
      <point x="449" y="24"/>
      <point x="449" y="370"/>
      <point x="443" y="660" type="curve"/>
    </contour>
    <contour>
      <point x="227" y="978" type="curve" smooth="yes"/>
      <point x="227" y="904"/>
      <point x="287" y="844"/>
      <point x="361" y="844" type="curve" smooth="yes"/>
      <point x="435" y="844"/>
      <point x="495" y="904"/>
      <point x="495" y="978" type="curve" smooth="yes"/>
      <point x="495" y="1052"/>
      <point x="435" y="1112"/>
      <point x="361" y="1112" type="curve" smooth="yes"/>
      <point x="287" y="1112"/>
      <point x="227" y="1052"/>
    </contour>
  </outline>
</glyph>
<glyph name="Diaer" format="2">
  <advance width="680"/>
  <unicode hex="00A8"/>
  <anchor x="340" y="1505" name="U"/>
  <anchor x="340" y="1100" name="_U"/>
  <outline>
    <contour>
      <point x="420" y="1345" type="curve" smooth="yes"/>
      <point x="420" y="1271"/>
      <point x="476" y="1210"/>
      <point x="550" y="1210" type="curve" smooth="yes"/>
      <point x="625" y="1210"/>
      <point x="680" y="1271"/>
      <point x="680" y="1345" type="curve" smooth="yes"/>
      <point x="680" y="1419"/>
      <point x="625" y="1480"/>
      <point x="550" y="1480" type="curve" smooth="yes"/>
      <point x="476" y="1480"/>
      <point x="420" y="1419"/>
    </contour>
    <contour>
      <point x="0" y="1345" type="curve" smooth="yes"/>
      <point x="0" y="1271"/>
      <point x="56" y="1210"/>
      <point x="130" y="1210" type="curve" smooth="yes"/>
      <point x="205" y="1210"/>
      <point x="260" y="1271"/>
      <point x="260" y="1345" type="curve" smooth="yes"/>
      <point x="260" y="1419"/>
      <point x="205" y="1480"/>
      <point x="130" y="1480" type="curve" smooth="yes"/>
      <point x="56" y="1480"/>
      <point x="0" y="1419"/>
    </contour>
  </outline>
</glyph>
<glyph name="CopyrightSgn" format="2">
  <advance width="1515"/>
  <unicode hex="00A9"/>
  <outline>
    <contour>
      <point x="755" y="1365" type="curve" smooth="yes"/>
      <point x="1054" y="1365"/>
      <point x="1340" y="1145"/>
      <point x="1340" y="730" type="curve" smooth="yes"/>
      <point x="1340" y="315"/>
      <point x="1054" y="95"/>
      <point x="755" y="95" type="curve" smooth="yes"/>
      <point x="456" y="95"/>
      <point x="175" y="315"/>
      <point x="175" y="730" type="curve" smooth="yes"/>
      <point x="175" y="1145"/>
      <point x="456" y="1365"/>
    </contour>
    <contour>
      <point x="755" y="1485" type="curve" smooth="yes"/>
      <point x="397" y="1485"/>
      <point x="50" y="1230"/>
      <point x="50" y="730" type="curve" smooth="yes"/>
      <point x="50" y="220"/>
      <point x="397" y="-25"/>
      <point x="755" y="-25" type="curve" smooth="yes"/>
      <point x="1103" y="-25"/>
      <point x="1465" y="220"/>
      <point x="1465" y="730" type="curve" smooth="yes"/>
      <point x="1465" y="1230"/>
      <point x="1103" y="1485"/>
    </contour>
    <contour>
      <point x="1010" y="505" type="line"/>
      <point x="940" y="434"/>
      <point x="853" y="385"/>
      <point x="760" y="385" type="curve" smooth="yes"/>
      <point x="590" y="385"/>
      <point x="480" y="558"/>
      <point x="480" y="735" type="curve" smooth="yes"/>
      <point x="480" y="961"/>
      <point x="610" y="1085"/>
      <point x="765" y="1085" type="curve" smooth="yes"/>
      <point x="842" y="1085"/>
      <point x="910" y="1058"/>
      <point x="990" y="985" type="curve"/>
      <point x="1030" y="1105" type="line"/>
      <point x="939" y="1173"/>
      <point x="856" y="1195"/>
      <point x="765" y="1195" type="curve" smooth="yes"/>
      <point x="561" y="1195"/>
      <point x="355" y="1028"/>
      <point x="355" y="720" type="curve" smooth="yes"/>
      <point x="355" y="452"/>
      <point x="513" y="270"/>
      <point x="750" y="270" type="curve" smooth="yes"/>
      <point x="847" y="270"/>
      <point x="961" y="306"/>
      <point x="1035" y="375" type="curve"/>
    </contour>
  </outline>
</glyph>
<glyph name="NotSgn" format="2">
  <advance width="1200"/>
  <unicode hex="00AC"/>
  <outline>
    <contour>
      <point x="1065" y="340" type="line"/>
      <point x="1065" y="800" type="line"/>
      <point x="110" y="800" type="line"/>
      <point x="110" y="650" type="line"/>
      <point x="915" y="650" type="line"/>
      <point x="915" y="340" type="line"/>
    </contour>
  </outline>
</glyph>
<glyph name="Macron" format="2">
  <advance width="710"/>
  <unicode hex="00AF"/>
  <outline>
    <contour>
      <point x="0" y="1240" type="line"/>
      <point x="710" y="1240" type="line"/>
      <point x="710" y="1390" type="line"/>
      <point x="0" y="1390" type="line"/>
    </contour>
  </outline>
</glyph>
<glyph name="SupTwo" format="2">
  <advance width="840"/>
  <unicode hex="00B2"/>
  <anchor x="420" y="615" name="L"/>
  <anchor x="420" y="1675" name="U"/>
  <outline>
    <contour>
      <point x="761" y="797" type="line"/>
      <point x="705" y="788"/>
      <point x="594" y="787"/>
      <point x="456" y="787" type="curve" smooth="yes"/>
      <point x="278" y="787" type="line"/>
      <point x="431" y="909"/>
      <point x="712" y="1154"/>
      <point x="712" y="1372" type="curve" smooth="yes"/>
      <point x="712" y="1540"/>
      <point x="565" y="1645"/>
      <point x="397" y="1645" type="curve" smooth="yes"/>
      <point x="279" y="1645"/>
      <point x="149" y="1591"/>
      <point x="92" y="1518" type="curve"/>
      <point x="124" y="1408" type="line"/>
      <point x="186" y="1478"/>
      <point x="286" y="1528"/>
      <point x="372" y="1528" type="curve" smooth="yes"/>
      <point x="473" y="1528"/>
      <point x="572" y="1481"/>
      <point x="572" y="1359" type="curve" smooth="yes"/>
      <point x="572" y="1179"/>
      <point x="279" y="917"/>
      <point x="89" y="790" type="curve"/>
      <point x="89" y="680" type="line"/>
      <point x="761" y="680" type="line"/>
    </contour>
  </outline>
</glyph>
<glyph name="SupThree" format="2">
  <advance width="840"/>
  <unicode hex="00B3"/>
  <anchor x="420" y="615" name="L"/>
  <anchor x="420" y="1675" name="U"/>
  <outline>
    <contour>
      <point x="292" y="1246" type="line"/>
      <point x="292" y="1135" type="line"/>
      <point x="341" y="1135" type="line"/>
      <point x="506" y="1135"/>
      <point x="632" y="1062"/>
      <point x="632" y="956" type="curve" smooth="yes"/>
      <point x="632" y="837"/>
      <point x="508" y="778"/>
      <point x="400" y="778" type="curve" smooth="yes"/>
      <point x="274" y="778"/>
      <point x="176" y="831"/>
      <point x="100" y="911" type="curve"/>
      <point x="82" y="771" type="line"/>
      <point x="156" y="707"/>
      <point x="263" y="664"/>
      <point x="386" y="664" type="curve" smooth="yes"/>
      <point x="589" y="664"/>
      <point x="768" y="790"/>
      <point x="768" y="943" type="curve" smooth="yes"/>
      <point x="768" y="1117"/>
      <point x="608" y="1184"/>
      <point x="509" y="1200" type="curve"/>
      <point x="608" y="1219"/>
      <point x="733" y="1302"/>
      <point x="733" y="1421" type="curve" smooth="yes"/>
      <point x="733" y="1560"/>
      <point x="585" y="1645"/>
      <point x="411" y="1645" type="curve"/>
      <point x="294" y="1645"/>
      <point x="187" y="1600"/>
      <point x="131" y="1541" type="curve"/>
      <point x="156" y="1431" type="line"/>
      <point x="235" y="1506"/>
      <point x="310" y="1532"/>
      <point x="418" y="1532" type="curve" smooth="yes"/>
      <point x="503" y="1532"/>
      <point x="600" y="1492"/>
      <point x="600" y="1405" type="curve" smooth="yes"/>
      <point x="600" y="1324"/>
      <point x="480" y="1246"/>
      <point x="341" y="1246" type="curve"/>
    </contour>
  </outline>
</glyph>
<glyph name="AcuteAccent" format="2">
  <advance width="580"/>
  <unicode hex="00B4"/>
  <anchor x="180" y="1635" name="U"/>
  <outline>
    <contour>
      <point x="350" y="1600" type="line"/>
      <point x="0" y="1170" type="line"/>
      <point x="160" y="1170" type="line"/>
      <point x="580" y="1600" type="line"/>
    </contour>
  </outline>
</glyph>
<glyph name="PilcrowSgn" format="2">
  <advance width="1025"/>
  <unicode hex="00B6"/>
  <outline>
    <contour>
      <point x="965" y="1345" type="line"/>
      <point x="965" y="1460" type="line"/>
      <point x="440" y="1460" type="line" smooth="yes"/>
      <point x="282" y="1460"/>
      <point x="50" y="1382"/>
      <point x="50" y="1113" type="curve" smooth="yes"/>
      <point x="50" y="845"/>
      <point x="283" y="765"/>
      <point x="420" y="765" type="curve"/>
      <point x="420" y="0" type="line"/>
      <point x="555" y="0" type="line"/>
      <point x="555" y="1345" type="line"/>
      <point x="715" y="1345" type="line"/>
      <point x="715" y="0" type="line"/>
      <point x="850" y="0" type="line"/>
      <point x="850" y="1345" type="line"/>
    </contour>
  </outline>
</glyph>
<glyph name="LtnCapHStrk" format="2">
  <advance width="1550"/>
  <unicode hex="0126"/>
  <anchor x="775" y="-100" name="L"/>
  <anchor x="775" y="1530" name="U"/>
  <outline>
    <contour>
      <point x="1135" y="1460" type="line"/>
      <point x="1135" y="835" type="line"/>
      <point x="415" y="835" type="line"/>
      <point x="415" y="1460" type="line"/>
      <point x="210" y="1460" type="line"/>
      <point x="225" y="1380"/>
      <point x="225" y="1222"/>
      <point x="225" y="1025" type="curve" smooth="yes"/>
      <point x="225" y="435" type="line" smooth="yes"/>
      <point x="225" y="238"/>
      <point x="225" y="80"/>
      <point x="210" y="0" type="curve"/>
      <point x="210" y="0"/>
      <point x="415" y="0"/>
      <point x="415" y="0" type="curve"/>
      <point x="415" y="675" type="line"/>
      <point x="1135" y="675" type="line"/>
      <point x="1135" y="0" type="line"/>
      <point x="1135" y="0"/>
      <point x="1340" y="0"/>
      <point x="1340" y="0" type="curve"/>
      <point x="1325" y="80"/>
      <point x="1325" y="238"/>
      <point x="1325" y="435" type="curve" smooth="yes"/>
      <point x="1325" y="1025" type="line" smooth="yes"/>
      <point x="1325" y="1222"/>
      <point x="1325" y="1380"/>
      <point x="1340" y="1460" type="curve"/>
    </contour>
    <contour>
      <point x="55" y="1080" type="line"/>
      <point x="1495" y="1080" type="line"/>
      <point x="1495" y="1225" type="line"/>
      <point x="55" y="1225" type="line"/>
    </contour>
  </outline>
</glyph>
<glyph name="LtnCapLCaron" format="2">
  <advance width="1080"/>
  <unicode hex="013D"/>
  <anchor x="592" y="0" name="H"/>
  <anchor x="592" y="-100" name="L"/>
  <anchor x="592" y="1530" name="U"/>
  <outline>
    <component base="LtnCapL"/>
    <contour>
      <point x="545" y="1110" type="line"/>
      <point x="665" y="1110" type="line"/>
      <point x="775" y="1600" type="line"/>
      <point x="590" y="1600" type="line"/>
    </contour>
  </outline>
</glyph>
<glyph name="LtnSmLCaron" format="2">
  <advance width="655"/>
  <unicode hex="013E"/>
  <anchor x="290" y="0" name="H"/>
  <anchor x="290" y="-100" name="L"/>
  <anchor x="290" y="1635" name="U"/>
  <outline>
    <contour>
      <point x="375" y="1600" type="line"/>
      <point x="170" y="1600" type="line"/>
      <point x="183" y="1485"/>
      <point x="190" y="1324"/>
      <point x="190" y="1130" type="curve" smooth="yes"/>
      <point x="190" y="0" type="line"/>
      <point x="395" y="0" type="line"/>
      <point x="382" y="109"/>
      <point x="375" y="346"/>
      <point x="375" y="475" type="curve" smooth="yes"/>
    </contour>
    <contour>
      <point x="475" y="1110" type="line"/>
      <point x="595" y="1110" type="line"/>
      <point x="705" y="1600" type="line"/>
      <point x="520" y="1600" type="line"/>
    </contour>
  </outline>
</glyph>
<glyph name="LtnSmLStrk" format="2">
  <advance width="860"/>
  <unicode hex="0142"/>
  <anchor x="432" y="-100" name="L"/>
  <anchor x="432" y="1635" name="U"/>
  <outline>
    <contour>
      <point x="525" y="1600" type="line"/>
      <point x="320" y="1600" type="line"/>
      <point x="333" y="1485"/>
      <point x="340" y="1324"/>
      <point x="340" y="1130" type="curve" smooth="yes"/>
      <point x="340" y="0" type="line"/>
      <point x="545" y="0" type="line"/>
      <point x="532" y="109"/>
      <point x="525" y="346"/>
      <point x="525" y="475" type="curve" smooth="yes"/>
    </contour>
    <contour>
      <point x="765" y="930" type="line"/>
      <point x="700" y="1070" type="line"/>
      <point x="100" y="655" type="line"/>
      <point x="165" y="515" type="line"/>
    </contour>
  </outline>
</glyph>
<glyph name="LtnCapLigOe" format="2">
  <advance width="1950"/>
  <unicode hex="0152"/>
  <anchor x="962" y="-100" name="L"/>
  <anchor x="962" y="1530" name="U"/>
  <outline>
    <contour>
      <point x="1830" y="0" type="line"/>
      <point x="1830" y="180" type="line"/>
      <point x="1750" y="166"/>
      <point x="1616" y="165"/>
      <point x="1419" y="165" type="curve" smooth="yes"/>
      <point x="1255" y="165" type="line"/>
      <point x="1255" y="685" type="line"/>
      <point x="1725" y="685" type="line"/>
      <point x="1725" y="845" type="line"/>
      <point x="1255" y="845" type="line"/>
      <point x="1255" y="1295" type="line"/>
      <point x="1800" y="1295" type="line"/>
      <point x="1800" y="1460" type="line"/>
      <point x="1065" y="1460" type="line"/>
      <point x="1065" y="1296" type="line"/>
      <point x="976" y="1407"/>
      <point x="853" y="1485"/>
      <point x="690" y="1485" type="curve" smooth="yes"/>
      <point x="377" y="1485"/>
      <point x="95" y="1199"/>
      <point x="95" y="720" type="curve" smooth="yes"/>
      <point x="95" y="241"/>
      <point x="358" y="-25"/>
      <point x="670" y="-25" type="curve" smooth="yes"/>
      <point x="819" y="-25"/>
      <point x="960" y="50"/>
      <point x="1065" y="165" type="curve"/>
      <point x="1065" y="0" type="line"/>
    </contour>
    <contour>
      <point x="1075" y="715" type="curve" smooth="yes"/>
      <point x="1075" y="360"/>
      <point x="925" y="150"/>
      <point x="680" y="150" type="curve" smooth="yes"/>
      <point x="440" y="150"/>
      <point x="290" y="380"/>
      <point x="290" y="745" type="curve" smooth="yes"/>
      <point x="290" y="1091"/>
      <point x="447" y="1310"/>
      <point x="680" y="1310" type="curve" smooth="yes"/>
      <point x="934" y="1310"/>
      <point x="1075" y="1084"/>
    </contour>
  </outline>
</glyph>
<glyph name="LtnCapBHook" format="2">
  <advance width="1647"/>
  <unicode hex="0181"/>
  <anchor x="977" y="-100" name="L"/>
  <anchor x="977" y="1530" name="U"/>
  <outline>
    <contour>
      <point x="945" y="-10" type="curve" smooth="yes"/>
      <point x="1328" y="-10"/>
      <point x="1500" y="177"/>
      <point x="1500" y="420" type="curve" smooth="yes"/>
      <point x="1500" y="669"/>
      <point x="1334" y="760"/>
      <point x="1180" y="801" type="curve"/>
      <point x="1316" y="853"/>
      <point x="1425" y="952"/>
      <point x="1425" y="1120" type="curve" smooth="yes"/>
      <point x="1425" y="1360"/>
      <point x="1252" y="1470"/>
      <point x="885" y="1470" type="curve" smooth="yes"/>
      <point x="610" y="1470" type="line" smooth="yes"/>
      <point x="260" y="1470"/>
      <point x="30" y="1341"/>
      <point x="30" y="1065" type="curve" smooth="yes"/>
      <point x="30" y="1002"/>
      <point x="58" y="910"/>
      <point x="85" y="860" type="curve"/>
      <point x="250" y="900" type="line"/>
      <point x="221" y="952"/>
      <point x="200" y="1001"/>
      <point x="200" y="1085" type="curve" smooth="yes"/>
      <point x="200" y="1235"/>
      <point x="339" y="1315"/>
      <point x="540" y="1315" type="curve"/>
      <point x="855" y="1315" type="line"/>
      <point x="1141" y="1315"/>
      <point x="1230" y="1244"/>
      <point x="1230" y="1090" type="curve" smooth="yes"/>
      <point x="1230" y="951"/>
      <point x="1114" y="856"/>
      <point x="900" y="856" type="curve" smooth="yes"/>
      <point x="725" y="856" type="line"/>
      <point x="725" y="1365" type="line"/>
      <point x="535" y="1365" type="line"/>
      <point x="535" y="455" type="line" smooth="yes"/>
      <point x="535" y="257"/>
      <point x="535" y="80"/>
      <point x="520" y="0" type="curve"/>
      <point x="520" y="0"/>
      <point x="742" y="-10"/>
    </contour>
    <contour>
      <point x="950" y="150" type="curve" smooth="yes"/>
      <point x="838" y="150"/>
      <point x="762" y="153"/>
      <point x="725" y="155" type="curve"/>
      <point x="725" y="700" type="line"/>
      <point x="940" y="700" type="line" smooth="yes"/>
      <point x="1173" y="700"/>
      <point x="1305" y="604"/>
      <point x="1305" y="420" type="curve" smooth="yes"/>
      <point x="1305" y="212"/>
      <point x="1121" y="150"/>
    </contour>
  </outline>
</glyph>
<glyph name="LtnSmTnSix" format="2">
  <advance width="1320"/>
  <unicode hex="0185"/>
  <anchor x="755" y="-100" name="L"/>
  <anchor x="755" y="1635" name="U"/>
  <outline>
    <contour>
      <point x="495" y="185" type="curve"/>
      <point x="495" y="585" type="line"/>
      <point x="563" y="751"/>
      <point x="696" y="865"/>
      <point x="820" y="865" type="curve" smooth="yes"/>
      <point x="964" y="865"/>
      <point x="1045" y="727"/>
      <point x="1045" y="505" type="curve" smooth="yes"/>
      <point x="1045" y="280"/>
      <point x="917" y="130"/>
      <point x="740" y="130" type="curve" smooth="yes"/>
      <point x="654" y="130"/>
      <point x="593" y="144"/>
    </contour>
    <contour>
      <point x="495" y="1600" type="line"/>
      <point x="335" y="1600" type="line"/>
      <point x="293" y="1502"/>
      <point x="135" y="1230"/>
      <point x="20" y="1045" type="curve"/>
      <point x="165" y="1045" type="line"/>
      <point x="341" y="1270" type="line"/>
      <point x="310" y="1279" type="line"/>
      <point x="310" y="65" type="line"/>
      <point x="463" y="15"/>
      <point x="598" y="-25"/>
      <point x="740" y="-25" type="curve" smooth="yes"/>
      <point x="1035" y="-25"/>
      <point x="1225" y="197"/>
      <point x="1225" y="540" type="curve" smooth="yes"/>
      <point x="1225" y="832"/>
      <point x="1082" y="1040"/>
      <point x="880" y="1040" type="curve" smooth="yes"/>
      <point x="712" y="1040"/>
      <point x="588" y="947"/>
      <point x="495" y="825" type="curve"/>
    </contour>
  </outline>
</glyph>
<glyph name="LtnSmCHook" format="2">
  <advance width="1115"/>
  <unicode hex="0188"/>
  <anchor x="562" y="-100" name="L"/>
  <anchor x="577" y="1250" name="U"/>
  <outline>
    <contour>
      <point x="580" y="-25" type="curve" smooth="yes"/>
      <point x="730" y="-25"/>
      <point x="834" y="19"/>
      <point x="925" y="85" type="curve"/>
      <point x="905" y="260" type="line"/>
      <point x="818" y="183"/>
      <point x="720" y="140"/>
      <point x="600" y="140" type="curve" smooth="yes"/>
      <point x="406" y="140"/>
      <point x="285" y="285"/>
      <point x="285" y="500" type="curve" smooth="yes"/>
      <point x="285" y="736"/>
      <point x="422" y="875"/>
      <point x="600" y="875" type="curve" smooth="yes"/>
      <point x="723" y="875"/>
      <point x="792" y="848"/>
      <point x="915" y="785" type="curve"/>
      <point x="915" y="955" type="line"/>
      <point x="842" y="1005"/>
      <point x="748" y="1040"/>
      <point x="615" y="1040" type="curve" smooth="yes"/>
      <point x="297" y="1040"/>
      <point x="95" y="792"/>
      <point x="95" y="490" type="curve" smooth="yes"/>
      <point x="95" y="171"/>
      <point x="312" y="-25"/>
    </contour>
    <contour>
      <point x="915" y="866" type="line"/>
      <point x="915" y="1100" type="line" smooth="yes"/>
      <point x="915" y="1210"/>
      <point x="951" y="1250"/>
      <point x="1025" y="1250" type="curve" smooth="yes"/>
      <point x="1073" y="1250"/>
      <point x="1120" y="1227"/>
      <point x="1170" y="1190" type="curve"/>
      <point x="1215" y="1350" type="line"/>
      <point x="1153" y="1394"/>
      <point x="1093" y="1420"/>
      <point x="1025" y="1420" type="curve" smooth="yes"/>
      <point x="874" y="1420"/>
      <point x="760" y="1327"/>
      <point x="760" y="1080" type="curve" smooth="yes"/>
      <point x="760" y="942" type="line"/>
    </contour>
  </outline>
</glyph>
<glyph name="LtnCapDHook" format="2">
  <advance width="1795"/>
  <unicode hex="018A"/>
  <anchor x="1055" y="-100" name="L"/>
  <anchor x="1055" y="1530" name="U"/>
  <outline>
    <contour>
      <point x="955" y="-10" type="curve" smooth="yes"/>
      <point x="1248" y="-10"/>
      <point x="1675" y="145"/>
      <point x="1675" y="740" type="curve" smooth="yes"/>
      <point x="1675" y="1394"/>
      <point x="1189" y="1470"/>
      <point x="915" y="1470" type="curve" smooth="yes"/>
      <point x="609" y="1470" type="line" smooth="yes"/>
      <point x="259" y="1470"/>
      <point x="30" y="1341"/>
      <point x="30" y="1065" type="curve" smooth="yes"/>
      <point x="30" y="1002"/>
      <point x="58" y="910"/>
      <point x="85" y="860" type="curve"/>
      <point x="240" y="900" type="line"/>
      <point x="211" y="952"/>
      <point x="190" y="1001"/>
      <point x="190" y="1080" type="curve" smooth="yes"/>
      <point x="190" y="1240"/>
      <point x="369" y="1310"/>
      <point x="540" y="1310" type="curve"/>
      <point x="890" y="1310" type="line" smooth="yes"/>
      <point x="1228" y="1310"/>
      <point x="1480" y="1167"/>
      <point x="1480" y="720" type="curve" smooth="yes"/>
      <point x="1480" y="308"/>
      <point x="1213" y="155"/>
      <point x="945" y="155" type="curve" smooth="yes"/>
      <point x="850" y="155"/>
      <point x="772" y="161"/>
      <point x="725" y="165" type="curve"/>
      <point x="725" y="1419" type="line"/>
      <point x="535" y="1384" type="line"/>
      <point x="535" y="455" type="line" smooth="yes"/>
      <point x="535" y="257"/>
      <point x="535" y="80"/>
      <point x="520" y="0" type="curve"/>
      <point x="572" y="-4"/>
      <point x="827" y="-10"/>
    </contour>
  </outline>
</glyph>
<glyph name="LtnSmHv" format="2">
  <advance width="1810"/>
  <unicode hex="0195"/>
  <anchor x="1006" y="-100" name="L"/>
  <anchor x="1006" y="1100" name="U"/>
  <outline>
    <contour>
      <point x="1310" y="855" type="line"/>
      <point x="1350" y="877"/>
      <point x="1369" y="880"/>
      <point x="1415" y="880" type="curve" smooth="yes"/>
      <point x="1482" y="880"/>
      <point x="1530" y="814"/>
      <point x="1530" y="690" type="curve" smooth="yes"/>
      <point x="1530" y="329"/>
      <point x="1389" y="140"/>
      <point x="1225" y="140" type="curve" smooth="yes"/>
      <point x="1107" y="140"/>
      <point x="1040" y="205"/>
      <point x="1040" y="430" type="curve" smooth="yes"/>
      <point x="1040" y="625" type="line" smooth="yes"/>
      <point x="1040" y="900"/>
      <point x="923" y="1040"/>
      <point x="710" y="1040" type="curve" smooth="yes"/>
      <point x="570" y="1040"/>
      <point x="428" y="969"/>
      <point x="330" y="830" type="curve"/>
      <point x="330" y="1600" type="line"/>
      <point x="130" y="1600" type="line"/>
      <point x="145" y="1514"/>
      <point x="145" y="1345"/>
      <point x="145" y="1130" type="curve" smooth="yes"/>
      <point x="145" y="0" type="line"/>
      <point x="330" y="0" type="line"/>
      <point x="330" y="580" type="line"/>
      <point x="374" y="716"/>
      <point x="511" y="865"/>
      <point x="655" y="865" type="curve" smooth="yes"/>
      <point x="789" y="865"/>
      <point x="855" y="800"/>
      <point x="855" y="550" type="curve" smooth="yes"/>
      <point x="855" y="370" type="line" smooth="yes"/>
      <point x="855" y="88"/>
      <point x="1015" y="-25"/>
      <point x="1205" y="-25" type="curve" smooth="yes"/>
      <point x="1546" y="-25"/>
      <point x="1715" y="295"/>
      <point x="1715" y="645" type="curve" smooth="yes"/>
      <point x="1715" y="945"/>
      <point x="1587" y="1040"/>
      <point x="1405" y="1040" type="curve" smooth="yes"/>
      <point x="1345" y="1040"/>
      <point x="1313" y="1029"/>
      <point x="1265" y="1005" type="curve"/>
    </contour>
  </outline>
</glyph>
<glyph name="LtnCapIota" format="2">
  <advance width="795"/>
  <unicode hex="0196"/>
  <anchor x="445" y="-100" name="L"/>
  <anchor x="270" y="1530" name="U"/>
  <outline>
    <contour>
      <point x="365" y="1460" type="line"/>
      <point x="155" y="1460" type="line"/>
      <point x="167" y="1351"/>
      <point x="174" y="1201"/>
      <point x="175" y="1020" type="curve"/>
      <point x="175" y="290" type="line" smooth="yes"/>
      <point x="175" y="103"/>
      <point x="305" y="-25"/>
      <point x="490" y="-25" type="curve" smooth="yes"/>
      <point x="561" y="-25"/>
      <point x="640" y="2"/>
      <point x="735" y="70" type="curve"/>
      <point x="715" y="265" type="line"/>
      <point x="647" y="189"/>
      <point x="580" y="155"/>
      <point x="520" y="155" type="curve" smooth="yes"/>
      <point x="402" y="155"/>
      <point x="365" y="222"/>
      <point x="365" y="380" type="curve" smooth="yes"/>
    </contour>
  </outline>
</glyph>
<glyph name="LtnCapIStrk" format="2">
  <advance width="1035"/>
  <unicode hex="0197"/>
  <anchor x="507" y="-100" name="L"/>
  <anchor x="507" y="1530" name="U"/>
  <outline>
    <contour>
      <point x="170" y="1460" type="line"/>
      <point x="170" y="1315" type="line"/>
      <point x="410" y="1315" type="line"/>
      <point x="410" y="145" type="line"/>
      <point x="170" y="145" type="line"/>
      <point x="170" y="0" type="line"/>
      <point x="845" y="0" type="line"/>
      <point x="845" y="145" type="line"/>
      <point x="600" y="145" type="line"/>
      <point x="600" y="1315" type="line"/>
      <point x="845" y="1315" type="line"/>
      <point x="845" y="1460" type="line"/>
    </contour>
    <contour>
      <point x="150" y="835" type="line"/>
      <point x="150" y="690" type="line"/>
      <point x="865" y="690" type="line"/>
      <point x="865" y="835" type="line"/>
    </contour>
  </outline>
</glyph>
<glyph name="LtnCapKHook" format="2">
  <advance width="1235"/>
  <unicode hex="0198"/>
  <anchor x="695" y="-100" name="L"/>
  <anchor x="695" y="1530" name="U"/>
  <outline>
    <contour>
      <point x="1320" y="1395" type="line"/>
      <point x="1251" y="1461"/>
      <point x="1176" y="1485"/>
      <point x="1100" y="1485" type="curve" smooth="yes"/>
      <point x="964" y="1485"/>
      <point x="875" y="1408"/>
      <point x="725" y="1225" type="curve" smooth="yes"/>
      <point x="295" y="703" type="line"/>
      <point x="425" y="745" type="line"/>
      <point x="530" y="740" type="line"/>
      <point x="795" y="1055" type="line" smooth="yes"/>
      <point x="920" y="1204"/>
      <point x="992" y="1325"/>
      <point x="1090" y="1325" type="curve" smooth="yes"/>
      <point x="1144" y="1325"/>
      <point x="1181" y="1319"/>
      <point x="1250" y="1245" type="curve"/>
    </contour>
    <contour>
      <point x="350" y="735" type="line"/>
      <point x="985" y="0" type="line"/>
      <point x="1230" y="0" type="line"/>
      <point x="485" y="860" type="line"/>
    </contour>
    <contour>
      <point x="365" y="1460" type="line"/>
      <point x="160" y="1460" type="line"/>
      <point x="175" y="1380"/>
      <point x="175" y="1222"/>
      <point x="175" y="1025" type="curve" smooth="yes"/>
      <point x="175" y="435" type="line" smooth="yes"/>
      <point x="175" y="238"/>
      <point x="175" y="80"/>
      <point x="160" y="0" type="curve"/>
      <point x="365" y="0" type="line"/>
    </contour>
  </outline>
</glyph>
<glyph name="LtnCapNLftHook" format="2">
  <advance width="1550"/>
  <unicode hex="019D"/>
  <anchor x="787" y="-500" name="L"/>
  <anchor x="787" y="1530" name="U"/>
  <outline>
    <contour>
      <point x="250" y="1355" type="line"/>
      <point x="1185" y="0" type="line"/>
      <point x="1325" y="100" type="line"/>
      <point x="390" y="1460" type="line"/>
    </contour>
    <contour>
      <point x="1185" y="0" type="line"/>
      <point x="1350" y="0" type="line"/>
      <point x="1350" y="1025" type="line" smooth="yes"/>
      <point x="1350" y="1222"/>
      <point x="1351" y="1380"/>
      <point x="1365" y="1460" type="curve"/>
      <point x="1185" y="1460" type="line"/>
    </contour>
    <contour>
      <point x="-210" y="-420" type="line"/>
      <point x="-140" y="-456"/>
      <point x="-79" y="-470"/>
      <point x="-3" y="-470" type="curve" smooth="yes"/>
      <point x="225" y="-470"/>
      <point x="390" y="-338"/>
      <point x="390" y="95" type="curve" smooth="yes"/>
      <point x="390" y="1460" type="line"/>
      <point x="210" y="1460" type="line"/>
      <point x="225" y="1380"/>
      <point x="225" y="1222"/>
      <point x="225" y="1025" type="curve" smooth="yes"/>
      <point x="225" y="45" type="line" smooth="yes"/>
      <point x="225" y="-222"/>
      <point x="121" y="-305"/>
      <point x="7" y="-305" type="curve" smooth="yes"/>
      <point x="-56" y="-305"/>
      <point x="-102" y="-294"/>
      <point x="-145" y="-265" type="curve"/>
    </contour>
  </outline>
</glyph>
<glyph name="LtnCapOHorn" format="2">
  <advance width="1520"/>
  <unicode hex="01A0"/>
  <anchor x="717" y="-100" name="L"/>
  <anchor x="717" y="1530" name="U"/>
  <outline>
    <contour>
      <point x="1145" y="715" type="curve" smooth="yes"/>
      <point x="1145" y="360"/>
      <point x="965" y="150"/>
      <point x="720" y="150" type="curve" smooth="yes"/>
      <point x="460" y="150"/>
      <point x="290" y="380"/>
      <point x="290" y="745" type="curve" smooth="yes"/>
      <point x="290" y="1091"/>
      <point x="467" y="1310"/>
      <point x="720" y="1310" type="curve" smooth="yes"/>
      <point x="974" y="1310"/>
      <point x="1145" y="1084"/>
    </contour>
    <contour>
      <point x="1340" y="740" type="curve" smooth="yes"/>
      <point x="1340" y="1219"/>
      <point x="1048" y="1485"/>
      <point x="730" y="1485" type="curve" smooth="yes"/>
      <point x="407" y="1485"/>
      <point x="95" y="1199"/>
      <point x="95" y="720" type="curve" smooth="yes"/>
      <point x="95" y="241"/>
      <point x="388" y="-25"/>
      <point x="710" y="-25" type="curve" smooth="yes"/>
      <point x="1029" y="-25"/>
      <point x="1340" y="260"/>
    </contour>
    <contour>
      <point x="1130" y="1550" type="line"/>
      <point x="1310" y="1550" type="line"/>
      <point x="1310" y="1439"/>
      <point x="1246" y="1338"/>
      <point x="1160" y="1280" type="curve"/>
      <point x="1160" y="1160" type="line"/>
      <point x="1330" y="1252"/>
      <point x="1460" y="1393"/>
      <point x="1460" y="1585" type="curve"/>
      <point x="1460" y="1696"/>
      <point x="1385" y="1770"/>
      <point x="1295" y="1770" type="curve" smooth="yes"/>
      <point x="1208" y="1770"/>
      <point x="1157" y="1734"/>
      <point x="1130" y="1670" type="curve"/>
    </contour>
  </outline>
</glyph>
<glyph name="LtnSmOHorn" format="2">
  <advance width="1300"/>
  <unicode hex="01A1"/>
  <anchor x="570" y="-100" name="L"/>
  <anchor x="570" y="1100" name="U"/>
  <outline>
    <contour>
      <point x="95" y="505" type="curve" smooth="yes"/>
      <point x="95" y="161"/>
      <point x="286" y="-25"/>
      <point x="560" y="-25" type="curve" smooth="yes"/>
      <point x="823" y="-25"/>
      <point x="1045" y="161"/>
      <point x="1045" y="505" type="curve" smooth="yes"/>
      <point x="1045" y="849"/>
      <point x="855" y="1040"/>
      <point x="580" y="1040" type="curve" smooth="yes"/>
      <point x="317" y="1040"/>
      <point x="95" y="849"/>
    </contour>
    <contour>
      <point x="280" y="505" type="curve" smooth="yes"/>
      <point x="280" y="739"/>
      <point x="408" y="880"/>
      <point x="570" y="880" type="curve" smooth="yes"/>
      <point x="742" y="880"/>
      <point x="860" y="739"/>
      <point x="860" y="505" type="curve" smooth="yes"/>
      <point x="860" y="272"/>
      <point x="731" y="135"/>
      <point x="570" y="135" type="curve" smooth="yes"/>
      <point x="398" y="135"/>
      <point x="280" y="272"/>
    </contour>
    <contour>
      <point x="975" y="1070" type="line"/>
      <point x="1125" y="1070" type="line"/>
      <point x="1125" y="971"/>
      <point x="1055" y="891"/>
      <point x="960" y="840" type="curve"/>
      <point x="960" y="734" type="line"/>
      <point x="1144" y="825"/>
      <point x="1265" y="948"/>
      <point x="1265" y="1105" type="curve" smooth="yes"/>
      <point x="1265" y="1206"/>
      <point x="1200" y="1270"/>
      <point x="1120" y="1270" type="curve" smooth="yes"/>
      <point x="1033" y="1270"/>
      <point x="1002" y="1234"/>
      <point x="975" y="1170" type="curve"/>
    </contour>
  </outline>
</glyph>
<glyph name="LtnCapOi" format="2">
  <advance width="1930"/>
  <unicode hex="01A2"/>
  <anchor x="922" y="-100" name="L"/>
  <anchor x="922" y="1530" name="U"/>
  <outline>
    <contour>
      <point x="1105" y="331" type="line"/>
      <point x="1035" y="219"/>
      <point x="895" y="150"/>
      <point x="770" y="150" type="curve" smooth="yes"/>
      <point x="560" y="150"/>
      <point x="408" y="345"/>
      <point x="408" y="670" type="curve" smooth="yes"/>
      <point x="408" y="1036"/>
      <point x="547" y="1310"/>
      <point x="820" y="1310" type="curve" smooth="yes"/>
      <point x="936" y="1310"/>
      <point x="1028" y="1273"/>
      <point x="1105" y="1218" type="curve"/>
    </contour>
    <contour>
      <point x="1295" y="290" type="curve"/>
      <point x="1295" y="1160" type="line"/>
      <point x="1560" y="1270" type="line"/>
      <point x="1560" y="-490" type="line"/>
      <point x="1770" y="-490" type="line"/>
      <point x="1757" y="-375"/>
      <point x="1750" y="-170"/>
      <point x="1750" y="25" type="curve" smooth="yes"/>
      <point x="1750" y="1485" type="line"/>
      <point x="1570" y="1485" type="line"/>
      <point x="1275" y="1349" type="line"/>
      <point x="1161" y="1423"/>
      <point x="1006" y="1485"/>
      <point x="835" y="1485" type="curve" smooth="yes"/>
      <point x="422" y="1485"/>
      <point x="213" y="1124"/>
      <point x="213" y="645" type="curve" smooth="yes"/>
      <point x="213" y="206"/>
      <point x="478" y="-25"/>
      <point x="750" y="-25" type="curve" smooth="yes"/>
      <point x="979" y="-25"/>
      <point x="1157" y="98"/>
    </contour>
  </outline>
</glyph>
<glyph name="LtnSmOi" format="2">
  <advance width="1565"/>
  <unicode hex="01A3"/>
  <anchor x="765" y="-100" name="L"/>
  <anchor x="765" y="1100" name="U"/>
  <outline>
    <contour>
      <point x="1415" y="-150" type="curve" smooth="yes"/>
      <point x="1415" y="1020" type="line"/>
      <point x="1250" y="1020" type="line"/>
      <point x="960" y="899" type="line"/>
      <point x="861" y="975"/>
      <point x="736" y="1040"/>
      <point x="605" y="1040" type="curve" smooth="yes"/>
      <point x="270" y="1040"/>
      <point x="105" y="752"/>
      <point x="105" y="445" type="curve" smooth="yes"/>
      <point x="105" y="137"/>
      <point x="324" y="-25"/>
      <point x="510" y="-25" type="curve" smooth="yes"/>
      <point x="712" y="-25"/>
      <point x="851" y="96"/>
      <point x="970" y="241" type="curve"/>
      <point x="970" y="727" type="line"/>
      <point x="1230" y="830" type="line"/>
      <point x="1230" y="-490" type="line"/>
      <point x="1440" y="-490" type="line"/>
      <point x="1423" y="-405"/>
      <point x="1415" y="-310"/>
    </contour>
    <contour>
      <point x="785" y="275" type="line"/>
      <point x="708" y="188"/>
      <point x="621" y="145"/>
      <point x="530" y="145" type="curve" smooth="yes"/>
      <point x="417" y="145"/>
      <point x="290" y="238"/>
      <point x="290" y="485" type="curve" smooth="yes"/>
      <point x="290" y="674"/>
      <point x="386" y="870"/>
      <point x="575" y="870" type="curve" smooth="yes"/>
      <point x="636" y="870"/>
      <point x="722" y="848"/>
      <point x="785" y="794" type="curve"/>
    </contour>
  </outline>
</glyph>
<glyph name="LtnCapPHook" format="2">
  <advance width="1550"/>
  <unicode hex="01A4"/>
  <anchor x="750" y="-100" name="L"/>
  <anchor x="750" y="1530" name="U"/>
  <outline>
    <contour>
      <point x="515" y="0" type="curve"/>
      <point x="735" y="0" type="line"/>
      <point x="721" y="78"/>
      <point x="720" y="237"/>
      <point x="720" y="435" type="curve" smooth="yes"/>
      <point x="720" y="565" type="line"/>
      <point x="785" y="558"/>
      <point x="867" y="555"/>
      <point x="940" y="555" type="curve" smooth="yes"/>
      <point x="1269" y="555"/>
      <point x="1470" y="736"/>
      <point x="1470" y="1030" type="curve" smooth="yes"/>
      <point x="1470" y="1322"/>
      <point x="1263" y="1470"/>
      <point x="940" y="1470" type="curve" smooth="yes"/>
      <point x="803" y="1470"/>
      <point x="667" y="1470"/>
      <point x="530" y="1470" type="curve"/>
      <point x="530" y="1125"/>
      <point x="530" y="780"/>
      <point x="530" y="435" type="curve" smooth="yes"/>
      <point x="530" y="238"/>
      <point x="530" y="80"/>
    </contour>
    <contour>
      <point x="85" y="860" type="curve"/>
      <point x="255" y="900" type="line"/>
      <point x="226" y="952"/>
      <point x="210" y="996"/>
      <point x="210" y="1080" type="curve" smooth="yes"/>
      <point x="210" y="1240"/>
      <point x="369" y="1310"/>
      <point x="550" y="1310" type="curve"/>
      <point x="571" y="1470" type="line"/>
      <point x="532" y="1470" type="line" smooth="yes"/>
      <point x="231" y="1470"/>
      <point x="30" y="1330"/>
      <point x="30" y="1065" type="curve" smooth="yes"/>
      <point x="30" y="1002"/>
      <point x="58" y="910"/>
    </contour>
    <contour>
      <point x="925" y="710" type="curve" smooth="yes"/>
      <point x="850" y="710"/>
      <point x="783" y="712"/>
      <point x="720" y="720" type="curve"/>
      <point x="720" y="1305" type="line"/>
      <point x="788" y="1308"/>
      <point x="836" y="1310"/>
      <point x="930" y="1310" type="curve" smooth="yes"/>
      <point x="1196" y="1310"/>
      <point x="1280" y="1170"/>
      <point x="1280" y="1010" type="curve" smooth="yes"/>
      <point x="1280" y="849"/>
      <point x="1205" y="710"/>
    </contour>
  </outline>
</glyph>
<glyph name="LtnSmPHook" format="2">
  <advance width="1170"/>
  <unicode hex="01A5"/>
  <anchor x="660" y="-100" name="L"/>
  <anchor x="615" y="1635" name="U"/>
  <outline>
    <contour>
      <point x="155" y="-490" type="line"/>
      <point x="365" y="-490" type="line"/>
      <point x="348" y="-405"/>
      <point x="340" y="-310"/>
      <point x="340" y="-150" type="curve" smooth="yes"/>
      <point x="340" y="85" type="line"/>
      <point x="435" y="18"/>
      <point x="513" y="-25"/>
      <point x="620" y="-25" type="curve" smooth="yes"/>
      <point x="871" y="-25"/>
      <point x="1075" y="193"/>
      <point x="1075" y="535" type="curve" smooth="yes"/>
      <point x="1075" y="828"/>
      <point x="923" y="1040"/>
      <point x="695" y="1040" type="curve" smooth="yes"/>
      <point x="554" y="1040"/>
      <point x="432" y="963"/>
      <point x="340" y="849" type="curve"/>
      <point x="340" y="1010" type="line" smooth="yes"/>
      <point x="340" y="1202"/>
      <point x="399" y="1310"/>
      <point x="530" y="1310" type="curve" smooth="yes"/>
      <point x="603" y="1310"/>
      <point x="660" y="1294"/>
      <point x="730" y="1250" type="curve"/>
      <point x="810" y="1405" type="line"/>
      <point x="714" y="1464"/>
      <point x="626" y="1480"/>
      <point x="545" y="1480" type="curve" smooth="yes"/>
      <point x="271" y="1480"/>
      <point x="155" y="1305"/>
      <point x="155" y="980" type="curve" smooth="yes"/>
    </contour>
    <contour>
      <point x="620" y="140" type="curve" smooth="yes"/>
      <point x="528" y="140"/>
      <point x="477" y="164"/>
      <point x="340" y="260" type="curve"/>
      <point x="340" y="575" type="line"/>
      <point x="414" y="768"/>
      <point x="545" y="870"/>
      <point x="660" y="870" type="curve" smooth="yes"/>
      <point x="804" y="870"/>
      <point x="890" y="727"/>
      <point x="890" y="505" type="curve" smooth="yes"/>
      <point x="890" y="279"/>
      <point x="761" y="140"/>
    </contour>
  </outline>
</glyph>
<glyph name="LtnCapTnTwo" format="2">
  <advance width="1150"/>
  <unicode hex="01A7"/>
  <anchor x="575" y="-100" name="L"/>
  <anchor x="575" y="1530" name="U"/>
  <outline>
    <contour>
      <point x="1020" y="315" type="line"/>
      <point x="888" y="200"/>
      <point x="748" y="150"/>
      <point x="590" y="150" type="curve" smooth="yes"/>
      <point x="435" y="150"/>
      <point x="280" y="230"/>
      <point x="280" y="370" type="curve" smooth="yes"/>
      <point x="280" y="490"/>
      <point x="344" y="574"/>
      <point x="620" y="675" type="curve" smooth="yes"/>
      <point x="941" y="792"/>
      <point x="1035" y="935"/>
      <point x="1035" y="1105" type="curve" smooth="yes"/>
      <point x="1035" y="1275"/>
      <point x="907" y="1485"/>
      <point x="575" y="1485" type="curve" smooth="yes"/>
      <point x="421" y="1485"/>
      <point x="320" y="1458"/>
      <point x="190" y="1395" type="curve"/>
      <point x="230" y="1200" type="line"/>
      <point x="373" y="1279"/>
      <point x="457" y="1310"/>
      <point x="585" y="1310" type="curve" smooth="yes"/>
      <point x="735" y="1310"/>
      <point x="840" y="1220"/>
      <point x="840" y="1110" type="curve" smooth="yes"/>
      <point x="840" y="1000"/>
      <point x="788" y="931"/>
      <point x="530" y="835" type="curve" smooth="yes"/>
      <point x="252" y="732"/>
      <point x="85" y="621"/>
      <point x="85" y="405" type="curve" smooth="yes"/>
      <point x="85" y="137"/>
      <point x="290" y="-25"/>
      <point x="575" y="-25" type="curve" smooth="yes"/>
      <point x="790" y="-25"/>
      <point x="963" y="31"/>
      <point x="1065" y="110" type="curve"/>
    </contour>
  </outline>
</glyph>
<glyph name="LtnSmTnTwo" format="2">
  <advance width="965"/>
  <unicode hex="01A8"/>
  <anchor x="495" y="-100" name="L"/>
  <anchor x="495" y="1100" name="U"/>
  <outline>
    <contour>
      <point x="215" y="805" type="line"/>
      <point x="329" y="860"/>
      <point x="394" y="880"/>
      <point x="495" y="880" type="curve" smooth="yes"/>
      <point x="595" y="880"/>
      <point x="680" y="832"/>
      <point x="680" y="765" type="curve" smooth="yes"/>
      <point x="680" y="690"/>
      <point x="642" y="654"/>
      <point x="460" y="595" type="curve" smooth="yes"/>
      <point x="230" y="520"/>
      <point x="105" y="444"/>
      <point x="105" y="280" type="curve" smooth="yes"/>
      <point x="105" y="92"/>
      <point x="273" y="-25"/>
      <point x="510" y="-25" type="curve" smooth="yes"/>
      <point x="664" y="-25"/>
      <point x="803" y="25"/>
      <point x="885" y="80" type="curve"/>
      <point x="835" y="255" type="line"/>
      <point x="730" y="174"/>
      <point x="628" y="135"/>
      <point x="510" y="135" type="curve" smooth="yes"/>
      <point x="390" y="135"/>
      <point x="290" y="185"/>
      <point x="290" y="260" type="curve" smooth="yes"/>
      <point x="290" y="339"/>
      <point x="323" y="376"/>
      <point x="550" y="450" type="curve" smooth="yes"/>
      <point x="788" y="528"/>
      <point x="865" y="626"/>
      <point x="865" y="755" type="curve" smooth="yes"/>
      <point x="865" y="884"/>
      <point x="750" y="1040"/>
      <point x="485" y="1040" type="curve" smooth="yes"/>
      <point x="363" y="1040"/>
      <point x="283" y="1019"/>
      <point x="180" y="975" type="curve"/>
    </contour>
  </outline>
</glyph>
<glyph name="LtnCapEsh" format="2">
  <advance width="1230"/>
  <unicode hex="01A9"/>
  <anchor x="605" y="-100" name="L"/>
  <anchor x="605" y="1530" name="U"/>
  <outline>
    <contour>
      <point x="710" y="751" type="line"/>
      <point x="340" y="1295" type="line"/>
      <point x="680" y="1295" type="line" smooth="yes"/>
      <point x="877" y="1295"/>
      <point x="995" y="1292"/>
      <point x="1075" y="1275" type="curve"/>
      <point x="1075" y="1460" type="line"/>
      <point x="105" y="1460" type="line"/>
      <point x="105" y="1330" type="line"/>
      <point x="501" y="750" type="line"/>
      <point x="75" y="130" type="line"/>
      <point x="75" y="0" type="line"/>
      <point x="1135" y="0" type="line"/>
      <point x="1135" y="185" type="line"/>
      <point x="1055" y="171"/>
      <point x="869" y="165"/>
      <point x="700" y="165" type="curve"/>
      <point x="280" y="165" type="line"/>
    </contour>
  </outline>
</glyph>
<glyph name="LtnSmTHook" format="2">
  <advance width="835"/>
  <unicode hex="01AD"/>
  <anchor x="475" y="-100" name="L"/>
  <anchor x="475" y="1565" name="U"/>
  <outline>
    <contour>
      <point x="510" y="-25" type="curve" smooth="yes"/>
      <point x="580" y="-25"/>
      <point x="668" y="-4"/>
      <point x="760" y="55" type="curve"/>
      <point x="760" y="215" type="line"/>
      <point x="672" y="166"/>
      <point x="597" y="140"/>
      <point x="540" y="140" type="curve" smooth="yes"/>
      <point x="450" y="140"/>
      <point x="415" y="184"/>
      <point x="415" y="390" type="curve" smooth="yes"/>
      <point x="415" y="1110" type="line" smooth="yes"/>
      <point x="415" y="1241"/>
      <point x="471" y="1310"/>
      <point x="575" y="1310" type="curve" smooth="yes"/>
      <point x="633" y="1310"/>
      <point x="700" y="1287"/>
      <point x="750" y="1250" type="curve"/>
      <point x="795" y="1410" type="line"/>
      <point x="733" y="1454"/>
      <point x="653" y="1480"/>
      <point x="575" y="1480" type="curve" smooth="yes"/>
      <point x="369" y="1480"/>
      <point x="230" y="1330"/>
      <point x="230" y="1070" type="curve" smooth="yes"/>
      <point x="230" y="270" type="line" smooth="yes"/>
      <point x="230" y="39"/>
      <point x="354" y="-25"/>
    </contour>
    <contour>
      <point x="30" y="850" type="line"/>
      <point x="740" y="850" type="line"/>
      <point x="740" y="995" type="line"/>
      <point x="30" y="995" type="line"/>
    </contour>
  </outline>
</glyph>
<glyph name="LtnCapUHorn" format="2">
  <advance width="1645"/>
  <unicode hex="01AF"/>
  <anchor x="707" y="-100" name="L"/>
  <anchor x="707" y="1530" name="U"/>
  <outline>
    <contour>
      <point x="1240" y="1460" type="line"/>
      <point x="1050" y="1460" type="line"/>
      <point x="1050" y="560" type="line" smooth="yes"/>
      <point x="1050" y="299"/>
      <point x="968" y="135"/>
      <point x="710" y="135" type="curve" smooth="yes"/>
      <point x="447" y="135"/>
      <point x="365" y="299"/>
      <point x="365" y="560" type="curve" smooth="yes"/>
      <point x="365" y="1460" type="line"/>
      <point x="160" y="1460" type="line"/>
      <point x="174" y="1380"/>
      <point x="175" y="1222"/>
      <point x="175" y="1025" type="curve" smooth="yes"/>
      <point x="175" y="515" type="line" smooth="yes"/>
      <point x="175" y="190"/>
      <point x="345" y="-25"/>
      <point x="710" y="-25" type="curve" smooth="yes"/>
      <point x="1071" y="-25"/>
      <point x="1240" y="190"/>
      <point x="1240" y="515" type="curve" smooth="yes"/>
    </contour>
    <contour>
      <point x="1245" y="1580" type="line"/>
      <point x="1425" y="1580" type="line"/>
      <point x="1425" y="1439"/>
      <point x="1302" y="1260"/>
      <point x="1206" y="1217" type="curve"/>
      <point x="1206" y="1107" type="line"/>
      <point x="1395" y="1185"/>
      <point x="1575" y="1413"/>
      <point x="1575" y="1615" type="curve" smooth="yes"/>
      <point x="1575" y="1726"/>
      <point x="1500" y="1800"/>
      <point x="1410" y="1800" type="curve" smooth="yes"/>
      <point x="1323" y="1800"/>
      <point x="1272" y="1764"/>
      <point x="1245" y="1700" type="curve"/>
    </contour>
  </outline>
</glyph>
<glyph name="LtnSmUHorn" format="2">
  <advance width="1415"/>
  <unicode hex="01B0"/>
  <anchor x="589" y="-100" name="L"/>
  <anchor x="589" y="1100" name="U"/>
  <outline>
    <contour>
      <point x="1090" y="0" type="line"/>
      <point x="1048" y="112"/>
      <point x="1025" y="256"/>
      <point x="1025" y="450" type="curve" smooth="yes"/>
      <point x="1025" y="646"/>
      <point x="1025" y="1020"/>
      <point x="1025" y="1020" type="curve"/>
      <point x="820" y="1020" type="line"/>
      <point x="838" y="898"/>
      <point x="840" y="832"/>
      <point x="840" y="700" type="curve" smooth="yes"/>
      <point x="840" y="420" type="line"/>
      <point x="787" y="298"/>
      <point x="628" y="140"/>
      <point x="510" y="140" type="curve" smooth="yes"/>
      <point x="383" y="140"/>
      <point x="340" y="238"/>
      <point x="340" y="465" type="curve" smooth="yes"/>
      <point x="340" y="603"/>
      <point x="340" y="1020"/>
      <point x="340" y="1020" type="curve"/>
      <point x="135" y="1020" type="line"/>
      <point x="153" y="900"/>
      <point x="155" y="827"/>
      <point x="155" y="700" type="curve"/>
      <point x="155" y="405" type="line"/>
      <point x="155" y="120"/>
      <point x="262" y="-25"/>
      <point x="475" y="-25" type="curve" smooth="yes"/>
      <point x="615" y="-25"/>
      <point x="744" y="53"/>
      <point x="865" y="200" type="curve"/>
      <point x="875" y="125"/>
      <point x="901" y="46"/>
      <point x="920" y="0" type="curve"/>
    </contour>
    <contour>
      <point x="1060" y="1070" type="line"/>
      <point x="1210" y="1070" type="line"/>
      <point x="1210" y="939"/>
      <point x="1110" y="858"/>
      <point x="1020" y="815" type="curve"/>
      <point x="1020" y="705" type="line"/>
      <point x="1210" y="796"/>
      <point x="1350" y="893"/>
      <point x="1350" y="1105" type="curve" smooth="yes"/>
      <point x="1350" y="1206"/>
      <point x="1285" y="1270"/>
      <point x="1205" y="1270" type="curve" smooth="yes"/>
      <point x="1118" y="1270"/>
      <point x="1087" y="1234"/>
      <point x="1060" y="1170" type="curve"/>
    </contour>
  </outline>
</glyph>
<glyph name="LtnCapVHook" format="2">
  <advance width="1425"/>
  <unicode hex="01B2"/>
  <anchor x="680" y="-100" name="L"/>
  <anchor x="650" y="1530" name="U"/>
  <outline>
    <contour>
      <point x="755" y="1270" type="line"/>
      <point x="809" y="1303"/>
      <point x="854" y="1315"/>
      <point x="910" y="1315" type="curve" smooth="yes"/>
      <point x="1007" y="1315"/>
      <point x="1105" y="1221"/>
      <point x="1105" y="960" type="curve" smooth="yes"/>
      <point x="1105" y="459"/>
      <point x="867" y="150"/>
      <point x="655" y="150" type="curve" smooth="yes"/>
      <point x="463" y="150"/>
      <point x="380" y="278"/>
      <point x="380" y="605" type="curve" smooth="yes"/>
      <point x="380" y="1460" type="line"/>
      <point x="175" y="1460" type="line"/>
      <point x="190" y="1347"/>
      <point x="190" y="1168"/>
      <point x="190" y="992" type="curve" smooth="yes"/>
      <point x="190" y="537" type="line" smooth="yes"/>
      <point x="190" y="137"/>
      <point x="378" y="-25"/>
      <point x="635" y="-25" type="curve" smooth="yes"/>
      <point x="1045" y="-25"/>
      <point x="1300" y="471"/>
      <point x="1300" y="945" type="curve" smooth="yes"/>
      <point x="1300" y="1350"/>
      <point x="1140" y="1485"/>
      <point x="905" y="1485" type="curve" smooth="yes"/>
      <point x="833" y="1485"/>
      <point x="775" y="1469"/>
      <point x="710" y="1435" type="curve"/>
    </contour>
  </outline>
</glyph>
<glyph name="LtnSmYHook.RtHook" format="2">
  <advance width="1240"/>
  <unicode hex="01B4"/>
  <anchor x="795" y="-100" name="L"/>
  <anchor x="534" y="-410" name="O"/>
  <anchor x="525" y="1100" name="U"/>
  <outline>
    <contour>
      <point x="225" y="-470" type="curve" smooth="yes"/>
      <point x="395" y="-470"/>
      <point x="512" y="-383"/>
      <point x="655" y="0" type="curve" smooth="yes"/>
      <point x="708" y="142"/>
      <point x="848" y="574"/>
      <point x="919" y="795" type="curve" smooth="yes"/>
      <point x="1026" y="1128"/>
      <point x="1068" y="1160"/>
      <point x="1138" y="1160" type="curve" smooth="yes"/>
      <point x="1197" y="1160"/>
      <point x="1243" y="1137"/>
      <point x="1291" y="1100" type="curve"/>
      <point x="1340" y="1260" type="line"/>
      <point x="1276" y="1300"/>
      <point x="1215" y="1330"/>
      <point x="1138" y="1330" type="curve" smooth="yes"/>
      <point x="985" y="1330"/>
      <point x="880" y="1239"/>
      <point x="770" y="890" type="curve" smooth="yes"/>
      <point x="712" y="707"/>
      <point x="564" y="230"/>
      <point x="500" y="55" type="curve" smooth="yes"/>
      <point x="389" y="-248"/>
      <point x="315" y="-300"/>
      <point x="225" y="-300" type="curve" smooth="yes"/>
      <point x="159" y="-300"/>
      <point x="82" y="-260"/>
      <point x="40" y="-225" type="curve"/>
      <point x="-20" y="-385" type="line"/>
      <point x="53" y="-439"/>
      <point x="134" y="-470"/>
    </contour>
    <contour>
      <point x="525" y="-165" type="line"/>
      <point x="610" y="60" type="line"/>
      <point x="230" y="1020" type="line"/>
      <point x="30" y="1020" type="line"/>
      <point x="107" y="864"/>
      <point x="153" y="756"/>
      <point x="190" y="665" type="curve" smooth="yes"/>
    </contour>
  </outline>
</glyph>
<glyph name="LtnSmZStrk" format="2">
  <advance width="1040"/>
  <unicode hex="01B6"/>
  <anchor x="525" y="-100" name="L"/>
  <anchor x="525" y="1100" name="U"/>
  <outline>
    <contour>
      <point x="135" y="1020" type="line"/>
      <point x="135" y="855" type="line"/>
      <point x="172" y="870"/>
      <point x="231" y="870"/>
      <point x="290" y="870" type="curve" smooth="yes"/>
      <point x="680" y="870" type="line"/>
      <point x="105" y="110" type="line"/>
      <point x="105" y="0" type="line"/>
      <point x="945" y="0" type="line"/>
      <point x="945" y="165" type="line"/>
      <point x="885" y="150"/>
      <point x="823" y="150"/>
      <point x="765" y="150" type="curve" smooth="yes"/>
      <point x="335" y="150" type="line"/>
      <point x="930" y="925" type="line"/>
      <point x="930" y="1020" type="line"/>
    </contour>
    <contour>
      <point x="230" y="475" type="line"/>
      <point x="855" y="475" type="line"/>
      <point x="855" y="620" type="line"/>
      <point x="230" y="620" type="line"/>
    </contour>
  </outline>
</glyph>
<glyph name="LtnSmEzhRev" format="2">
  <advance width="1025"/>
  <unicode hex="01B9"/>
  <anchor x="580" y="-500" name="L"/>
  <anchor x="550" y="1100" name="U"/>
  <outline>
    <contour>
      <point x="165" y="1020" type="line"/>
      <point x="165" y="905" type="line"/>
      <point x="585" y="415" type="line"/>
      <point x="457" y="415"/>
      <point x="349" y="385"/>
      <point x="265" y="330" type="curve" smooth="yes"/>
      <point x="182" y="276"/>
      <point x="85" y="175"/>
      <point x="85" y="-10" type="curve" smooth="yes"/>
      <point x="85" y="-287"/>
      <point x="320" y="-470"/>
      <point x="580" y="-470" type="curve" smooth="yes"/>
      <point x="690" y="-470"/>
      <point x="879" y="-412"/>
      <point x="970" y="-350" type="curve"/>
      <point x="970" y="-155" type="line"/>
      <point x="855" y="-232"/>
      <point x="710" y="-305"/>
      <point x="570" y="-305" type="curve" smooth="yes"/>
      <point x="417" y="-305"/>
      <point x="265" y="-206"/>
      <point x="265" y="-30" type="curve" smooth="yes"/>
      <point x="265" y="108"/>
      <point x="352" y="265"/>
      <point x="650" y="265" type="curve" smooth="yes"/>
      <point x="695" y="265"/>
      <point x="745" y="263"/>
      <point x="800" y="255" type="curve"/>
      <point x="800" y="375" type="line"/>
      <point x="385" y="870" type="line"/>
      <point x="785" y="870" type="line" smooth="yes"/>
      <point x="844" y="870"/>
      <point x="903" y="870"/>
      <point x="940" y="855" type="curve"/>
      <point x="940" y="1020" type="line"/>
    </contour>
  </outline>
</glyph>
<glyph name="LtnInvGlottalStopStrk" format="2">
  <advance width="1005"/>
  <unicode hex="01BE"/>
  <anchor x="512" y="-100" name="L"/>
  <anchor x="512" y="1430" name="U"/>
  <outline>
    <contour>
      <point x="150" y="845" type="line"/>
      <point x="865" y="845" type="line"/>
      <point x="865" y="990" type="line"/>
      <point x="150" y="990" type="line"/>
    </contour>
    <contour>
      <point x="175" y="280" type="curve"/>
      <point x="135" y="105" type="line"/>
      <point x="221" y="29"/>
      <point x="326" y="-25"/>
      <point x="490" y="-25" type="curve" smooth="yes"/>
      <point x="715" y="-25"/>
      <point x="890" y="100"/>
      <point x="890" y="290" type="curve" smooth="yes"/>
      <point x="890" y="415"/>
      <point x="826" y="489"/>
      <point x="755" y="569" type="curve" smooth="yes"/>
      <point x="665" y="671"/>
      <point x="565" y="788"/>
      <point x="565" y="1040" type="curve" smooth="yes"/>
      <point x="565" y="1237"/>
      <point x="566" y="1314"/>
      <point x="580" y="1390" type="curve"/>
      <point x="370" y="1390" type="line"/>
      <point x="385" y="1314"/>
      <point x="385" y="1237"/>
      <point x="385" y="1040" type="curve" smooth="yes"/>
      <point x="385" y="750"/>
      <point x="501" y="607"/>
      <point x="592" y="497" type="curve" smooth="yes"/>
      <point x="649" y="428"/>
      <point x="695" y="371"/>
      <point x="695" y="300" type="curve" smooth="yes"/>
      <point x="695" y="213"/>
      <point x="599" y="145"/>
      <point x="470" y="145" type="curve" smooth="yes"/>
      <point x="356" y="145"/>
      <point x="259" y="194"/>
    </contour>
  </outline>
</glyph>
<glyph name="LtnDentalClick" format="2">
  <advance width="495"/>
  <unicode hex="01C0"/>
  <anchor x="248" y="-500" name="L"/>
  <anchor x="248" y="1635" name="U"/>
  <outline>
    <contour>
      <point x="170" y="1600" type="line"/>
      <point x="170" y="-490" type="line"/>
      <point x="325" y="-490" type="line"/>
      <point x="325" y="1600" type="line"/>
    </contour>
  </outline>
</glyph>
<glyph name="LtnAlveolarClick" format="2">
  <advance width="855"/>
  <unicode hex="01C2"/>
  <anchor x="437" y="-500" name="L"/>
  <anchor x="437" y="1635" name="U"/>
  <outline>
    <contour>
      <point x="95" y="645" type="line"/>
      <point x="760" y="645" type="line"/>
      <point x="760" y="800" type="line"/>
      <point x="95" y="800" type="line"/>
    </contour>
    <contour>
      <point x="95" y="305" type="line"/>
      <point x="760" y="305" type="line"/>
      <point x="760" y="460" type="line"/>
      <point x="95" y="460" type="line"/>
    </contour>
    <contour>
      <point x="360" y="1600" type="line"/>
      <point x="360" y="-490" type="line"/>
      <point x="515" y="-490" type="line"/>
      <point x="515" y="1600" type="line"/>
    </contour>
  </outline>
</glyph>
<glyph name="LtnCapGStrk" format="2">
  <advance width="1435"/>
  <unicode hex="01E4"/>
  <anchor x="815" y="-100" name="L"/>
  <anchor x="815" y="1530" name="U"/>
  <outline>
    <contour>
      <point x="1275" y="745" type="line"/>
      <point x="735" y="745" type="line"/>
      <point x="735" y="580" type="line"/>
      <point x="1085" y="580" type="line"/>
      <point x="1085" y="245" type="line"/>
      <point x="963" y="171"/>
      <point x="876" y="150"/>
      <point x="757" y="150" type="curve" smooth="yes"/>
      <point x="471" y="150"/>
      <point x="290" y="377"/>
      <point x="290" y="745" type="curve" smooth="yes"/>
      <point x="290" y="1094"/>
      <point x="480" y="1315"/>
      <point x="785" y="1315" type="curve" smooth="yes"/>
      <point x="918" y="1315"/>
      <point x="1046" y="1286"/>
      <point x="1195" y="1165" type="curve"/>
      <point x="1260" y="1345" type="line"/>
      <point x="1085" y="1462"/>
      <point x="947" y="1485"/>
      <point x="785" y="1485" type="curve" smooth="yes"/>
      <point x="402" y="1485"/>
      <point x="95" y="1199"/>
      <point x="95" y="720" type="curve" smooth="yes"/>
      <point x="95" y="241"/>
      <point x="367" y="-25"/>
      <point x="745" y="-25" type="curve" smooth="yes"/>
      <point x="918" y="-25"/>
      <point x="1070" y="11"/>
      <point x="1275" y="155" type="curve"/>
    </contour>
    <contour>
      <point x="735" y="455" type="line"/>
      <point x="735" y="310" type="line"/>
      <point x="1435" y="310" type="line"/>
      <point x="1435" y="455" type="line"/>
    </contour>
  </outline>
</glyph>
<glyph name="LtnCapYogh" format="2">
  <advance width="1185"/>
  <unicode hex="021C"/>
  <anchor x="587" y="-300" name="L"/>
  <anchor x="500" y="1530" name="U"/>
  <outline>
    <contour>
      <point x="165" y="-260" type="line"/>
      <point x="454" y="-222"/>
      <point x="1055" y="-86"/>
      <point x="1055" y="350" type="curve" smooth="yes"/>
      <point x="1055" y="641"/>
      <point x="838" y="715"/>
      <point x="640" y="730" type="curve"/>
      <point x="485" y="605" type="line"/>
      <point x="723" y="605"/>
      <point x="860" y="508"/>
      <point x="860" y="370" type="curve" smooth="yes"/>
      <point x="860" y="26"/>
      <point x="440" y="-54"/>
      <point x="120" y="-100" type="curve"/>
    </contour>
    <contour>
      <point x="175" y="1205" type="line"/>
      <point x="312" y="1300"/>
      <point x="413" y="1315"/>
      <point x="540" y="1315" type="curve" smooth="yes"/>
      <point x="696" y="1315"/>
      <point x="780" y="1210"/>
      <point x="780" y="1065" type="curve" smooth="yes"/>
      <point x="780" y="866"/>
      <point x="593" y="750"/>
      <point x="276" y="665" type="curve"/>
      <point x="320" y="510" type="line"/>
      <point x="655" y="615"/>
      <point x="970" y="718"/>
      <point x="970" y="1090" type="curve" smooth="yes"/>
      <point x="970" y="1334"/>
      <point x="784" y="1485"/>
      <point x="530" y="1485" type="curve" smooth="yes"/>
      <point x="396" y="1485"/>
      <point x="293" y="1471"/>
      <point x="140" y="1375" type="curve"/>
    </contour>
  </outline>
</glyph>
<glyph name="LtnSmYogh" format="2">
  <advance width="930"/>
  <unicode hex="021D"/>
  <anchor x="420" y="-500" name="L"/>
  <anchor x="400" y="1100" name="U"/>
  <outline>
    <contour>
      <point x="100" y="775" type="line"/>
      <point x="223" y="858"/>
      <point x="295" y="880"/>
      <point x="395" y="880" type="curve" smooth="yes"/>
      <point x="542" y="880"/>
      <point x="615" y="807"/>
      <point x="615" y="685" type="curve" smooth="yes"/>
      <point x="615" y="517"/>
      <point x="453" y="426"/>
      <point x="175" y="350" type="curve"/>
      <point x="215" y="200" type="line"/>
      <point x="306" y="227"/>
      <point x="398" y="254"/>
      <point x="480" y="290" type="curve"/>
      <point x="604" y="269"/>
      <point x="685" y="191"/>
      <point x="685" y="100" type="curve" smooth="yes"/>
      <point x="685" y="-170"/>
      <point x="331" y="-270"/>
      <point x="50" y="-315" type="curve"/>
      <point x="90" y="-470" type="line"/>
      <point x="343" y="-438"/>
      <point x="870" y="-288"/>
      <point x="870" y="80" type="curve" smooth="yes"/>
      <point x="870" y="259"/>
      <point x="768" y="348"/>
      <point x="645" y="388" type="curve"/>
      <point x="739" y="462"/>
      <point x="800" y="561"/>
      <point x="800" y="705" type="curve" smooth="yes"/>
      <point x="800" y="911"/>
      <point x="632" y="1040"/>
      <point x="410" y="1040" type="curve" smooth="yes"/>
      <point x="289" y="1040"/>
      <point x="179" y="1007"/>
      <point x="65" y="935" type="curve"/>
    </contour>
  </outline>
</glyph>
<glyph name="LtnSmLCurl" format="2">
  <advance width="785"/>
  <unicode hex="0234"/>
  <anchor x="495" y="-100" name="L"/>
  <anchor x="305" y="1635" name="U"/>
  <outline>
    <contour>
      <point x="395" y="1600" type="line"/>
      <point x="190" y="1600" type="line"/>
      <point x="203" y="1485"/>
      <point x="210" y="1324"/>
      <point x="210" y="1130" type="curve" smooth="yes"/>
      <point x="210" y="380" type="line"/>
      <point x="78" y="281"/>
      <point x="-20" y="104"/>
      <point x="-20" y="-170" type="curve"/>
      <point x="90" y="-190" type="line"/>
      <point x="90" y="27"/>
      <point x="142" y="163"/>
      <point x="214" y="245" type="curve"/>
      <point x="236" y="68"/>
      <point x="337" y="-40"/>
      <point x="515" y="-40" type="curve" smooth="yes"/>
      <point x="694" y="-40"/>
      <point x="795" y="85"/>
      <point x="795" y="225" type="curve" smooth="yes"/>
      <point x="795" y="377"/>
      <point x="699" y="480"/>
      <point x="510" y="480" type="curve" smooth="yes"/>
      <point x="472" y="480"/>
      <point x="433" y="475"/>
      <point x="395" y="466" type="curve"/>
    </contour>
    <contour>
      <point x="396" y="354" type="curve"/>
      <point x="427" y="362"/>
      <point x="457" y="365"/>
      <point x="485" y="365" type="curve" smooth="yes"/>
      <point x="612" y="365"/>
      <point x="665" y="291"/>
      <point x="665" y="220" type="curve" smooth="yes"/>
      <point x="665" y="150"/>
      <point x="616" y="100"/>
      <point x="540" y="100" type="curve" smooth="yes"/>
      <point x="466" y="100"/>
      <point x="404" y="160"/>
    </contour>
  </outline>
</glyph>
<glyph name="LtnCapAStrk" format="2">
  <advance width="1395"/>
  <unicode hex="023A"/>
  <anchor x="687" y="0" name="H"/>
  <anchor x="687" y="-100" name="L"/>
  <anchor x="1450" y="0" name="O"/>
  <anchor x="687" y="1530" name="U"/>
  <outline>
    <contour>
      <point x="379" y="385" type="line"/>
      <point x="994" y="385" type="line"/>
      <point x="1130" y="0" type="line"/>
      <point x="1335" y="0" type="line"/>
      <point x="1300" y="80"/>
      <point x="1262" y="169"/>
      <point x="1195" y="355" type="curve" smooth="yes"/>
      <point x="795" y="1460" type="line"/>
      <point x="580" y="1460" type="line"/>
      <point x="180" y="355" type="line" smooth="yes"/>
      <point x="112" y="168"/>
      <point x="76" y="81"/>
      <point x="40" y="0" type="curve"/>
      <point x="245" y="0" type="line"/>
    </contour>
    <contour>
      <point x="940" y="540" type="line"/>
      <point x="433" y="540" type="line"/>
      <point x="685" y="1265" type="line"/>
    </contour>
    <contour>
      <point x="1070" y="1600" type="line"/>
      <point x="270" y="-115" type="line"/>
      <point x="415" y="-115" type="line"/>
      <point x="1215" y="1600" type="line"/>
    </contour>
  </outline>
</glyph>
<glyph name="LtnSmCStrk" format="2">
  <advance width="1020"/>
  <unicode hex="023C"/>
  <outline>
    <component base="LtnSmC"/>
    <contour>
      <point x="760" y="1130" type="line"/>
      <point x="180" y="-115" type="line"/>
      <point x="325" y="-115" type="line"/>
      <point x="905" y="1130" type="line"/>
    </contour>
  </outline>
</glyph>
<glyph name="LtnSmZSwashTail" format="2">
  <advance width="990"/>
  <unicode hex="0240"/>
  <anchor x="475" y="-500" name="L"/>
  <anchor x="525" y="1100" name="U"/>
  <outline>
    <contour>
      <point x="1000" y="-275" type="line"/>
      <point x="977" y="-296"/>
      <point x="938" y="-310"/>
      <point x="900" y="-310" type="curve" smooth="yes"/>
      <point x="803" y="-310"/>
      <point x="695" y="-215"/>
      <point x="606" y="-99" type="curve" smooth="yes"/>
      <point x="495" y="46"/>
      <point x="407" y="112"/>
      <point x="330" y="140" type="curve"/>
      <point x="930" y="925" type="line"/>
      <point x="930" y="1020" type="line"/>
      <point x="135" y="1020" type="line"/>
      <point x="135" y="855" type="line"/>
      <point x="172" y="870"/>
      <point x="231" y="870"/>
      <point x="290" y="870" type="curve" smooth="yes"/>
      <point x="680" y="870" type="line"/>
      <point x="105" y="110" type="line"/>
      <point x="105" y="0" type="line"/>
      <point x="235" y="0"/>
      <point x="344" y="-33"/>
      <point x="484" y="-218" type="curve" smooth="yes"/>
      <point x="595" y="-365"/>
      <point x="750" y="-470"/>
      <point x="875" y="-470" type="curve" smooth="yes"/>
      <point x="938" y="-470"/>
      <point x="1000" y="-457"/>
      <point x="1040" y="-430" type="curve"/>
    </contour>
  </outline>
</glyph>
<glyph name="LtnCapGlottalStop" format="2">
  <advance width="1215"/>
  <unicode hex="0241"/>
  <anchor x="572" y="-100" name="L"/>
  <anchor x="572" y="1530" name="U"/>
  <outline>
    <contour>
      <point x="185" y="1155" type="line"/>
      <point x="292" y="1260"/>
      <point x="413" y="1310"/>
      <point x="587" y="1310" type="curve" smooth="yes"/>
      <point x="789" y="1310"/>
      <point x="900" y="1236"/>
      <point x="900" y="1126" type="curve" smooth="yes"/>
      <point x="900" y="1034"/>
      <point x="810" y="956"/>
      <point x="724" y="882" type="curve" smooth="yes"/>
      <point x="612" y="786"/>
      <point x="477" y="626"/>
      <point x="477" y="365" type="curve" smooth="yes"/>
      <point x="477" y="168"/>
      <point x="477" y="80"/>
      <point x="462" y="0" type="curve"/>
      <point x="682" y="0" type="line"/>
      <point x="667" y="80"/>
      <point x="667" y="168"/>
      <point x="667" y="385" type="curve" smooth="yes"/>
      <point x="667" y="590"/>
      <point x="773" y="710"/>
      <point x="875" y="786" type="curve" smooth="yes"/>
      <point x="981" y="865"/>
      <point x="1095" y="964"/>
      <point x="1095" y="1135" type="curve" smooth="yes"/>
      <point x="1095" y="1342"/>
      <point x="904" y="1485"/>
      <point x="612" y="1485" type="curve" smooth="yes"/>
      <point x="387" y="1485"/>
      <point x="265" y="1437"/>
      <point x="140" y="1340" type="curve"/>
    </contour>
  </outline>
</glyph>
<glyph name="LtnSmGlottalStop" format="2">
  <advance width="795"/>
  <unicode hex="0242"/>
  <anchor x="370" y="-100" name="L"/>
  <anchor x="390" y="1100" name="U"/>
  <outline>
    <contour>
      <point x="130" y="790" type="line"/>
      <point x="191" y="853"/>
      <point x="286" y="880"/>
      <point x="350" y="880" type="curve" smooth="yes"/>
      <point x="439" y="880"/>
      <point x="510" y="835"/>
      <point x="510" y="775" type="curve" smooth="yes"/>
      <point x="510" y="720"/>
      <point x="475" y="685"/>
      <point x="433" y="643" type="curve" smooth="yes"/>
      <point x="366" y="576"/>
      <point x="280" y="488"/>
      <point x="280" y="265" type="curve" smooth="yes"/>
      <point x="280" y="97"/>
      <point x="277" y="64"/>
      <point x="265" y="0" type="curve"/>
      <point x="475" y="0" type="line"/>
      <point x="463" y="64"/>
      <point x="460" y="97"/>
      <point x="460" y="265" type="curve" smooth="yes"/>
      <point x="460" y="451"/>
      <point x="530" y="516"/>
      <point x="594" y="575" type="curve" smooth="yes"/>
      <point x="649" y="626"/>
      <point x="700" y="674"/>
      <point x="700" y="790" type="curve" smooth="yes"/>
      <point x="700" y="910"/>
      <point x="562" y="1040"/>
      <point x="370" y="1040" type="curve" smooth="yes"/>
      <point x="270" y="1040"/>
      <point x="148" y="1000"/>
      <point x="95" y="950" type="curve"/>
    </contour>
  </outline>
</glyph>
<glyph name="LtnCapRBarredStem" format="2">
  <advance width="1395"/>
  <unicode hex="024C"/>
  <anchor x="667" y="-100" name="L"/>
  <anchor x="667" y="1530" name="U"/>
  <outline>
    <contour>
      <point x="455" y="625" type="line"/>
      <point x="710" y="625" type="line" smooth="yes"/>
      <point x="895" y="625"/>
      <point x="1180" y="743"/>
      <point x="1180" y="1060" type="curve" smooth="yes"/>
      <point x="1180" y="1349"/>
      <point x="966" y="1470"/>
      <point x="655" y="1470" type="curve" smooth="yes"/>
      <point x="421" y="1470"/>
      <point x="250" y="1460"/>
      <point x="250" y="1460" type="curve"/>
      <point x="265" y="1380"/>
      <point x="265" y="1196"/>
      <point x="265" y="1000" type="curve" smooth="yes"/>
      <point x="265" y="435" type="line" smooth="yes"/>
      <point x="265" y="238"/>
      <point x="265" y="80"/>
      <point x="250" y="0" type="curve"/>
      <point x="470" y="0" type="line"/>
      <point x="456" y="78"/>
      <point x="455" y="238"/>
      <point x="455" y="435" type="curve" smooth="yes"/>
    </contour>
    <contour>
      <point x="455" y="1305" type="line"/>
      <point x="508" y="1307"/>
      <point x="575" y="1310"/>
      <point x="645" y="1310" type="curve" smooth="yes"/>
      <point x="890" y="1310"/>
      <point x="990" y="1216"/>
      <point x="990" y="1045" type="curve" smooth="yes"/>
      <point x="990" y="879"/>
      <point x="870" y="780"/>
      <point x="645" y="780" type="curve" smooth="yes"/>
      <point x="455" y="780" type="line"/>
    </contour>
    <contour>
      <point x="651" y="635" type="line"/>
      <point x="1080" y="0" type="line"/>
      <point x="1335" y="0" type="line"/>
      <point x="1268" y="73"/>
      <point x="805" y="710"/>
      <point x="805" y="710" type="curve"/>
    </contour>
    <contour>
      <point x="0" y="625" type="line"/>
      <point x="515" y="625" type="line"/>
      <point x="515" y="780" type="line"/>
      <point x="0" y="780" type="line"/>
    </contour>
  </outline>
</glyph>
<glyph name="LtnSmTurnedAlpha" format="2">
  <advance width="1170"/>
  <unicode hex="0252"/>
  <anchor x="540" y="0" name="H"/>
  <anchor x="590" y="-100" name="L"/>
  <anchor x="760" y="0" name="O"/>
  <anchor x="1170" y="1000" name="R"/>
  <anchor x="590" y="1100" name="U"/>
  <outline>
    <contour>
      <point x="105" y="1015" type="line"/>
      <point x="144" y="903"/>
      <point x="170" y="737"/>
      <point x="170" y="485" type="curve" smooth="yes"/>
      <point x="170" y="20" type="line"/>
      <point x="271" y="-6"/>
      <point x="406" y="-25"/>
      <point x="535" y="-25" type="curve" smooth="yes"/>
      <point x="909" y="-25"/>
      <point x="1075" y="287"/>
      <point x="1075" y="605" type="curve" smooth="yes"/>
      <point x="1075" y="888"/>
      <point x="943" y="1040"/>
      <point x="775" y="1040" type="curve" smooth="yes"/>
      <point x="566" y="1040"/>
      <point x="409" y="772"/>
      <point x="325" y="545" type="curve"/>
      <point x="325" y="645" type="line"/>
      <point x="325" y="733"/>
      <point x="309" y="952"/>
      <point x="280" y="1015" type="curve"/>
    </contour>
    <contour>
      <point x="355" y="220" type="line"/>
      <point x="355" y="362"/>
      <point x="569" y="870"/>
      <point x="745" y="870" type="curve" smooth="yes"/>
      <point x="824" y="870"/>
      <point x="890" y="760"/>
      <point x="890" y="605" type="curve" smooth="yes"/>
      <point x="890" y="364"/>
      <point x="811" y="135"/>
      <point x="550" y="135" type="curve" smooth="yes"/>
      <point x="450" y="135"/>
      <point x="388" y="148"/>
      <point x="355" y="155" type="curve"/>
    </contour>
  </outline>
</glyph>
<glyph name="LtnSmDHook" format="2">
  <advance width="1230"/>
  <unicode hex="0257"/>
  <anchor x="605" y="-100" name="L"/>
  <anchor x="605" y="1635" name="U"/>
  <outline>
    <contour>
      <point x="505" y="-25" type="curve" smooth="yes"/>
      <point x="652" y="-25"/>
      <point x="775" y="50"/>
      <point x="870" y="185" type="curve"/>
      <point x="887" y="111"/>
      <point x="910" y="34"/>
      <point x="925" y="0" type="curve"/>
      <point x="1105" y="0" type="line"/>
      <point x="1062" y="112"/>
      <point x="1030" y="278"/>
      <point x="1030" y="530" type="curve" smooth="yes"/>
      <point x="1030" y="653"/>
      <point x="1030" y="982"/>
      <point x="1030" y="1250" type="curve" smooth="yes"/>
      <point x="1030" y="1370"/>
      <point x="1066" y="1440"/>
      <point x="1150" y="1440" type="curve" smooth="yes"/>
      <point x="1208" y="1440"/>
      <point x="1255" y="1417"/>
      <point x="1305" y="1380" type="curve"/>
      <point x="1350" y="1550" type="line"/>
      <point x="1288" y="1594"/>
      <point x="1228" y="1620"/>
      <point x="1150" y="1620" type="curve" smooth="yes"/>
      <point x="964" y="1620"/>
      <point x="845" y="1470"/>
      <point x="845" y="1210" type="curve" smooth="yes"/>
      <point x="845" y="1144"/>
      <point x="845" y="1043"/>
      <point x="845" y="955" type="curve"/>
      <point x="767" y="999"/>
      <point x="665" y="1040"/>
      <point x="580" y="1040" type="curve" smooth="yes"/>
      <point x="312" y="1040"/>
      <point x="105" y="814"/>
      <point x="105" y="460" type="curve" smooth="yes"/>
      <point x="105" y="167"/>
      <point x="261" y="-25"/>
    </contour>
    <contour>
      <point x="540" y="135" type="curve" smooth="yes"/>
      <point x="366" y="135"/>
      <point x="290" y="258"/>
      <point x="290" y="490" type="curve" smooth="yes"/>
      <point x="290" y="727"/>
      <point x="429" y="870"/>
      <point x="580" y="870" type="curve" smooth="yes"/>
      <point x="681" y="870"/>
      <point x="746" y="848"/>
      <point x="845" y="795" type="curve"/>
      <point x="845" y="400" type="line"/>
      <point x="790" y="268"/>
      <point x="662" y="135"/>
    </contour>
  </outline>
</glyph>
<glyph name="LtnSmRevE" format="2">
  <advance width="1095"/>
  <unicode hex="0258"/>
  <anchor x="552" y="-100" name="L"/>
  <anchor x="1095" y="1000" name="R"/>
  <anchor x="552" y="1100" name="U"/>
  <outline>
    <contour>
      <point x="120" y="65" type="line"/>
      <point x="262" y="-8"/>
      <point x="361" y="-25"/>
      <point x="515" y="-25" type="curve" smooth="yes"/>
      <point x="773" y="-25"/>
      <point x="1000" y="175"/>
      <point x="1000" y="495" type="curve" smooth="yes"/>
      <point x="1000" y="836"/>
      <point x="836" y="1040"/>
      <point x="520" y="1040" type="curve" smooth="yes"/>
      <point x="210" y="1040"/>
      <point x="105" y="788"/>
      <point x="105" y="563" type="curve" smooth="yes"/>
      <point x="105" y="545"/>
      <point x="105" y="503"/>
      <point x="106" y="485" type="curve"/>
      <point x="850" y="485" type="line"/>
      <point x="850" y="625" type="line"/>
      <point x="285" y="625" type="line"/>
      <point x="285" y="797"/>
      <point x="375" y="890"/>
      <point x="520" y="890" type="curve" smooth="yes"/>
      <point x="691" y="890"/>
      <point x="815" y="753"/>
      <point x="815" y="515" type="curve" smooth="yes"/>
      <point x="815" y="243"/>
      <point x="689" y="140"/>
      <point x="500" y="140" type="curve" smooth="yes"/>
      <point x="371" y="140"/>
      <point x="262" y="161"/>
      <point x="140" y="235" type="curve"/>
    </contour>
  </outline>
</glyph>
<glyph name="LtnSmSchwa" format="2">
  <advance width="1078"/>
  <unicode hex="0259"/>
  <anchor x="541" y="0" name="H"/>
  <anchor x="540" y="-100" name="L"/>
  <anchor x="598" y="0" name="O"/>
  <anchor x="540" y="1100" name="U"/>
  <outline>
    <contour>
      <point x="130" y="745" type="line"/>
      <point x="240" y="826"/>
      <point x="351" y="875"/>
      <point x="480" y="875" type="curve" smooth="yes"/>
      <point x="666" y="875"/>
      <point x="800" y="741"/>
      <point x="800" y="515" type="curve" smooth="yes"/>
      <point x="800" y="272"/>
      <point x="732" y="120"/>
      <point x="525" y="120" type="curve" smooth="yes"/>
      <point x="368" y="120"/>
      <point x="285" y="216"/>
      <point x="285" y="388" type="curve"/>
      <point x="835" y="388" type="line"/>
      <point x="835" y="525" type="line"/>
      <point x="101" y="525" type="line"/>
      <point x="100" y="506"/>
      <point x="100" y="469"/>
      <point x="100" y="450" type="curve" smooth="yes"/>
      <point x="100" y="213"/>
      <point x="180" y="-25"/>
      <point x="510" y="-25" type="curve" smooth="yes"/>
      <point x="827" y="-25"/>
      <point x="983" y="198"/>
      <point x="983" y="529" type="curve" smooth="yes"/>
      <point x="983" y="859"/>
      <point x="760" y="1040"/>
      <point x="505" y="1040" type="curve" smooth="yes"/>
      <point x="352" y="1040"/>
      <point x="246" y="992"/>
      <point x="110" y="910" type="curve"/>
    </contour>
  </outline>
</glyph>
<glyph name="LtnSmOpnE" format="2">
  <advance width="970"/>
  <unicode hex="025B"/>
  <anchor x="525" y="0" name="H"/>
  <anchor x="525" y="-100" name="L"/>
  <anchor x="835" y="0" name="O"/>
  <anchor x="995" y="1000" name="R"/>
  <anchor x="525" y="1100" name="U"/>
  <outline>
    <contour>
      <point x="850" y="960" type="line"/>
      <point x="775" y="1011"/>
      <point x="672" y="1040"/>
      <point x="530" y="1040" type="curve" smooth="yes"/>
      <point x="241" y="1040"/>
      <point x="150" y="885"/>
      <point x="150" y="755" type="curve" smooth="yes"/>
      <point x="150" y="663"/>
      <point x="225" y="570"/>
      <point x="340" y="535" type="curve"/>
      <point x="202" y="508"/>
      <point x="90" y="412"/>
      <point x="90" y="275" type="curve" smooth="yes"/>
      <point x="90" y="136"/>
      <point x="210" y="-25"/>
      <point x="500" y="-25" type="curve" smooth="yes"/>
      <point x="630" y="-25"/>
      <point x="738" y="2"/>
      <point x="880" y="75" type="curve"/>
      <point x="860" y="240" type="line"/>
      <point x="738" y="166"/>
      <point x="644" y="130"/>
      <point x="535" y="130" type="curve" smooth="yes"/>
      <point x="400" y="130"/>
      <point x="275" y="173"/>
      <point x="275" y="290" type="curve" smooth="yes"/>
      <point x="275" y="447"/>
      <point x="500" y="465"/>
      <point x="660" y="465" type="curve"/>
      <point x="660" y="605" type="line"/>
      <point x="483" y="605"/>
      <point x="335" y="641"/>
      <point x="335" y="750" type="curve" smooth="yes"/>
      <point x="335" y="820"/>
      <point x="385" y="890"/>
      <point x="525" y="890" type="curve" smooth="yes"/>
      <point x="621" y="890"/>
      <point x="719" y="857"/>
      <point x="815" y="790" type="curve"/>
    </contour>
  </outline>
</glyph>
<glyph name="LtnSmRevOpnE" format="2">
  <advance width="940"/>
  <unicode hex="025C"/>
  <anchor x="425" y="-100" name="L"/>
  <anchor x="465" y="1100" name="U"/>
  <outline>
    <contour>
      <point x="90" y="55" type="line"/>
      <point x="165" y="6"/>
      <point x="288" y="-25"/>
      <point x="430" y="-25" type="curve" smooth="yes"/>
      <point x="719" y="-25"/>
      <point x="850" y="140"/>
      <point x="850" y="290" type="curve" smooth="yes"/>
      <point x="850" y="412"/>
      <point x="750" y="500"/>
      <point x="625" y="525" type="curve"/>
      <point x="736" y="551"/>
      <point x="820" y="669"/>
      <point x="820" y="775" type="curve" smooth="yes"/>
      <point x="820" y="943"/>
      <point x="655" y="1040"/>
      <point x="460" y="1040" type="curve" smooth="yes"/>
      <point x="330" y="1040"/>
      <point x="228" y="1014"/>
      <point x="120" y="950" type="curve"/>
      <point x="150" y="785" type="line"/>
      <point x="240" y="852"/>
      <point x="336" y="890"/>
      <point x="445" y="890" type="curve" smooth="yes"/>
      <point x="566" y="890"/>
      <point x="635" y="850"/>
      <point x="635" y="765" type="curve" smooth="yes"/>
      <point x="635" y="652"/>
      <point x="510" y="600"/>
      <point x="320" y="600" type="curve"/>
      <point x="320" y="460" type="line"/>
      <point x="497" y="460"/>
      <point x="665" y="404"/>
      <point x="665" y="285" type="curve" smooth="yes"/>
      <point x="665" y="185"/>
      <point x="565" y="130"/>
      <point x="445" y="130" type="curve" smooth="yes"/>
      <point x="349" y="130"/>
      <point x="221" y="158"/>
      <point x="125" y="225" type="curve"/>
    </contour>
  </outline>
</glyph>
<glyph name="LtnSmGHook" format="2">
  <advance width="1210"/>
  <unicode hex="0260"/>
  <anchor x="607" y="-500" name="L"/>
  <anchor x="607" y="1635" name="U"/>
  <outline>
    <contour>
      <point x="545" y="-470" type="curve" smooth="yes"/>
      <point x="767" y="-470"/>
      <point x="990" y="-327"/>
      <point x="990" y="25" type="curve" smooth="yes"/>
      <point x="990" y="1080" type="line" smooth="yes"/>
      <point x="990" y="1190"/>
      <point x="1026" y="1250"/>
      <point x="1110" y="1250" type="curve" smooth="yes"/>
      <point x="1168" y="1250"/>
      <point x="1215" y="1227"/>
      <point x="1265" y="1190" type="curve"/>
      <point x="1310" y="1350" type="line"/>
      <point x="1248" y="1394"/>
      <point x="1188" y="1420"/>
      <point x="1110" y="1420" type="curve" smooth="yes"/>
      <point x="929" y="1420"/>
      <point x="805" y="1307"/>
      <point x="805" y="1060" type="curve" smooth="yes"/>
      <point x="805" y="1018" type="line"/>
      <point x="745" y="1031"/>
      <point x="683" y="1040"/>
      <point x="625" y="1040" type="curve" smooth="yes"/>
      <point x="260" y="1040"/>
      <point x="105" y="742"/>
      <point x="105" y="435" type="curve" smooth="yes"/>
      <point x="105" y="117"/>
      <point x="276" y="-5"/>
      <point x="460" y="-5" type="curve" smooth="yes"/>
      <point x="570" y="-5"/>
      <point x="701" y="64"/>
      <point x="805" y="195" type="curve"/>
      <point x="805" y="-10" type="line" smooth="yes"/>
      <point x="805" y="-242"/>
      <point x="639" y="-310"/>
      <point x="535" y="-310" type="curve" smooth="yes"/>
      <point x="436" y="-310"/>
      <point x="339" y="-263"/>
      <point x="245" y="-195" type="curve"/>
      <point x="180" y="-350" type="line"/>
      <point x="286" y="-422"/>
      <point x="418" y="-470"/>
    </contour>
    <contour>
      <point x="480" y="165" type="curve" smooth="yes"/>
      <point x="372" y="165"/>
      <point x="290" y="238"/>
      <point x="290" y="485" type="curve" smooth="yes"/>
      <point x="290" y="674"/>
      <point x="376" y="870"/>
      <point x="595" y="870" type="curve" smooth="yes"/>
      <point x="656" y="870"/>
      <point x="742" y="854"/>
      <point x="805" y="830" type="curve"/>
      <point x="805" y="395" type="line"/>
      <point x="718" y="248"/>
      <point x="581" y="165"/>
    </contour>
  </outline>
</glyph>
<glyph name="LtnSmRamsHorn" format="2">
  <advance width="1280"/>
  <unicode hex="0264"/>
  <anchor x="640" y="-100" name="L"/>
  <anchor x="1280" y="1000" name="R"/>
  <anchor x="640" y="1100" name="U"/>
  <outline>
    <contour>
      <point x="1240" y="950" type="line"/>
      <point x="1210" y="1015"/>
      <point x="1142" y="1040"/>
      <point x="1070" y="1040" type="curve" smooth="yes"/>
      <point x="905" y="1040"/>
      <point x="704" y="803"/>
      <point x="570" y="620" type="curve" smooth="yes"/>
      <point x="457" y="466"/>
      <point x="370" y="347"/>
      <point x="370" y="230" type="curve" smooth="yes"/>
      <point x="370" y="86"/>
      <point x="475" y="-25"/>
      <point x="640" y="-25" type="curve" smooth="yes"/>
      <point x="802" y="-25"/>
      <point x="910" y="92"/>
      <point x="910" y="230" type="curve" smooth="yes"/>
      <point x="910" y="350"/>
      <point x="830" y="465"/>
      <point x="720" y="620" type="curve" smooth="yes"/>
      <point x="585" y="810"/>
      <point x="380" y="1040"/>
      <point x="210" y="1040" type="curve" smooth="yes"/>
      <point x="145" y="1040"/>
      <point x="70" y="1015"/>
      <point x="40" y="950" type="curve"/>
      <point x="90" y="780" type="line"/>
      <point x="108" y="827"/>
      <point x="152" y="870"/>
      <point x="190" y="870" type="curve" smooth="yes"/>
      <point x="285" y="870"/>
      <point x="460" y="700"/>
      <point x="580" y="520" type="curve" smooth="yes"/>
      <point x="679" y="372"/>
      <point x="740" y="303"/>
      <point x="740" y="230" type="curve" smooth="yes"/>
      <point x="740" y="175"/>
      <point x="700" y="135"/>
      <point x="640" y="135" type="curve" smooth="yes"/>
      <point x="580" y="135"/>
      <point x="540" y="175"/>
      <point x="540" y="230" type="curve" smooth="yes"/>
      <point x="540" y="303"/>
      <point x="603" y="367"/>
      <point x="708" y="520" type="curve" smooth="yes"/>
      <point x="832" y="700"/>
      <point x="1005" y="870"/>
      <point x="1095" y="870" type="curve" smooth="yes"/>
      <point x="1138" y="870"/>
      <point x="1176" y="827"/>
      <point x="1190" y="780" type="curve"/>
    </contour>
  </outline>
</glyph>
<glyph name="LtnSmTurnedH" format="2">
  <advance width="1170"/>
  <unicode hex="0265"/>
  <anchor x="465" y="-100" name="L"/>
  <anchor x="590" y="1100" name="U"/>
  <outline>
    <contour>
      <point x="135" y="1020" type="line"/>
      <point x="135" y="390" type="line" smooth="yes"/>
      <point x="135" y="115"/>
      <point x="252" y="-25"/>
      <point x="465" y="-25" type="curve" smooth="yes"/>
      <point x="605" y="-25"/>
      <point x="747" y="46"/>
      <point x="845" y="185" type="curve"/>
      <point x="845" y="-490" type="line"/>
      <point x="1045" y="-490" type="line"/>
      <point x="1030" y="-404"/>
      <point x="1030" y="-235"/>
      <point x="1030" y="-20" type="curve" smooth="yes"/>
      <point x="1030" y="1020" type="line"/>
      <point x="845" y="1020" type="line"/>
      <point x="845" y="435" type="line"/>
      <point x="801" y="299"/>
      <point x="664" y="150"/>
      <point x="520" y="150" type="curve" smooth="yes"/>
      <point x="386" y="150"/>
      <point x="320" y="215"/>
      <point x="320" y="465" type="curve" smooth="yes"/>
      <point x="320" y="1020" type="line"/>
    </contour>
  </outline>
</glyph>
<glyph name="LtnSmLMiddleTilde" format="2">
  <advance width="985"/>
  <unicode hex="026B"/>
  <anchor x="483" y="-100" name="L"/>
  <anchor x="483" y="1635" name="U"/>
  <outline>
    <contour>
      <point x="585" y="1600" type="line"/>
      <point x="380" y="1600" type="line"/>
      <point x="393" y="1485"/>
      <point x="400" y="1324"/>
      <point x="400" y="1130" type="curve" smooth="yes"/>
      <point x="400" y="0" type="line"/>
      <point x="605" y="0" type="line"/>
      <point x="592" y="109"/>
      <point x="585" y="336"/>
      <point x="585" y="465" type="curve" smooth="yes"/>
    </contour>
    <contour>
      <point x="780" y="890" type="line"/>
      <point x="773" y="844"/>
      <point x="752" y="805"/>
      <point x="705" y="805" type="curve" smooth="yes"/>
      <point x="663" y="805"/>
      <point x="598" y="825"/>
      <point x="507" y="853" type="curve" smooth="yes"/>
      <point x="396" y="887"/>
      <point x="337" y="905"/>
      <point x="292" y="905" type="curve" smooth="yes"/>
      <point x="173" y="905"/>
      <point x="100" y="777"/>
      <point x="100" y="655" type="curve"/>
      <point x="205" y="655" type="line"/>
      <point x="210" y="704"/>
      <point x="231" y="740"/>
      <point x="280" y="740" type="curve" smooth="yes"/>
      <point x="317" y="740"/>
      <point x="380" y="723"/>
      <point x="486" y="688" type="curve" smooth="yes"/>
      <point x="568" y="661"/>
      <point x="634" y="640"/>
      <point x="687" y="640" type="curve" smooth="yes"/>
      <point x="810" y="640"/>
      <point x="885" y="762"/>
      <point x="885" y="890" type="curve"/>
    </contour>
  </outline>
</glyph>
<glyph name="LtnSmLBelt" format="2">
  <advance width="830"/>
  <unicode hex="026C"/>
  <anchor x="439" y="-100" name="L"/>
  <anchor x="439" y="1635" name="U"/>
  <outline>
    <contour>
      <point x="342" y="0" type="line"/>
      <point x="547" y="0" type="line"/>
      <point x="534" y="109"/>
      <point x="527" y="346"/>
      <point x="527" y="475" type="curve" smooth="yes"/>
      <point x="527" y="1600" type="line"/>
      <point x="322" y="1600" type="line"/>
      <point x="335" y="1485"/>
      <point x="342" y="1324"/>
      <point x="342" y="1130" type="curve" smooth="yes"/>
      <point x="342" y="1092" type="line"/>
      <point x="314" y="1101"/>
      <point x="286" y="1106"/>
      <point x="259" y="1106" type="curve" smooth="yes"/>
      <point x="124" y="1106"/>
      <point x="5" y="1002"/>
      <point x="5" y="855" type="curve" smooth="yes"/>
      <point x="5" y="648"/>
      <point x="213" y="564"/>
      <point x="367" y="564" type="curve" smooth="yes"/>
      <point x="559" y="564"/>
      <point x="727" y="663"/>
      <point x="800" y="750" type="curve"/>
      <point x="765" y="860" type="line"/>
      <point x="691" y="776"/>
      <point x="535" y="669"/>
      <point x="381" y="669" type="curve" smooth="yes"/>
      <point x="267" y="669"/>
      <point x="115" y="719"/>
      <point x="115" y="855" type="curve" smooth="yes"/>
      <point x="115" y="938"/>
      <point x="179" y="996"/>
      <point x="253" y="996" type="curve" smooth="yes"/>
      <point x="282" y="996"/>
      <point x="313" y="986"/>
      <point x="342" y="967" type="curve"/>
    </contour>
  </outline>
</glyph>
<glyph name="LtnSmLRetrHook" format="2">
  <advance width="565"/>
  <unicode hex="026D"/>
  <anchor x="395" y="-500" name="L"/>
  <anchor x="285" y="1635" name="U"/>
  <outline>
    <contour>
      <point x="375" y="1600" type="line"/>
      <point x="170" y="1600" type="line"/>
      <point x="183" y="1485"/>
      <point x="190" y="1324"/>
      <point x="190" y="1130" type="curve" smooth="yes"/>
      <point x="190" y="-200" type="line" smooth="yes"/>
      <point x="190" y="-365"/>
      <point x="305" y="-470"/>
      <point x="435" y="-470" type="curve" smooth="yes"/>
      <point x="495" y="-470"/>
      <point x="560" y="-445"/>
      <point x="605" y="-415" type="curve"/>
      <point x="580" y="-280" type="line"/>
      <point x="546" y="-304"/>
      <point x="513" y="-315"/>
      <point x="470" y="-315" type="curve" smooth="yes"/>
      <point x="409" y="-315"/>
      <point x="375" y="-248"/>
      <point x="375" y="-165" type="curve" smooth="yes"/>
    </contour>
  </outline>
</glyph>
<glyph name="LtnSmLezh" format="2">
  <advance width="1285"/>
  <unicode hex="026E"/>
  <anchor x="692" y="-500" name="L"/>
  <anchor x="750" y="1635" name="U"/>
  <outline>
    <contour>
      <point x="375" y="1600" type="line"/>
      <point x="170" y="1600" type="line"/>
      <point x="183" y="1485"/>
      <point x="190" y="1324"/>
      <point x="190" y="1130" type="curve" smooth="yes"/>
      <point x="190" y="0" type="line"/>
      <point x="395" y="0" type="line"/>
      <point x="382" y="109"/>
      <point x="375" y="346"/>
      <point x="375" y="475" type="curve" smooth="yes"/>
    </contour>
    <contour>
      <point x="1155" y="1020" type="line"/>
      <point x="370" y="1020" type="line"/>
      <point x="370" y="855" type="line"/>
      <point x="407" y="870"/>
      <point x="471" y="870"/>
      <point x="530" y="870" type="curve" smooth="yes"/>
      <point x="935" y="870" type="line"/>
      <point x="530" y="375" type="line"/>
      <point x="530" y="255" type="line"/>
      <point x="585" y="263"/>
      <point x="634" y="265"/>
      <point x="679" y="265" type="curve" smooth="yes"/>
      <point x="977" y="265"/>
      <point x="1035" y="108"/>
      <point x="1035" y="-30" type="curve" smooth="yes"/>
      <point x="1035" y="-206"/>
      <point x="883" y="-305"/>
      <point x="730" y="-305" type="curve" smooth="yes"/>
      <point x="570" y="-305"/>
      <point x="435" y="-262"/>
      <point x="320" y="-185" type="curve"/>
      <point x="320" y="-380" type="line"/>
      <point x="431" y="-439"/>
      <point x="580" y="-470"/>
      <point x="720" y="-470" type="curve" smooth="yes"/>
      <point x="980" y="-470"/>
      <point x="1215" y="-287"/>
      <point x="1215" y="-10" type="curve" smooth="yes"/>
      <point x="1215" y="175"/>
      <point x="1138" y="276"/>
      <point x="1055" y="330" type="curve" smooth="yes"/>
      <point x="971" y="385"/>
      <point x="863" y="415"/>
      <point x="735" y="415" type="curve"/>
      <point x="1155" y="905" type="line"/>
    </contour>
  </outline>
</glyph>
<glyph name="LtnSmNLftHook" format="2">
  <advance width="1250"/>
  <unicode hex="0272"/>
  <anchor x="665" y="-100" name="L"/>
  <anchor x="665" y="1100" name="U"/>
  <outline>
    <contour>
      <point x="170" y="1020" type="line"/>
      <point x="192" y="951"/>
      <point x="220" y="811"/>
      <point x="220" y="615" type="curve" smooth="yes"/>
      <point x="220" y="-25" type="line" smooth="yes"/>
      <point x="220" y="-217"/>
      <point x="149" y="-305"/>
      <point x="27" y="-305" type="curve" smooth="yes"/>
      <point x="-26" y="-305"/>
      <point x="-84" y="-285"/>
      <point x="-120" y="-259" type="curve"/>
      <point x="-185" y="-410" type="line"/>
      <point x="-126" y="-446"/>
      <point x="-27" y="-470"/>
      <point x="29" y="-470" type="curve" smooth="yes"/>
      <point x="257" y="-470"/>
      <point x="405" y="-348"/>
      <point x="405" y="25" type="curve" smooth="yes"/>
      <point x="405" y="580" type="line"/>
      <point x="449" y="716"/>
      <point x="586" y="865"/>
      <point x="730" y="865" type="curve" smooth="yes"/>
      <point x="865" y="865"/>
      <point x="930" y="800"/>
      <point x="930" y="550" type="curve" smooth="yes"/>
      <point x="930" y="0" type="line"/>
      <point x="1115" y="0" type="line"/>
      <point x="1115" y="625" type="line" smooth="yes"/>
      <point x="1115" y="900"/>
      <point x="998" y="1040"/>
      <point x="785" y="1040" type="curve" smooth="yes"/>
      <point x="644" y="1040"/>
      <point x="517" y="977"/>
      <point x="390" y="825" type="curve"/>
      <point x="383" y="873"/>
      <point x="365" y="978"/>
      <point x="350" y="1020" type="curve"/>
    </contour>
  </outline>
</glyph>
<glyph name="LtnSmCapOe" format="2">
  <advance width="1670"/>
  <unicode hex="0276"/>
  <anchor x="846" y="-100" name="L"/>
  <anchor x="1605" y="1000" name="R"/>
  <anchor x="846" y="1100" name="U"/>
  <outline>
    <contour>
      <point x="1535" y="0" type="line"/>
      <point x="1535" y="156" type="line"/>
      <point x="1468" y="146"/>
      <point x="1357" y="145"/>
      <point x="1193" y="145" type="curve" smooth="yes"/>
      <point x="1057" y="145" type="line"/>
      <point x="1057" y="464" type="line"/>
      <point x="1447" y="464" type="line"/>
      <point x="1447" y="605" type="line"/>
      <point x="1057" y="605" type="line"/>
      <point x="1057" y="875" type="line"/>
      <point x="1510" y="875" type="line"/>
      <point x="1510" y="1020" type="line"/>
      <point x="896" y="1020" type="line"/>
      <point x="896" y="875" type="line"/>
      <point x="836" y="992"/>
      <point x="714" y="1040"/>
      <point x="589" y="1040" type="curve" smooth="yes"/>
      <point x="329" y="1040"/>
      <point x="95" y="838"/>
      <point x="95" y="503" type="curve" smooth="yes"/>
      <point x="95" y="168"/>
      <point x="313" y="-20"/>
      <point x="572" y="-20" type="curve" smooth="yes"/>
      <point x="671" y="-20"/>
      <point x="850" y="36"/>
      <point x="896" y="144" type="curve"/>
      <point x="896" y="0" type="line"/>
    </contour>
    <contour>
      <point x="878" y="499" type="curve" smooth="yes"/>
      <point x="878" y="281"/>
      <point x="754" y="135"/>
      <point x="580" y="135" type="curve" smooth="yes"/>
      <point x="411" y="135"/>
      <point x="287" y="295"/>
      <point x="287" y="520" type="curve" smooth="yes"/>
      <point x="287" y="732"/>
      <point x="417" y="885"/>
      <point x="580" y="885" type="curve" smooth="yes"/>
      <point x="761" y="885"/>
      <point x="878" y="727"/>
    </contour>
  </outline>
</glyph>
<glyph name="LtnSmClosedOmega" format="2">
  <advance width="1500"/>
  <unicode hex="0277"/>
  <anchor x="750" y="-100" name="L"/>
  <anchor x="1425" y="1000" name="R"/>
  <anchor x="750" y="1100" name="U"/>
  <outline>
    <contour>
      <point x="660" y="700" type="line"/>
      <point x="660" y="320"/>
      <point x="605" y="135"/>
      <point x="465" y="135" type="curve" smooth="yes"/>
      <point x="365" y="135"/>
      <point x="280" y="220"/>
      <point x="280" y="430" type="curve" smooth="yes"/>
      <point x="280" y="695"/>
      <point x="450" y="880"/>
      <point x="750" y="880" type="curve" smooth="yes"/>
      <point x="1030" y="880"/>
      <point x="1220" y="685"/>
      <point x="1220" y="430" type="curve" smooth="yes"/>
      <point x="1220" y="220"/>
      <point x="1155" y="135"/>
      <point x="1055" y="135" type="curve" smooth="yes"/>
      <point x="915" y="135"/>
      <point x="840" y="320"/>
      <point x="840" y="700" type="curve"/>
    </contour>
    <contour>
      <point x="1405" y="430" type="curve" smooth="yes"/>
      <point x="1405" y="780"/>
      <point x="1130" y="1040"/>
      <point x="750" y="1040" type="curve" smooth="yes"/>
      <point x="380" y="1040"/>
      <point x="95" y="760"/>
      <point x="95" y="430" type="curve" smooth="yes"/>
      <point x="95" y="115"/>
      <point x="247" y="-25"/>
      <point x="435" y="-25" type="curve" smooth="yes"/>
      <point x="585" y="-25"/>
      <point x="690" y="40"/>
      <point x="750" y="245" type="curve"/>
      <point x="810" y="40"/>
      <point x="915" y="-25"/>
      <point x="1065" y="-25" type="curve" smooth="yes"/>
      <point x="1245" y="-25"/>
      <point x="1405" y="115"/>
    </contour>
  </outline>
</glyph>
<glyph name="LtnSmTurnedR" format="2">
  <advance width="880"/>
  <unicode hex="0279"/>
  <anchor x="425" y="-100" name="L"/>
  <anchor x="425" y="1100" name="U"/>
  <outline>
    <contour>
      <point x="540" y="1020" type="line"/>
      <point x="540" y="440" type="line"/>
      <point x="496" y="304"/>
      <point x="359" y="165"/>
      <point x="275" y="165" type="curve" smooth="yes"/>
      <point x="196" y="165"/>
      <point x="166" y="242"/>
      <point x="160" y="350" type="curve"/>
      <point x="0" y="315" type="line"/>
      <point x="0" y="140"/>
      <point x="63" y="-20"/>
      <point x="230" y="-20" type="curve" smooth="yes"/>
      <point x="321" y="-20"/>
      <point x="458" y="56"/>
      <point x="555" y="195" type="curve"/>
      <point x="562" y="147"/>
      <point x="580" y="42"/>
      <point x="595" y="0" type="curve"/>
      <point x="775" y="0" type="line"/>
      <point x="753" y="69"/>
      <point x="725" y="209"/>
      <point x="725" y="405" type="curve" smooth="yes"/>
      <point x="725" y="1020" type="line"/>
    </contour>
  </outline>
</glyph>
<glyph name="LtnSmRevRFishhook" format="2">
  <advance width="780"/>
  <unicode hex="027F"/>
  <anchor x="540" y="-500" name="L"/>
  <anchor x="340" y="1100" name="U"/>
  <outline>
    <contour>
      <point x="440" y="-470" type="line"/>
      <point x="640" y="-470" type="line"/>
      <point x="627" y="-365"/>
      <point x="625" y="-175"/>
      <point x="625" y="20" type="curve" smooth="yes"/>
      <point x="625" y="665" type="line" smooth="yes"/>
      <point x="625" y="908"/>
      <point x="520" y="1040"/>
      <point x="310" y="1040" type="curve" smooth="yes"/>
      <point x="191" y="1040"/>
      <point x="107" y="1005"/>
      <point x="40" y="950" type="curve"/>
      <point x="85" y="780" type="line"/>
      <point x="131" y="837"/>
      <point x="190" y="870"/>
      <point x="270" y="870" type="curve" smooth="yes"/>
      <point x="392" y="870"/>
      <point x="440" y="799"/>
      <point x="440" y="630" type="curve" smooth="yes"/>
    </contour>
  </outline>
</glyph>
<glyph name="LtnSmEsh" format="2">
  <advance width="725"/>
  <unicode hex="0283"/>
  <anchor x="325" y="-500" name="L"/>
  <anchor x="425" y="1635" name="U"/>
  <outline>
    <contour>
      <point x="725" y="1550" type="line"/>
      <point x="663" y="1594"/>
      <point x="583" y="1620"/>
      <point x="505" y="1620" type="curve" smooth="yes"/>
      <point x="314" y="1620"/>
      <point x="155" y="1467"/>
      <point x="155" y="1225" type="curve" smooth="yes"/>
      <point x="155" y="1019"/>
      <point x="385" y="124"/>
      <point x="385" y="-65" type="curve" smooth="yes"/>
      <point x="385" y="-206"/>
      <point x="307" y="-300"/>
      <point x="200" y="-300" type="curve" smooth="yes"/>
      <point x="148" y="-300"/>
      <point x="89" y="-268"/>
      <point x="45" y="-235" type="curve"/>
      <point x="0" y="-400" type="line"/>
      <point x="62" y="-444"/>
      <point x="142" y="-470"/>
      <point x="220" y="-470" type="curve" smooth="yes"/>
      <point x="411" y="-470"/>
      <point x="570" y="-317"/>
      <point x="570" y="-75" type="curve" smooth="yes"/>
      <point x="570" y="131"/>
      <point x="340" y="1044"/>
      <point x="340" y="1242" type="curve" smooth="yes"/>
      <point x="340" y="1356"/>
      <point x="418" y="1450"/>
      <point x="525" y="1450" type="curve" smooth="yes"/>
      <point x="577" y="1450"/>
      <point x="636" y="1418"/>
      <point x="680" y="1385" type="curve"/>
    </contour>
  </outline>
</glyph>
<glyph name="LtnSmEshCurl" format="2">
  <advance width="845"/>
  <unicode hex="0286"/>
  <anchor x="415" y="-500" name="L"/>
  <anchor x="465" y="1635" name="U"/>
  <outline>
    <contour>
      <point x="765" y="1550" type="line"/>
      <point x="703" y="1594"/>
      <point x="623" y="1620"/>
      <point x="545" y="1620" type="curve" smooth="yes"/>
      <point x="354" y="1620"/>
      <point x="195" y="1467"/>
      <point x="195" y="1225" type="curve" smooth="yes"/>
      <point x="195" y="1019"/>
      <point x="435" y="74"/>
      <point x="435" y="-115" type="curve" smooth="yes"/>
      <point x="435" y="-288"/>
      <point x="359" y="-330"/>
      <point x="280" y="-330" type="curve" smooth="yes"/>
      <point x="202" y="-330"/>
      <point x="155" y="-286"/>
      <point x="155" y="-210" type="curve" smooth="yes"/>
      <point x="155" y="-145"/>
      <point x="225" y="-65"/>
      <point x="335" y="-65" type="curve" smooth="yes"/>
      <point x="491" y="-65"/>
      <point x="713" y="-203"/>
      <point x="730" y="-500" type="curve"/>
      <point x="840" y="-450" type="line"/>
      <point x="789" y="-132"/>
      <point x="570" y="50"/>
      <point x="330" y="50" type="curve" smooth="yes"/>
      <point x="177" y="50"/>
      <point x="25" y="-57"/>
      <point x="25" y="-231" type="curve" smooth="yes"/>
      <point x="25" y="-392"/>
      <point x="133" y="-470"/>
      <point x="295" y="-470" type="curve" smooth="yes"/>
      <point x="496" y="-470"/>
      <point x="610" y="-331"/>
      <point x="610" y="-75" type="curve" smooth="yes"/>
      <point x="610" y="131"/>
      <point x="380" y="1042"/>
      <point x="380" y="1240" type="curve" smooth="yes"/>
      <point x="380" y="1354"/>
      <point x="458" y="1450"/>
      <point x="565" y="1450" type="curve" smooth="yes"/>
      <point x="617" y="1450"/>
      <point x="676" y="1418"/>
      <point x="720" y="1385" type="curve"/>
    </contour>
  </outline>
</glyph>
<glyph name="LtnSmTurnedV" format="2">
  <advance width="1070"/>
  <unicode hex="028C"/>
  <anchor x="945" y="0" name="H"/>
  <anchor x="535" y="-100" name="L"/>
  <anchor x="1125" y="0" name="O"/>
  <anchor x="870" y="1000" name="R"/>
  <anchor x="535" y="1100" name="U"/>
  <outline>
    <contour>
      <point x="1050" y="0" type="line"/>
      <point x="993" y="115"/>
      <point x="928" y="276"/>
      <point x="895" y="355" type="curve" smooth="yes"/>
      <point x="842" y="484"/>
      <point x="630" y="1020"/>
      <point x="630" y="1020" type="curve"/>
      <point x="440" y="1020" type="line"/>
      <point x="440" y="1020"/>
      <point x="237" y="510"/>
      <point x="175" y="355" type="curve" smooth="yes"/>
      <point x="143" y="274"/>
      <point x="75" y="115"/>
      <point x="20" y="0" type="curve"/>
      <point x="230" y="0" type="line"/>
      <point x="535" y="820" type="line"/>
      <point x="840" y="0" type="line"/>
    </contour>
  </outline>
</glyph>
<glyph name="LtnSmZRetrHook" format="2">
  <advance width="1040"/>
  <unicode hex="0290"/>
  <anchor x="455" y="-100" name="L"/>
  <anchor x="525" y="1100" name="U"/>
  <outline>
    <contour>
      <point x="135" y="1020" type="line"/>
      <point x="135" y="855" type="line"/>
      <point x="172" y="870"/>
      <point x="231" y="870"/>
      <point x="290" y="870" type="curve" smooth="yes"/>
      <point x="680" y="870" type="line"/>
      <point x="105" y="110" type="line"/>
      <point x="105" y="0" type="line"/>
      <point x="945" y="0" type="line"/>
      <point x="945" y="165" type="line"/>
      <point x="885" y="150"/>
      <point x="823" y="150"/>
      <point x="765" y="150" type="curve" smooth="yes"/>
      <point x="335" y="150" type="line"/>
      <point x="930" y="925" type="line"/>
      <point x="930" y="1020" type="line"/>
    </contour>
    <contour>
      <point x="1190" y="-290" type="line"/>
      <point x="1147" y="-318"/>
      <point x="1106" y="-335"/>
      <point x="1050" y="-335" type="curve" smooth="yes"/>
      <point x="993" y="-335"/>
      <point x="945" y="-285"/>
      <point x="945" y="-210" type="curve" smooth="yes"/>
      <point x="945" y="165" type="line"/>
      <point x="810" y="30" type="line"/>
      <point x="810" y="-220" type="line" smooth="yes"/>
      <point x="810" y="-373"/>
      <point x="895" y="-470"/>
      <point x="1015" y="-470" type="curve" smooth="yes"/>
      <point x="1084" y="-470"/>
      <point x="1152" y="-453"/>
      <point x="1205" y="-415" type="curve"/>
    </contour>
  </outline>
</glyph>
<glyph name="LtnSmZCurl" format="2">
  <advance width="1090"/>
  <unicode hex="0291"/>
  <anchor x="584" y="-200" name="L"/>
  <anchor x="525" y="1100" name="U"/>
  <outline>
    <contour>
      <point x="135" y="1020" type="line"/>
      <point x="135" y="855" type="line"/>
      <point x="172" y="870"/>
      <point x="231" y="870"/>
      <point x="290" y="870" type="curve" smooth="yes"/>
      <point x="680" y="870" type="line"/>
      <point x="105" y="110" type="line"/>
      <point x="105" y="0" type="line"/>
      <point x="562" y="0" type="line"/>
      <point x="568" y="-55"/>
      <point x="581" y="-111"/>
      <point x="600" y="-170" type="curve"/>
      <point x="715" y="-190" type="line"/>
      <point x="693" y="-123"/>
      <point x="680" y="-59"/>
      <point x="674" y="0" type="curve"/>
      <point x="720" y="0" type="line" smooth="yes"/>
      <point x="898" y="0"/>
      <point x="1090" y="73"/>
      <point x="1090" y="260" type="curve" smooth="yes"/>
      <point x="1090" y="421"/>
      <point x="989" y="495"/>
      <point x="870" y="495" type="curve" smooth="yes"/>
      <point x="699" y="495"/>
      <point x="583" y="352"/>
      <point x="562" y="150" type="curve"/>
      <point x="335" y="150" type="line"/>
      <point x="930" y="925" type="line"/>
      <point x="930" y="1020" type="line"/>
    </contour>
    <contour>
      <point x="675" y="150" type="line"/>
      <point x="695" y="294"/>
      <point x="769" y="385"/>
      <point x="870" y="385" type="curve" smooth="yes"/>
      <point x="930" y="385"/>
      <point x="980" y="358"/>
      <point x="980" y="280" type="curve" smooth="yes"/>
      <point x="980" y="216"/>
      <point x="899" y="150"/>
      <point x="740" y="150" type="curve" smooth="yes"/>
    </contour>
  </outline>
</glyph>
<glyph name="LtnSmEzh" format="2">
  <advance width="1025"/>
  <unicode hex="0292"/>
  <anchor x="527" y="-500" name="L"/>
  <anchor x="520" y="1100" name="U"/>
  <outline>
    <contour>
      <point x="115" y="1020" type="line"/>
      <point x="115" y="855" type="line"/>
      <point x="152" y="870"/>
      <point x="211" y="870"/>
      <point x="270" y="870" type="curve" smooth="yes"/>
      <point x="690" y="870" type="line"/>
      <point x="255" y="375" type="line"/>
      <point x="255" y="255" type="line"/>
      <point x="310" y="263"/>
      <point x="360" y="265"/>
      <point x="405" y="265" type="curve" smooth="yes"/>
      <point x="703" y="265"/>
      <point x="790" y="108"/>
      <point x="790" y="-30" type="curve" smooth="yes"/>
      <point x="790" y="-206"/>
      <point x="638" y="-305"/>
      <point x="485" y="-305" type="curve" smooth="yes"/>
      <point x="345" y="-305"/>
      <point x="200" y="-232"/>
      <point x="85" y="-155" type="curve"/>
      <point x="85" y="-350" type="line"/>
      <point x="176" y="-412"/>
      <point x="365" y="-470"/>
      <point x="475" y="-470" type="curve" smooth="yes"/>
      <point x="735" y="-470"/>
      <point x="970" y="-287"/>
      <point x="970" y="-10" type="curve" smooth="yes"/>
      <point x="970" y="175"/>
      <point x="873" y="276"/>
      <point x="790" y="330" type="curve" smooth="yes"/>
      <point x="706" y="385"/>
      <point x="598" y="415"/>
      <point x="470" y="415" type="curve"/>
      <point x="910" y="905" type="line"/>
      <point x="910" y="1020" type="line"/>
    </contour>
  </outline>
</glyph>
<glyph name="LtnGlottalStop" format="2">
  <advance width="1005"/>
  <unicode hex="0294"/>
  <anchor x="475" y="-100" name="L"/>
  <anchor x="1002" y="1200" name="R"/>
  <anchor x="500" y="1530" name="U"/>
  <outline>
    <contour>
      <point x="175" y="1110" type="line"/>
      <point x="259" y="1196"/>
      <point x="356" y="1245"/>
      <point x="470" y="1245" type="curve" smooth="yes"/>
      <point x="599" y="1245"/>
      <point x="695" y="1177"/>
      <point x="695" y="1090" type="curve" smooth="yes"/>
      <point x="695" y="1019"/>
      <point x="649" y="962"/>
      <point x="592" y="893" type="curve" smooth="yes"/>
      <point x="501" y="783"/>
      <point x="385" y="640"/>
      <point x="385" y="350" type="curve" smooth="yes"/>
      <point x="385" y="153"/>
      <point x="385" y="76"/>
      <point x="370" y="0" type="curve"/>
      <point x="580" y="0" type="line"/>
      <point x="566" y="76"/>
      <point x="565" y="153"/>
      <point x="565" y="350" type="curve" smooth="yes"/>
      <point x="565" y="602"/>
      <point x="665" y="719"/>
      <point x="755" y="821" type="curve" smooth="yes"/>
      <point x="826" y="901"/>
      <point x="890" y="975"/>
      <point x="890" y="1100" type="curve" smooth="yes"/>
      <point x="890" y="1290"/>
      <point x="715" y="1415"/>
      <point x="490" y="1415" type="curve" smooth="yes"/>
      <point x="326" y="1415"/>
      <point x="221" y="1361"/>
      <point x="135" y="1285" type="curve"/>
    </contour>
  </outline>
</glyph>
<glyph name="LtnRevGlottalStop" format="2">
  <advance width="1005"/>
  <unicode hex="0295"/>
  <anchor x="525" y="-100" name="L"/>
  <anchor x="495" y="1530" name="U"/>
  <outline>
    <contour>
      <point x="831" y="1110" type="curve"/>
      <point x="871" y="1285" type="line"/>
      <point x="785" y="1361"/>
      <point x="680" y="1415"/>
      <point x="516" y="1415" type="curve" smooth="yes"/>
      <point x="291" y="1415"/>
      <point x="116" y="1290"/>
      <point x="116" y="1100" type="curve" smooth="yes"/>
      <point x="116" y="975"/>
      <point x="180" y="901"/>
      <point x="251" y="821" type="curve" smooth="yes"/>
      <point x="341" y="719"/>
      <point x="441" y="602"/>
      <point x="441" y="350" type="curve" smooth="yes"/>
      <point x="441" y="153"/>
      <point x="440" y="76"/>
      <point x="426" y="0" type="curve"/>
      <point x="636" y="0" type="line"/>
      <point x="621" y="76"/>
      <point x="621" y="153"/>
      <point x="621" y="350" type="curve" smooth="yes"/>
      <point x="621" y="640"/>
      <point x="505" y="783"/>
      <point x="414" y="893" type="curve" smooth="yes"/>
      <point x="357" y="962"/>
      <point x="311" y="1019"/>
      <point x="311" y="1090" type="curve" smooth="yes"/>
      <point x="311" y="1177"/>
      <point x="407" y="1245"/>
      <point x="536" y="1245" type="curve" smooth="yes"/>
      <point x="650" y="1245"/>
      <point x="747" y="1196"/>
    </contour>
  </outline>
</glyph>
<glyph name="LtnInvGlottalStop" format="2">
  <advance width="1005"/>
  <unicode hex="0296"/>
  <anchor x="510" y="-100" name="L"/>
  <anchor x="485" y="1530" name="U"/>
  <outline>
    <contour>
      <point x="175" y="280" type="curve"/>
      <point x="135" y="105" type="line"/>
      <point x="221" y="29"/>
      <point x="326" y="-25"/>
      <point x="490" y="-25" type="curve" smooth="yes"/>
      <point x="715" y="-25"/>
      <point x="890" y="100"/>
      <point x="890" y="290" type="curve" smooth="yes"/>
      <point x="890" y="415"/>
      <point x="826" y="489"/>
      <point x="755" y="569" type="curve" smooth="yes"/>
      <point x="665" y="671"/>
      <point x="565" y="788"/>
      <point x="565" y="1040" type="curve" smooth="yes"/>
      <point x="565" y="1237"/>
      <point x="566" y="1314"/>
      <point x="580" y="1390" type="curve"/>
      <point x="370" y="1390" type="line"/>
      <point x="385" y="1314"/>
      <point x="385" y="1237"/>
      <point x="385" y="1040" type="curve" smooth="yes"/>
      <point x="385" y="750"/>
      <point x="501" y="607"/>
      <point x="592" y="497" type="curve" smooth="yes"/>
      <point x="649" y="428"/>
      <point x="695" y="371"/>
      <point x="695" y="300" type="curve" smooth="yes"/>
      <point x="695" y="213"/>
      <point x="599" y="145"/>
      <point x="470" y="145" type="curve" smooth="yes"/>
      <point x="356" y="145"/>
      <point x="259" y="194"/>
    </contour>
  </outline>
</glyph>
<glyph name="LtnBilabialClick" format="2">
  <advance width="1720"/>
  <unicode hex="0298"/>
  <anchor x="860" y="-100" name="L"/>
  <anchor x="860" y="1560" name="U"/>
  <outline>
    <contour>
      <point x="1625" y="745" type="curve" smooth="yes"/>
      <point x="1625" y="1183"/>
      <point x="1299" y="1515"/>
      <point x="860" y="1515" type="curve" smooth="yes"/>
      <point x="422" y="1515"/>
      <point x="95" y="1182"/>
      <point x="95" y="745" type="curve" smooth="yes"/>
      <point x="95" y="310"/>
      <point x="424" y="-25"/>
      <point x="860" y="-25" type="curve" smooth="yes"/>
      <point x="1297" y="-25"/>
      <point x="1625" y="308"/>
    </contour>
    <contour>
      <point x="1015" y="755" type="curve" smooth="yes"/>
      <point x="1015" y="840"/>
      <point x="947" y="905"/>
      <point x="860" y="905" type="curve" smooth="yes"/>
      <point x="775" y="905"/>
      <point x="710" y="840"/>
      <point x="710" y="755" type="curve" smooth="yes"/>
      <point x="710" y="668"/>
      <point x="775" y="595"/>
      <point x="860" y="595" type="curve" smooth="yes"/>
      <point x="947" y="595"/>
      <point x="1015" y="668"/>
    </contour>
    <contour>
      <point x="1435" y="745" type="curve" smooth="yes"/>
      <point x="1435" y="416"/>
      <point x="1189" y="165"/>
      <point x="860" y="165" type="curve" smooth="yes"/>
      <point x="531" y="165"/>
      <point x="280" y="417"/>
      <point x="280" y="745" type="curve" smooth="yes"/>
      <point x="280" y="1075"/>
      <point x="530" y="1330"/>
      <point x="860" y="1330" type="curve" smooth="yes"/>
      <point x="1191" y="1330"/>
      <point x="1435" y="1075"/>
    </contour>
  </outline>
</glyph>
<glyph name="LtnSmJCrossedTail" format="2">
  <advance width="835"/>
  <unicode hex="029D"/>
  <anchor x="460" y="-500" name="L"/>
  <anchor x="555" y="1100" name="U"/>
  <outline>
    <contour>
      <point x="760" y="-500" type="curve"/>
      <point x="870" y="-450" type="line"/>
      <point x="830" y="-172"/>
      <point x="626" y="50"/>
      <point x="355" y="50" type="curve" smooth="yes"/>
      <point x="202" y="50"/>
      <point x="50" y="-67"/>
      <point x="50" y="-215" type="curve" smooth="yes"/>
      <point x="50" y="-382"/>
      <point x="158" y="-470"/>
      <point x="330" y="-470" type="curve" smooth="yes"/>
      <point x="517" y="-470"/>
      <point x="635" y="-343"/>
      <point x="635" y="-121" type="curve" smooth="yes"/>
      <point x="635" y="1020" type="line"/>
      <point x="435" y="1020" type="line"/>
      <point x="448" y="915"/>
      <point x="450" y="725"/>
      <point x="450" y="530" type="curve" smooth="yes"/>
      <point x="450" y="-77" type="line" smooth="yes"/>
      <point x="450" y="-264"/>
      <point x="408" y="-330"/>
      <point x="305" y="-330" type="curve" smooth="yes"/>
      <point x="217" y="-330"/>
      <point x="180" y="-286"/>
      <point x="180" y="-220" type="curve" smooth="yes"/>
      <point x="180" y="-145"/>
      <point x="250" y="-65"/>
      <point x="360" y="-65" type="curve" smooth="yes"/>
      <point x="578" y="-65"/>
      <point x="742" y="-250"/>
    </contour>
    <contour>
      <point x="540" y="1210" type="curve" smooth="yes"/>
      <point x="615" y="1210"/>
      <point x="670" y="1271"/>
      <point x="670" y="1345" type="curve" smooth="yes"/>
      <point x="670" y="1419"/>
      <point x="615" y="1480"/>
      <point x="540" y="1480" type="curve" smooth="yes"/>
      <point x="466" y="1480"/>
      <point x="415" y="1419"/>
      <point x="415" y="1345" type="curve" smooth="yes"/>
      <point x="415" y="1271"/>
      <point x="466" y="1210"/>
    </contour>
  </outline>
</glyph>
<glyph name="LtnSmTurnedK" format="2">
  <advance width="1035"/>
  <unicode hex="029E"/>
  <anchor x="365" y="-100" name="L"/>
  <anchor x="462" y="1100" name="U"/>
  <outline>
    <contour>
      <point x="705" y="1020" type="line"/>
      <point x="705" y="-490" type="line"/>
      <point x="905" y="-490" type="line"/>
      <point x="890" y="-404"/>
      <point x="890" y="-235"/>
      <point x="890" y="-20" type="curve" smooth="yes"/>
      <point x="890" y="1020" type="line"/>
    </contour>
    <contour>
      <point x="300" y="0" type="line"/>
      <point x="755" y="470" type="line"/>
      <point x="599" y="496" type="line"/>
      <point x="50" y="0" type="line"/>
    </contour>
    <contour>
      <point x="730" y="470" type="line"/>
      <point x="265" y="1020" type="line"/>
      <point x="20" y="1020" type="line"/>
      <point x="625" y="360" type="line"/>
    </contour>
  </outline>
</glyph>
<glyph name="LtnSmCapL" format="2">
  <advance width="913"/>
  <unicode hex="029F"/>
  <anchor x="502" y="-100" name="L"/>
  <anchor x="502" y="1100" name="U"/>
  <outline>
    <contour>
      <point x="345" y="1020" type="line"/>
      <point x="145" y="1020" type="line"/>
      <point x="157" y="964"/>
      <point x="157" y="854"/>
      <point x="157" y="716" type="curve" smooth="yes"/>
      <point x="157" y="304" type="line" smooth="yes"/>
      <point x="157" y="166"/>
      <point x="157" y="56"/>
      <point x="145" y="0" type="curve"/>
      <point x="863" y="0" type="line"/>
      <point x="863" y="156" type="line"/>
      <point x="796" y="146"/>
      <point x="664" y="145"/>
      <point x="501" y="145" type="curve" smooth="yes"/>
      <point x="345" y="145" type="line"/>
    </contour>
  </outline>
</glyph>
<glyph name="LtnSmQHook" format="2">
  <advance width="1200"/>
  <unicode hex="02A0"/>
  <anchor x="470" y="-100" name="L"/>
  <anchor x="555" y="1250" name="U"/>
  <outline>
    <contour>
      <point x="795" y="-490" type="line"/>
      <point x="1005" y="-490" type="line"/>
      <point x="988" y="-405"/>
      <point x="980" y="-310"/>
      <point x="980" y="-150" type="curve"/>
      <point x="980" y="1080" type="line" smooth="yes"/>
      <point x="980" y="1190"/>
      <point x="1016" y="1250"/>
      <point x="1100" y="1250" type="curve" smooth="yes"/>
      <point x="1158" y="1250"/>
      <point x="1205" y="1227"/>
      <point x="1255" y="1190" type="curve"/>
      <point x="1300" y="1350" type="line"/>
      <point x="1238" y="1394"/>
      <point x="1178" y="1420"/>
      <point x="1100" y="1420" type="curve" smooth="yes"/>
      <point x="919" y="1420"/>
      <point x="795" y="1307"/>
      <point x="795" y="1060" type="curve" smooth="yes"/>
      <point x="795" y="1051"/>
      <point x="795" y="1029"/>
      <point x="795" y="1019" type="curve"/>
      <point x="748" y="1032"/>
      <point x="681" y="1040"/>
      <point x="625" y="1040" type="curve" smooth="yes"/>
      <point x="260" y="1040"/>
      <point x="105" y="742"/>
      <point x="105" y="435" type="curve" smooth="yes"/>
      <point x="105" y="117"/>
      <point x="321" y="-25"/>
      <point x="505" y="-25" type="curve" smooth="yes"/>
      <point x="598" y="-25"/>
      <point x="691" y="19"/>
      <point x="795" y="140" type="curve"/>
    </contour>
    <contour>
      <point x="520" y="145" type="curve" smooth="yes"/>
      <point x="412" y="145"/>
      <point x="290" y="237"/>
      <point x="290" y="485" type="curve" smooth="yes"/>
      <point x="290" y="674"/>
      <point x="376" y="870"/>
      <point x="595" y="870" type="curve" smooth="yes"/>
      <point x="656" y="870"/>
      <point x="735" y="853"/>
      <point x="795" y="830" type="curve"/>
      <point x="795" y="365" type="line"/>
      <point x="713" y="219"/>
      <point x="612" y="145"/>
    </contour>
  </outline>
</glyph>
<glyph name="LtnGlottalStopStrk" format="2">
  <advance width="1005"/>
  <unicode hex="02A1"/>
  <anchor x="475" y="-100" name="L"/>
  <anchor x="500" y="1530" name="U"/>
  <outline>
    <contour>
      <point x="175" y="1110" type="line"/>
      <point x="259" y="1196"/>
      <point x="356" y="1245"/>
      <point x="460" y="1245" type="curve" smooth="yes"/>
      <point x="599" y="1245"/>
      <point x="695" y="1177"/>
      <point x="695" y="1090" type="curve" smooth="yes"/>
      <point x="695" y="986"/>
      <point x="610" y="929"/>
      <point x="520" y="800" type="curve" smooth="yes"/>
      <point x="441" y="688"/>
      <point x="385" y="552"/>
      <point x="385" y="340" type="curve" smooth="yes"/>
      <point x="385" y="153"/>
      <point x="385" y="76"/>
      <point x="370" y="0" type="curve"/>
      <point x="579" y="0" type="line"/>
      <point x="565" y="76"/>
      <point x="565" y="153"/>
      <point x="565" y="340" type="curve" smooth="yes"/>
      <point x="565" y="552"/>
      <point x="606" y="622"/>
      <point x="695" y="745" type="curve" smooth="yes"/>
      <point x="777" y="857"/>
      <point x="890" y="942"/>
      <point x="890" y="1100" type="curve" smooth="yes"/>
      <point x="890" y="1290"/>
      <point x="715" y="1415"/>
      <point x="490" y="1415" type="curve" smooth="yes"/>
      <point x="326" y="1415"/>
      <point x="221" y="1361"/>
      <point x="135" y="1285" type="curve"/>
    </contour>
    <contour>
      <point x="150" y="545" type="line"/>
      <point x="150" y="400" type="line"/>
      <point x="865" y="400" type="line"/>
      <point x="865" y="545" type="line"/>
    </contour>
  </outline>
</glyph>
<glyph name="LtnRevGlottalStopStrk" format="2">
  <advance width="1005"/>
  <unicode hex="02A2"/>
  <anchor x="525" y="-100" name="L"/>
  <anchor x="492" y="1530" name="U"/>
  <outline>
    <contour>
      <point x="855" y="545" type="line"/>
      <point x="140" y="545" type="line"/>
      <point x="140" y="400" type="line"/>
      <point x="855" y="400" type="line"/>
    </contour>
    <contour>
      <point x="830" y="1110" type="curve"/>
      <point x="870" y="1285" type="line"/>
      <point x="784" y="1361"/>
      <point x="679" y="1415"/>
      <point x="515" y="1415" type="curve" smooth="yes"/>
      <point x="290" y="1415"/>
      <point x="115" y="1290"/>
      <point x="115" y="1100" type="curve" smooth="yes"/>
      <point x="115" y="975"/>
      <point x="179" y="901"/>
      <point x="250" y="821" type="curve" smooth="yes"/>
      <point x="340" y="719"/>
      <point x="440" y="602"/>
      <point x="440" y="350" type="curve" smooth="yes"/>
      <point x="440" y="153"/>
      <point x="439" y="76"/>
      <point x="425" y="0" type="curve"/>
      <point x="635" y="0" type="line"/>
      <point x="620" y="76"/>
      <point x="620" y="153"/>
      <point x="620" y="350" type="curve" smooth="yes"/>
      <point x="620" y="640"/>
      <point x="504" y="783"/>
      <point x="413" y="893" type="curve" smooth="yes"/>
      <point x="356" y="962"/>
      <point x="310" y="1019"/>
      <point x="310" y="1090" type="curve" smooth="yes"/>
      <point x="310" y="1177"/>
      <point x="406" y="1245"/>
      <point x="535" y="1245" type="curve" smooth="yes"/>
      <point x="649" y="1245"/>
      <point x="746" y="1196"/>
    </contour>
  </outline>
</glyph>
<glyph name="LtnSmTcDigraphCurl" format="2">
  <advance width="1645"/>
  <unicode hex="02A8"/>
  <anchor x="790" y="-200" name="L"/>
  <anchor x="871" y="1360" name="U"/>
  <outline>
    <contour>
      <point x="512" y="-25" type="curve" smooth="yes"/>
      <point x="639" y="-25"/>
      <point x="750" y="33"/>
      <point x="852" y="125" type="curve"/>
      <point x="772" y="228" type="line"/>
      <point x="692" y="164"/>
      <point x="616" y="140"/>
      <point x="543" y="140" type="curve" smooth="yes"/>
      <point x="443" y="140"/>
      <point x="415" y="194"/>
      <point x="415" y="380" type="curve" smooth="yes"/>
      <point x="415" y="1320" type="line"/>
      <point x="230" y="1320" type="line"/>
      <point x="230" y="280" type="line" smooth="yes"/>
      <point x="230" y="49"/>
      <point x="356" y="-25"/>
    </contour>
    <contour>
      <point x="30" y="850" type="line"/>
      <point x="690" y="850" type="line"/>
      <point x="690" y="995" type="line"/>
      <point x="30" y="995" type="line"/>
    </contour>
    <contour>
      <point x="690" y="490" type="curve" smooth="yes"/>
      <point x="690" y="178"/>
      <point x="897" y="-25"/>
      <point x="1175" y="-25" type="curve" smooth="yes"/>
      <point x="1407" y="-25"/>
      <point x="1550" y="99"/>
      <point x="1550" y="285" type="curve" smooth="yes"/>
      <point x="1550" y="407"/>
      <point x="1448" y="505"/>
      <point x="1310" y="505" type="curve" smooth="yes"/>
      <point x="1053" y="505"/>
      <point x="955" y="284"/>
      <point x="955" y="79" type="curve" smooth="yes"/>
      <point x="955" y="7"/>
      <point x="980" y="-121"/>
      <point x="995" y="-175" type="curve"/>
      <point x="1110" y="-195" type="line"/>
      <point x="1090" y="-128"/>
      <point x="1064" y="1"/>
      <point x="1064" y="83" type="curve" smooth="yes"/>
      <point x="1064" y="321"/>
      <point x="1187" y="390"/>
      <point x="1290" y="390" type="curve" smooth="yes"/>
      <point x="1358" y="390"/>
      <point x="1410" y="337"/>
      <point x="1410" y="275" type="curve" smooth="yes"/>
      <point x="1410" y="175"/>
      <point x="1292" y="130"/>
      <point x="1205" y="130" type="curve" smooth="yes"/>
      <point x="1003" y="130"/>
      <point x="880" y="293"/>
      <point x="880" y="500" type="curve" smooth="yes"/>
      <point x="880" y="736"/>
      <point x="1017" y="875"/>
      <point x="1195" y="875" type="curve" smooth="yes"/>
      <point x="1298" y="875"/>
      <point x="1385" y="841"/>
      <point x="1475" y="775" type="curve"/>
      <point x="1510" y="955" type="line"/>
      <point x="1437" y="1005"/>
      <point x="1343" y="1040"/>
      <point x="1210" y="1040" type="curve" smooth="yes"/>
      <point x="892" y="1040"/>
      <point x="690" y="792"/>
    </contour>
  </outline>
</glyph>
<glyph name="LtnSmLSDigraph" format="2">
  <advance width="1290"/>
  <unicode hex="02AA"/>
  <anchor x="687" y="-100" name="L"/>
  <anchor x="750" y="1635" name="U"/>
  <outline>
    <contour>
      <point x="375" y="1600" type="line"/>
      <point x="170" y="1600" type="line"/>
      <point x="183" y="1485"/>
      <point x="190" y="1324"/>
      <point x="190" y="1130" type="curve" smooth="yes"/>
      <point x="190" y="0" type="line"/>
      <point x="395" y="0" type="line"/>
      <point x="382" y="109"/>
      <point x="375" y="346"/>
      <point x="375" y="475" type="curve" smooth="yes"/>
    </contour>
    <contour>
      <point x="1150" y="975" type="line"/>
      <point x="1096" y="1008"/>
      <point x="977" y="1040"/>
      <point x="870" y="1040" type="curve" smooth="yes"/>
      <point x="586" y="1040"/>
      <point x="505" y="842"/>
      <point x="505" y="750" type="curve" smooth="yes"/>
      <point x="505" y="626"/>
      <point x="567" y="514"/>
      <point x="790" y="455" type="curve" smooth="yes"/>
      <point x="1013" y="396"/>
      <point x="1025" y="345"/>
      <point x="1025" y="270" type="curve" smooth="yes"/>
      <point x="1025" y="201"/>
      <point x="942" y="135"/>
      <point x="825" y="135" type="curve" smooth="yes"/>
      <point x="671" y="135"/>
      <point x="508" y="181"/>
      <point x="370" y="310" type="curve"/>
      <point x="320" y="130" type="line"/>
      <point x="476" y="11"/>
      <point x="637" y="-25"/>
      <point x="820" y="-25" type="curve" smooth="yes"/>
      <point x="1035" y="-25"/>
      <point x="1205" y="115"/>
      <point x="1205" y="295" type="curve" smooth="yes"/>
      <point x="1205" y="481"/>
      <point x="1094" y="555"/>
      <point x="915" y="600" type="curve" smooth="yes"/>
      <point x="725" y="648"/>
      <point x="685" y="690"/>
      <point x="685" y="760" type="curve" smooth="yes"/>
      <point x="685" y="820"/>
      <point x="733" y="880"/>
      <point x="860" y="880" type="curve" smooth="yes"/>
      <point x="970" y="880"/>
      <point x="1056" y="839"/>
      <point x="1115" y="800" type="curve"/>
    </contour>
  </outline>
</glyph>
<glyph name="LtnBilabialPercussive" format="2">
  <advance width="1300"/>
  <unicode hex="02AC"/>
  <anchor x="650" y="-100" name="L"/>
  <anchor x="650" y="1595" name="U"/>
  <outline>
    <contour>
      <point x="570" y="1460" type="line"/>
      <point x="405" y="950" type="line"/>
      <point x="250" y="1460" type="line"/>
      <point x="95" y="1460" type="line"/>
      <point x="130" y="1365"/>
      <point x="149" y="1305"/>
      <point x="170" y="1240" type="curve" smooth="yes"/>
      <point x="305" y="825" type="line"/>
      <point x="505" y="825" type="line"/>
      <point x="650" y="1285" type="line"/>
      <point x="797" y="825" type="line"/>
      <point x="995" y="825" type="line"/>
      <point x="1130" y="1240" type="line" smooth="yes"/>
      <point x="1154" y="1314"/>
      <point x="1171" y="1365"/>
      <point x="1205" y="1460" type="curve"/>
      <point x="1050" y="1460" type="line"/>
      <point x="895" y="950" type="line"/>
      <point x="735" y="1460" type="line"/>
    </contour>
    <contour>
      <point x="570" y="635" type="line"/>
      <point x="405" y="125" type="line"/>
      <point x="250" y="635" type="line"/>
      <point x="95" y="635" type="line"/>
      <point x="130" y="540"/>
      <point x="149" y="480"/>
      <point x="170" y="415" type="curve" smooth="yes"/>
      <point x="305" y="0" type="line"/>
      <point x="505" y="0" type="line"/>
      <point x="650" y="460" type="line"/>
      <point x="797" y="0" type="line"/>
      <point x="995" y="0" type="line"/>
      <point x="1130" y="415" type="line" smooth="yes"/>
      <point x="1154" y="489"/>
      <point x="1171" y="540"/>
      <point x="1205" y="635" type="curve"/>
      <point x="1050" y="635" type="line"/>
      <point x="895" y="125" type="line"/>
      <point x="735" y="635" type="line"/>
    </contour>
  </outline>
</glyph>
<glyph name="LtnSmTurnedHFishhook" format="2">
  <advance width="1270"/>
  <unicode hex="02AE"/>
  <anchor x="625" y="-100" name="L"/>
  <anchor x="630" y="1100" name="U"/>
  <outline>
    <contour>
      <point x="945" y="1020" type="line"/>
      <point x="945" y="445" type="line"/>
      <point x="901" y="309"/>
      <point x="777" y="150"/>
      <point x="680" y="150" type="curve" smooth="yes"/>
      <point x="546" y="150"/>
      <point x="480" y="225"/>
      <point x="480" y="475" type="curve" smooth="yes"/>
      <point x="480" y="655" type="line" smooth="yes"/>
      <point x="480" y="907"/>
      <point x="357" y="1040"/>
      <point x="205" y="1040" type="curve" smooth="yes"/>
      <point x="135" y="1040"/>
      <point x="32" y="1010"/>
      <point x="-10" y="975" type="curve"/>
      <point x="30" y="820" type="line"/>
      <point x="63" y="849"/>
      <point x="118" y="865"/>
      <point x="160" y="865" type="curve" smooth="yes"/>
      <point x="257" y="865"/>
      <point x="295" y="758"/>
      <point x="295" y="625" type="curve" smooth="yes"/>
      <point x="295" y="400" type="line" smooth="yes"/>
      <point x="295" y="125"/>
      <point x="412" y="-25"/>
      <point x="625" y="-25" type="curve" smooth="yes"/>
      <point x="765" y="-25"/>
      <point x="847" y="56"/>
      <point x="945" y="195" type="curve"/>
      <point x="945" y="148"/>
      <point x="945" y="-490"/>
      <point x="945" y="-490" type="curve"/>
      <point x="1145" y="-490" type="line"/>
      <point x="1130" y="-404"/>
      <point x="1130" y="-320"/>
      <point x="1130" y="-105" type="curve" smooth="yes"/>
      <point x="1130" y="90"/>
      <point x="1130" y="1020"/>
      <point x="1130" y="1020" type="curve"/>
    </contour>
  </outline>
</glyph>
<glyph name="ModTurnedComma" format="2">
  <advance width="445"/>
  <unicode hex="02BB"/>
  <outline>
    <contour>
      <point x="380" y="1265" type="line"/>
      <point x="240" y="1265" type="line"/>
      <point x="240" y="1366"/>
      <point x="317" y="1487"/>
      <point x="375" y="1545" type="curve"/>
      <point x="275" y="1585" type="line"/>
      <point x="158" y="1475"/>
      <point x="100" y="1352"/>
      <point x="100" y="1230" type="curve" smooth="yes"/>
      <point x="100" y="1129"/>
      <point x="165" y="1065"/>
      <point x="245" y="1065" type="curve" smooth="yes"/>
      <point x="302" y="1065"/>
      <point x="367" y="1102"/>
      <point x="380" y="1165" type="curve"/>
    </contour>
  </outline>
</glyph>
<glyph name="ModApos" format="2">
  <advance width="445"/>
  <unicode hex="02BC"/>
  <outline>
    <contour>
      <point x="65" y="1385" type="line"/>
      <point x="205" y="1385" type="line"/>
      <point x="205" y="1284"/>
      <point x="128" y="1163"/>
      <point x="70" y="1105" type="curve"/>
      <point x="170" y="1065" type="line"/>
      <point x="287" y="1175"/>
      <point x="345" y="1298"/>
      <point x="345" y="1420" type="curve" smooth="yes"/>
      <point x="345" y="1521"/>
      <point x="280" y="1585"/>
      <point x="200" y="1585" type="curve" smooth="yes"/>
      <point x="143" y="1585"/>
      <point x="78" y="1548"/>
      <point x="65" y="1485" type="curve"/>
    </contour>
  </outline>
</glyph>
<glyph name="ModRevComma" format="2">
  <advance width="445"/>
  <unicode hex="02BD"/>
  <outline>
    <contour>
      <point x="345" y="1485" type="line"/>
      <point x="332" y="1548"/>
      <point x="267" y="1585"/>
      <point x="210" y="1585" type="curve" smooth="yes"/>
      <point x="130" y="1585"/>
      <point x="65" y="1521"/>
      <point x="65" y="1420" type="curve" smooth="yes"/>
      <point x="65" y="1298"/>
      <point x="123" y="1175"/>
      <point x="240" y="1065" type="curve"/>
      <point x="340" y="1105" type="line"/>
      <point x="282" y="1163"/>
      <point x="205" y="1284"/>
      <point x="205" y="1385" type="curve"/>
      <point x="345" y="1385" type="line"/>
    </contour>
  </outline>
</glyph>
<glyph name="ModGlottalStop" format="2">
  <advance width="618"/>
  <unicode hex="02C0"/>
  <anchor x="305" y="615" name="L"/>
  <anchor x="300" y="1635" name="U"/>
  <outline>
    <contour>
      <point x="76" y="1401" type="line"/>
      <point x="135" y="1457"/>
      <point x="203" y="1489"/>
      <point x="276" y="1489" type="curve" smooth="yes"/>
      <point x="373" y="1489"/>
      <point x="440" y="1445"/>
      <point x="440" y="1388" type="curve" smooth="yes"/>
      <point x="440" y="1342"/>
      <point x="408" y="1305"/>
      <point x="368" y="1260" type="curve" smooth="yes"/>
      <point x="305" y="1189"/>
      <point x="223" y="1095"/>
      <point x="223" y="907" type="curve" smooth="yes"/>
      <point x="223" y="779"/>
      <point x="223" y="729"/>
      <point x="213" y="680" type="curve"/>
      <point x="360" y="680" type="line"/>
      <point x="350" y="729"/>
      <point x="349" y="779"/>
      <point x="349" y="907" type="curve" smooth="yes"/>
      <point x="349" y="1071"/>
      <point x="419" y="1147"/>
      <point x="482" y="1213" type="curve" smooth="yes"/>
      <point x="532" y="1265"/>
      <point x="577" y="1313"/>
      <point x="577" y="1395" type="curve" smooth="yes"/>
      <point x="577" y="1518"/>
      <point x="454" y="1599"/>
      <point x="297" y="1599" type="curve" smooth="yes"/>
      <point x="182" y="1599"/>
      <point x="108" y="1564"/>
      <point x="48" y="1515" type="curve"/>
    </contour>
  </outline>
</glyph>
<glyph name="ModRevGlottalStop" format="2">
  <advance width="618"/>
  <unicode hex="02C1"/>
  <anchor x="332" y="615" name="L"/>
  <anchor x="320" y="1635" name="U"/>
  <outline>
    <contour>
      <point x="540" y="1401" type="curve"/>
      <point x="568" y="1515" type="line"/>
      <point x="508" y="1564"/>
      <point x="434" y="1599"/>
      <point x="319" y="1599" type="curve" smooth="yes"/>
      <point x="162" y="1599"/>
      <point x="39" y="1518"/>
      <point x="39" y="1395" type="curve" smooth="yes"/>
      <point x="39" y="1313"/>
      <point x="84" y="1265"/>
      <point x="134" y="1213" type="curve" smooth="yes"/>
      <point x="197" y="1147"/>
      <point x="267" y="1071"/>
      <point x="267" y="907" type="curve" smooth="yes"/>
      <point x="267" y="779"/>
      <point x="266" y="729"/>
      <point x="256" y="680" type="curve"/>
      <point x="403" y="680" type="line"/>
      <point x="393" y="729"/>
      <point x="393" y="779"/>
      <point x="393" y="907" type="curve" smooth="yes"/>
      <point x="393" y="1096"/>
      <point x="312" y="1189"/>
      <point x="248" y="1260" type="curve" smooth="yes"/>
      <point x="208" y="1305"/>
      <point x="176" y="1342"/>
      <point x="176" y="1388" type="curve" smooth="yes"/>
      <point x="176" y="1445"/>
      <point x="243" y="1489"/>
      <point x="333" y="1489" type="curve" smooth="yes"/>
      <point x="413" y="1489"/>
      <point x="481" y="1457"/>
    </contour>
  </outline>
</glyph>
<glyph name="ModRtArrwhd" format="2">
  <advance width="1085"/>
  <unicode hex="02C3"/>
  <outline>
    <contour>
      <point x="985" y="1210" type="line"/>
      <point x="985" y="1320" type="line"/>
      <point x="100" y="1620" type="line"/>
      <point x="100" y="1515" type="line"/>
      <point x="830" y="1265" type="line"/>
      <point x="100" y="1015" type="line"/>
      <point x="100" y="910" type="line"/>
    </contour>
  </outline>
</glyph>
<glyph name="ModUpArrwhd" format="2">
  <advance width="975"/>
  <unicode hex="02C4"/>
  <outline>
    <contour>
      <point x="545" y="1620" type="line"/>
      <point x="435" y="1620" type="line"/>
      <point x="100" y="885" type="line"/>
      <point x="210" y="885" type="line"/>
      <point x="490" y="1500" type="line"/>
      <point x="770" y="885" type="line"/>
      <point x="880" y="885" type="line"/>
    </contour>
  </outline>
</glyph>
<glyph name="ModLowVertLine" format="2">
  <advance width="440"/>
  <unicode hex="02CC"/>
  <outline>
    <contour>
      <point x="270" y="-590" type="line"/>
      <point x="270" y="100" type="line"/>
      <point x="170" y="100" type="line"/>
      <point x="170" y="-590" type="line"/>
    </contour>
  </outline>
</glyph>
<glyph name="ModCntrdLftHalfRing" format="2">
  <advance width="570"/>
  <unicode hex="02D3"/>
  <outline>
    <contour>
      <point x="470" y="130" type="line"/>
      <point x="330" y="130"/>
      <point x="240" y="227"/>
      <point x="240" y="360" type="curve" smooth="yes"/>
      <point x="240" y="493"/>
      <point x="330" y="590"/>
      <point x="470" y="590" type="curve"/>
      <point x="470" y="720" type="line"/>
      <point x="246" y="720"/>
      <point x="100" y="564"/>
      <point x="100" y="360" type="curve" smooth="yes"/>
      <point x="100" y="156"/>
      <point x="246" y="0"/>
      <point x="470" y="0" type="curve"/>
    </contour>
  </outline>
</glyph>
<glyph name="ModUpTack" format="2">
  <advance width="810"/>
  <unicode hex="02D4"/>
  <outline>
    <contour>
      <point x="455" y="370" type="line"/>
      <point x="455" y="740" type="line"/>
      <point x="355" y="740" type="line"/>
      <point x="355" y="370" type="line"/>
      <point x="120" y="370" type="line"/>
      <point x="120" y="270" type="line"/>
      <point x="690" y="270" type="line"/>
      <point x="690" y="370" type="line"/>
    </contour>
  </outline>
</glyph>
<glyph name="ModDwnTack" format="2">
  <advance width="810"/>
  <unicode hex="02D5"/>
  <outline>
    <contour>
      <point x="690" y="640" type="line"/>
      <point x="690" y="740" type="line"/>
      <point x="120" y="740" type="line"/>
      <point x="120" y="640" type="line"/>
      <point x="355" y="640" type="line"/>
      <point x="355" y="270" type="line"/>
      <point x="455" y="270" type="line"/>
      <point x="455" y="640" type="line"/>
    </contour>
  </outline>
</glyph>
<glyph name="Breve" format="2">
  <advance width="750"/>
  <unicode hex="02D8"/>
  <anchor x="375" y="1635" name="U"/>
  <outline>
    <contour>
      <point x="750" y="1550" type="curve"/>
      <point x="628" y="1550" type="line"/>
      <point x="608" y="1415"/>
      <point x="506" y="1300"/>
      <point x="375" y="1300" type="curve" smooth="yes"/>
      <point x="245" y="1300"/>
      <point x="136" y="1415"/>
      <point x="120" y="1550" type="curve"/>
      <point x="0" y="1550" type="line"/>
      <point x="0" y="1356"/>
      <point x="140" y="1150"/>
      <point x="375" y="1150" type="curve" smooth="yes"/>
      <point x="608" y="1150"/>
      <point x="750" y="1356"/>
    </contour>
  </outline>
</glyph>
<glyph name="DotAbv" format="2">
  <advance width="270"/>
  <unicode hex="02D9"/>
  <outline>
    <contour>
      <point x="0" y="1345" type="curve" smooth="yes"/>
      <point x="0" y="1271"/>
      <point x="61" y="1210"/>
      <point x="135" y="1210" type="curve" smooth="yes"/>
      <point x="209" y="1210"/>
      <point x="270" y="1271"/>
      <point x="270" y="1345" type="curve" smooth="yes"/>
      <point x="270" y="1419"/>
      <point x="209" y="1480"/>
      <point x="135" y="1480" type="curve" smooth="yes"/>
      <point x="61" y="1480"/>
      <point x="0" y="1419"/>
    </contour>
  </outline>
</glyph>
<glyph name="RingAbv" format="2">
  <advance width="430"/>
  <unicode hex="02DA"/>
  <outline>
    <contour>
      <point x="325" y="1385" type="curve" smooth="yes"/>
      <point x="325" y="1325"/>
      <point x="285" y="1275"/>
      <point x="215" y="1275" type="curve" smooth="yes"/>
      <point x="145" y="1275"/>
      <point x="105" y="1325"/>
      <point x="105" y="1385" type="curve" smooth="yes"/>
      <point x="105" y="1445"/>
      <point x="145" y="1495"/>
      <point x="215" y="1495" type="curve" smooth="yes"/>
      <point x="285" y="1495"/>
      <point x="325" y="1445"/>
    </contour>
    <contour>
      <point x="0" y="1385" type="curve" smooth="yes"/>
      <point x="0" y="1265"/>
      <point x="95" y="1170"/>
      <point x="215" y="1170" type="curve" smooth="yes"/>
      <point x="335" y="1170"/>
      <point x="430" y="1265"/>
      <point x="430" y="1385" type="curve" smooth="yes"/>
      <point x="430" y="1505"/>
      <point x="335" y="1600"/>
      <point x="215" y="1600" type="curve" smooth="yes"/>
      <point x="95" y="1600"/>
      <point x="0" y="1505"/>
    </contour>
  </outline>
</glyph>
<glyph name="SmTilde" format="2">
  <advance width="710"/>
  <unicode hex="02DC"/>
  <outline>
    <contour>
      <point x="105" y="1205" type="line"/>
      <point x="110" y="1254"/>
      <point x="141" y="1290"/>
      <point x="190" y="1290" type="curve" smooth="yes"/>
      <point x="227" y="1290"/>
      <point x="268" y="1274"/>
      <point x="345" y="1238" type="curve" smooth="yes"/>
      <point x="406" y="1210"/>
      <point x="459" y="1190"/>
      <point x="512" y="1190" type="curve" smooth="yes"/>
      <point x="635" y="1190"/>
      <point x="710" y="1312"/>
      <point x="710" y="1440" type="curve"/>
      <point x="605" y="1440" type="line"/>
      <point x="598" y="1394"/>
      <point x="567" y="1355"/>
      <point x="520" y="1355" type="curve" smooth="yes"/>
      <point x="478" y="1355"/>
      <point x="437" y="1374"/>
      <point x="365" y="1403" type="curve" smooth="yes"/>
      <point x="295" y="1431"/>
      <point x="248" y="1455"/>
      <point x="192" y="1455" type="curve" smooth="yes"/>
      <point x="73" y="1455"/>
      <point x="0" y="1327"/>
      <point x="0" y="1205" type="curve"/>
    </contour>
  </outline>
</glyph>
<glyph name="ModRhoticHook" format="2">
  <advance width="410"/>
  <unicode hex="02DE"/>
  <anchor x="590" y="1000" name="R"/>
  <anchor x="0" y="1000" name="R_"/>
  <outline>
    <contour>
      <point x="65" y="1040" type="line"/>
      <point x="-250" y="855" type="line"/>
      <point x="-185" y="750" type="line"/>
      <point x="5" y="860" type="line"/>
      <point x="5" y="731"/>
      <point x="81" y="640"/>
      <point x="210" y="640" type="curve" smooth="yes"/>
      <point x="297" y="640"/>
      <point x="373" y="692"/>
      <point x="405" y="750" type="curve"/>
      <point x="345" y="840" type="line"/>
      <point x="323" y="795"/>
      <point x="266" y="765"/>
      <point x="220" y="765" type="curve" smooth="yes"/>
      <point x="147" y="765"/>
      <point x="110" y="821"/>
      <point x="110" y="880" type="curve" smooth="yes"/>
      <point x="110" y="900"/>
      <point x="112" y="924"/>
      <point x="115" y="940" type="curve"/>
    </contour>
  </outline>
</glyph>
<glyph name="ModCrossAccent" format="2">
  <advance width="782"/>
  <unicode hex="02DF"/>
  <outline>
    <contour>
      <point x="747" y="1468" type="line"/>
      <point x="644" y="1570" type="line"/>
      <point x="391" y="1317" type="line"/>
      <point x="138" y="1570" type="line"/>
      <point x="35" y="1468" type="line"/>
      <point x="288" y="1215" type="line"/>
      <point x="35" y="961" type="line"/>
      <point x="137" y="858" type="line"/>
      <point x="391" y="1112" type="line"/>
      <point x="645" y="858" type="line"/>
      <point x="747" y="961" type="line"/>
      <point x="494" y="1215" type="line"/>
    </contour>
  </outline>
</glyph>
<glyph name="ModSmRevGlottalStop" format="2">
  <advance width="569"/>
  <unicode hex="02E4"/>
  <anchor x="300" y="615" name="L"/>
  <anchor x="315" y="1395" name="U"/>
  <outline>
    <contour>
      <point x="227" y="680" type="curve"/>
      <point x="374" y="680" type="line"/>
      <point x="366" y="722"/>
      <point x="364" y="743"/>
      <point x="364" y="806" type="curve" smooth="yes"/>
      <point x="364" y="991"/>
      <point x="298" y="1059"/>
      <point x="250" y="1105" type="curve" smooth="yes"/>
      <point x="224" y="1130"/>
      <point x="204" y="1151"/>
      <point x="204" y="1181" type="curve" smooth="yes"/>
      <point x="204" y="1223"/>
      <point x="253" y="1252"/>
      <point x="304" y="1252" type="curve" smooth="yes"/>
      <point x="359" y="1252"/>
      <point x="426" y="1229"/>
      <point x="469" y="1188" type="curve"/>
      <point x="495" y="1300" type="line"/>
      <point x="457" y="1333"/>
      <point x="391" y="1356"/>
      <point x="321" y="1356" type="curve" smooth="yes"/>
      <point x="188" y="1356"/>
      <point x="70" y="1295"/>
      <point x="70" y="1183" type="curve" smooth="yes"/>
      <point x="70" y="1121"/>
      <point x="103" y="1088"/>
      <point x="139" y="1054" type="curve" smooth="yes"/>
      <point x="186" y="1009"/>
      <point x="238" y="959"/>
      <point x="238" y="836" type="curve" smooth="yes"/>
      <point x="238" y="743"/>
      <point x="236" y="722"/>
    </contour>
  </outline>
</glyph>
<glyph name="ModYinDepartingTnMrk" format="2">
  <advance width="910"/>
  <unicode hex="02EA"/>
  <outline>
    <contour>
      <point x="220" y="800" type="line"/>
      <point x="120" y="800" type="line"/>
      <point x="120" y="230" type="line"/>
      <point x="590" y="230" type="line"/>
      <point x="590" y="330" type="line"/>
      <point x="220" y="330" type="line"/>
    </contour>
  </outline>
</glyph>
<glyph name="ModYangDepartingToneMrk" format="2">
  <advance width="710"/>
  <unicode hex="02EB"/>
  <outline>
    <contour>
      <point x="220" y="800" type="line"/>
      <point x="120" y="800" type="line"/>
      <point x="120" y="230" type="line"/>
      <point x="220" y="230" type="line"/>
      <point x="220" y="465" type="line"/>
      <point x="590" y="465" type="line"/>
      <point x="590" y="565" type="line"/>
      <point x="220" y="565" type="line"/>
    </contour>
  </outline>
</glyph>
<glyph name="ModVoicing" format="2">
  <advance width="850"/>
  <unicode hex="02EC"/>
  <anchor x="425" y="-600" name="L"/>
  <outline>
    <contour>
      <point x="0" y="-150" type="line"/>
      <point x="340" y="-580" type="line"/>
      <point x="510" y="-580" type="line"/>
      <point x="850" y="-150" type="line"/>
      <point x="700" y="-150" type="line"/>
      <point x="425" y="-430" type="line"/>
      <point x="150" y="-150" type="line"/>
    </contour>
  </outline>
</glyph>
<glyph name="ModBeginLowTn" format="2">
  <advance width="630"/>
  <unicode hex="02FB"/>
  <outline>
    <contour>
      <point x="580" y="-305" type="line"/>
      <point x="580" y="-205" type="line"/>
      <point x="150" y="-205" type="line"/>
      <point x="150" y="350" type="line"/>
      <point x="50" y="350" type="line"/>
      <point x="50" y="-305" type="line"/>
    </contour>
  </outline>
</glyph>
<glyph name="ModOpnShelf" format="2">
  <advance width="1165"/>
  <unicode hex="02FE"/>
  <outline>
    <contour>
      <point x="170" y="-235" type="line"/>
      <point x="170" y="-50" type="line"/>
      <point x="50" y="-50" type="line"/>
      <point x="50" y="-355" type="line"/>
      <point x="1115" y="-355" type="line"/>
      <point x="1115" y="-235" type="line"/>
    </contour>
  </outline>
</glyph>
<glyph name="CombMacron" format="2">
  <unicode hex="0304"/>
  <anchor x="-570" y="1450" name="U"/>
  <anchor x="-570" y="1100" name="_U"/>
  <outline>
    <contour>
      <point x="-945" y="1240" type="line"/>
      <point x="-195" y="1240" type="line"/>
      <point x="-195" y="1390" type="line"/>
      <point x="-945" y="1390" type="line"/>
    </contour>
  </outline>
</glyph>
<glyph name="CombOverline" format="2">
  <unicode hex="0305"/>
  <anchor x="-570" y="1635" name="U"/>
  <anchor x="-570" y="1100" name="_U"/>
  <outline>
    <contour>
      <point x="-1295" y="1490" type="line"/>
      <point x="155" y="1490" type="line"/>
      <point x="155" y="1640" type="line"/>
      <point x="-1295" y="1640" type="line"/>
    </contour>
  </outline>
</glyph>
<glyph name="CombVertLineAbv" format="2">
  <unicode hex="030D"/>
  <anchor x="-570" y="1635" name="U"/>
  <anchor x="-570" y="1100" name="_U"/>
  <outline>
    <contour>
      <point x="-520" y="1170" type="line"/>
      <point x="-520" y="1600" type="line"/>
      <point x="-620" y="1600" type="line"/>
      <point x="-620" y="1170" type="line"/>
    </contour>
  </outline>
</glyph>
<glyph name="CombDblVertLineAbv" format="2">
  <unicode hex="030E"/>
  <anchor x="-570" y="1635" name="U"/>
  <anchor x="-570" y="1100" name="_U"/>
  <outline>
    <contour>
      <point x="-645" y="1170" type="line"/>
      <point x="-645" y="1600" type="line"/>
      <point x="-745" y="1600" type="line"/>
      <point x="-745" y="1170" type="line"/>
    </contour>
    <contour>
      <point x="-395" y="1170" type="line"/>
      <point x="-395" y="1600" type="line"/>
      <point x="-495" y="1600" type="line"/>
      <point x="-495" y="1170" type="line"/>
    </contour>
  </outline>
</glyph>
<glyph name="CombDblGrave" format="2">
  <unicode hex="030F"/>
  <anchor x="-572" y="1635" name="U"/>
  <anchor x="-572" y="1100" name="_U"/>
  <outline>
    <contour>
      <point x="-1040" y="1600" type="line"/>
      <point x="-730" y="1150" type="line"/>
      <point x="-590" y="1150" type="line"/>
      <point x="-830" y="1600" type="line"/>
    </contour>
    <contour>
      <point x="-700" y="1600" type="line"/>
      <point x="-390" y="1150" type="line"/>
      <point x="-250" y="1150" type="line"/>
      <point x="-490" y="1600" type="line"/>
    </contour>
  </outline>
</glyph>
<glyph name="CombInvBreve" format="2">
  <unicode hex="0311"/>
  <anchor x="-570" y="1635" name="U"/>
  <anchor x="-570" y="1100" name="_U"/>
  <outline>
    <contour>
      <point x="-195" y="1150" type="line"/>
      <point x="-195" y="1344"/>
      <point x="-337" y="1550"/>
      <point x="-570" y="1550" type="curve" smooth="yes"/>
      <point x="-805" y="1550"/>
      <point x="-945" y="1344"/>
      <point x="-945" y="1150" type="curve"/>
      <point x="-825" y="1150" type="line"/>
      <point x="-809" y="1285"/>
      <point x="-700" y="1400"/>
      <point x="-570" y="1400" type="curve" smooth="yes"/>
      <point x="-439" y="1400"/>
      <point x="-337" y="1285"/>
      <point x="-317" y="1150" type="curve"/>
    </contour>
  </outline>
</glyph>
<glyph name="CombRevCommaAbv" format="2">
  <unicode hex="0314"/>
  <anchor x="-575" y="1685" name="U"/>
  <anchor x="-575" y="1100" name="_U"/>
  <outline>
    <contour>
      <point x="-435" y="1520" type="line"/>
      <point x="-448" y="1583"/>
      <point x="-513" y="1620"/>
      <point x="-570" y="1620" type="curve" smooth="yes"/>
      <point x="-650" y="1620"/>
      <point x="-715" y="1556"/>
      <point x="-715" y="1455" type="curve" smooth="yes"/>
      <point x="-715" y="1333"/>
      <point x="-667" y="1230"/>
      <point x="-550" y="1120" type="curve"/>
      <point x="-450" y="1160" type="line"/>
      <point x="-508" y="1218"/>
      <point x="-575" y="1319"/>
      <point x="-575" y="1420" type="curve"/>
      <point x="-435" y="1420" type="line"/>
    </contour>
  </outline>
</glyph>
<glyph name="CombLftTackBlw" format="2">
  <unicode hex="0318"/>
  <anchor x="-570" y="-500" name="L"/>
  <anchor x="-570" y="-100" name="_L"/>
  <outline>
    <contour>
      <point x="-505" y="-275" type="line"/>
      <point x="-725" y="-275" type="line"/>
      <point x="-725" y="-365" type="line"/>
      <point x="-505" y="-365" type="line"/>
      <point x="-505" y="-510" type="line"/>
      <point x="-415" y="-510" type="line"/>
      <point x="-415" y="-130" type="line"/>
      <point x="-505" y="-130" type="line"/>
    </contour>
  </outline>
</glyph>
<glyph name="CombUpTackBlw" format="2">
  <unicode hex="031D"/>
  <anchor x="-570" y="-500" name="L"/>
  <anchor x="-570" y="-100" name="_L"/>
  <outline>
    <contour>
      <point x="-525" y="-385" type="line"/>
      <point x="-525" y="-165" type="line"/>
      <point x="-615" y="-165" type="line"/>
      <point x="-615" y="-385" type="line"/>
      <point x="-760" y="-385" type="line"/>
      <point x="-760" y="-475" type="line"/>
      <point x="-380" y="-475" type="line"/>
      <point x="-380" y="-385" type="line"/>
    </contour>
  </outline>
</glyph>
<glyph name="CombDwnTackBlw" format="2">
  <unicode hex="031E"/>
  <anchor x="-570" y="-500" name="L"/>
  <anchor x="-570" y="-100" name="_L"/>
  <outline>
    <contour>
      <point x="-380" y="-255" type="line"/>
      <point x="-380" y="-165" type="line"/>
      <point x="-760" y="-165" type="line"/>
      <point x="-760" y="-255" type="line"/>
      <point x="-615" y="-255" type="line"/>
      <point x="-615" y="-475" type="line"/>
      <point x="-525" y="-475" type="line"/>
      <point x="-525" y="-255" type="line"/>
    </contour>
  </outline>
</glyph>
<glyph name="CombPlusSgnBlw" format="2">
  <unicode hex="031F"/>
  <anchor x="-570" y="-580" name="L"/>
  <anchor x="-570" y="-100" name="_L"/>
  <outline>
    <contour>
      <point x="-365" y="-405" type="line"/>
      <point x="-365" y="-305" type="line"/>
      <point x="-520" y="-305" type="line"/>
      <point x="-520" y="-150" type="line"/>
      <point x="-620" y="-150" type="line"/>
      <point x="-620" y="-305" type="line"/>
      <point x="-775" y="-305" type="line"/>
      <point x="-775" y="-405" type="line"/>
      <point x="-620" y="-405" type="line"/>
      <point x="-620" y="-560" type="line"/>
      <point x="-520" y="-560" type="line"/>
      <point x="-520" y="-405" type="line"/>
    </contour>
  </outline>
</glyph>
<glyph name="CombRetrHook" format="2">
  <unicode hex="0322"/>
  <outline>
    <contour>
      <point x="-39" y="120" type="line"/>
      <point x="-175" y="120" type="line"/>
      <point x="-175" y="-219" type="line" smooth="yes"/>
      <point x="-175" y="-372"/>
      <point x="-89" y="-470"/>
      <point x="31" y="-470" type="curve" smooth="yes"/>
      <point x="100" y="-470"/>
      <point x="168" y="-453"/>
      <point x="221" y="-415" type="curve"/>
      <point x="206" y="-290" type="line"/>
      <point x="163" y="-318"/>
      <point x="122" y="-335"/>
      <point x="66" y="-335" type="curve" smooth="yes"/>
      <point x="9" y="-335"/>
      <point x="-39" y="-285"/>
      <point x="-39" y="-210" type="curve" smooth="yes"/>
    </contour>
  </outline>
</glyph>
<glyph name="CombCommaBlw" format="2">
  <unicode hex="0326"/>
  <anchor x="-567" y="-500" name="L"/>
  <anchor x="-567" y="-100" name="_L"/>
  <outline>
    <contour>
      <point x="-678" y="-280" type="line"/>
      <point x="-568" y="-280" type="line"/>
      <point x="-568" y="-361"/>
      <point x="-628" y="-458"/>
      <point x="-674" y="-504" type="curve"/>
      <point x="-594" y="-536" type="line"/>
      <point x="-500" y="-448"/>
      <point x="-454" y="-350"/>
      <point x="-454" y="-252" type="curve" smooth="yes"/>
      <point x="-454" y="-171"/>
      <point x="-506" y="-120"/>
      <point x="-570" y="-120" type="curve" smooth="yes"/>
      <point x="-616" y="-120"/>
      <point x="-668" y="-150"/>
      <point x="-678" y="-200" type="curve"/>
    </contour>
  </outline>
</glyph>
<glyph name="CombOgonek" format="2">
  <unicode hex="0328"/>
  <anchor x="-415" y="-430" name="L"/>
  <anchor x="-305" y="0" name="_O"/>
  <outline>
    <contour>
      <point x="-565" y="0" type="line"/>
      <point x="-669" y="-50"/>
      <point x="-725" y="-121"/>
      <point x="-725" y="-225" type="curve" smooth="yes"/>
      <point x="-725" y="-345"/>
      <point x="-607" y="-430"/>
      <point x="-485" y="-430" type="curve" smooth="yes"/>
      <point x="-411" y="-430"/>
      <point x="-338" y="-398"/>
      <point x="-280" y="-340" type="curve"/>
      <point x="-310" y="-240" type="line"/>
      <point x="-347" y="-284"/>
      <point x="-422" y="-315"/>
      <point x="-465" y="-315" type="curve" smooth="yes"/>
      <point x="-539" y="-315"/>
      <point x="-585" y="-270"/>
      <point x="-585" y="-195" type="curve" smooth="yes"/>
      <point x="-585" y="-125"/>
      <point x="-528" y="-65"/>
      <point x="-425" y="0" type="curve"/>
    </contour>
  </outline>
</glyph>
<glyph name="CombInvDblArchBlw" format="2">
  <unicode hex="032B"/>
  <anchor x="-570" y="-500" name="L"/>
  <anchor x="-570" y="-100" name="_L"/>
  <outline>
    <contour>
      <point x="-385" y="-180" type="line"/>
      <point x="-372" y="-211"/>
      <point x="-366" y="-245"/>
      <point x="-366" y="-277" type="curve" smooth="yes"/>
      <point x="-366" y="-343"/>
      <point x="-391" y="-400"/>
      <point x="-435" y="-400" type="curve" smooth="yes"/>
      <point x="-480" y="-400"/>
      <point x="-520" y="-362"/>
      <point x="-520" y="-245" type="curve"/>
      <point x="-620" y="-245" type="line"/>
      <point x="-620" y="-362"/>
      <point x="-659" y="-400"/>
      <point x="-705" y="-400" type="curve" smooth="yes"/>
      <point x="-749" y="-400"/>
      <point x="-774" y="-342"/>
      <point x="-774" y="-276" type="curve" smooth="yes"/>
      <point x="-774" y="-244"/>
      <point x="-768" y="-210"/>
      <point x="-755" y="-180" type="curve"/>
      <point x="-825" y="-130" type="line"/>
      <point x="-869" y="-178"/>
      <point x="-889" y="-240"/>
      <point x="-889" y="-300" type="curve" smooth="yes"/>
      <point x="-889" y="-428"/>
      <point x="-824" y="-520"/>
      <point x="-715" y="-520" type="curve" smooth="yes"/>
      <point x="-652" y="-520"/>
      <point x="-590" y="-457"/>
      <point x="-570" y="-395" type="curve"/>
      <point x="-550" y="-457"/>
      <point x="-487" y="-520"/>
      <point x="-425" y="-520" type="curve" smooth="yes"/>
      <point x="-319" y="-520"/>
      <point x="-250" y="-426"/>
      <point x="-250" y="-296" type="curve" smooth="yes"/>
      <point x="-250" y="-237"/>
      <point x="-270" y="-177"/>
      <point x="-315" y="-130" type="curve"/>
    </contour>
  </outline>
</glyph>
<glyph name="CombCircumBlw" format="2">
  <unicode hex="032D"/>
  <anchor x="-570" y="-600" name="L"/>
  <anchor x="-570" y="-100" name="_L"/>
  <outline>
    <contour>
      <point x="-845" y="-580" type="line"/>
      <point x="-570" y="-300" type="line"/>
      <point x="-295" y="-580" type="line"/>
      <point x="-145" y="-580" type="line"/>
      <point x="-485" y="-150" type="line"/>
      <point x="-655" y="-150" type="line"/>
      <point x="-995" y="-580" type="line"/>
    </contour>
  </outline>
</glyph>
<glyph name="CombShortStrkOverlay" format="2">
  <unicode hex="0335"/>
  <outline>
    <contour>
      <point x="-210" y="440" type="line"/>
      <point x="-210" y="580" type="line"/>
      <point x="-930" y="580" type="line"/>
      <point x="-930" y="440" type="line"/>
    </contour>
  </outline>
</glyph>
<glyph name="CombLngStrkOverlay" format="2">
  <unicode hex="0336"/>
  <outline>
    <contour>
      <point x="0" y="440" type="line"/>
      <point x="0" y="580" type="line"/>
      <point x="-1140" y="580" type="line"/>
      <point x="-1140" y="440" type="line"/>
    </contour>
  </outline>
</glyph>
<glyph name="CombLngSolidusOverlay" format="2">
  <unicode hex="0338"/>
  <outline>
    <contour>
      <point x="-310" y="1266" type="line"/>
      <point x="-990" y="-245" type="line"/>
      <point x="-840" y="-245" type="line"/>
      <point x="-160" y="1266" type="line"/>
    </contour>
  </outline>
</glyph>
<glyph name="CombRtHalfRingBlw" format="2">
  <unicode hex="0339"/>
  <anchor x="-550" y="-500" name="L"/>
  <anchor x="-550" y="-100" name="_L"/>
  <outline>
    <contour>
      <point x="-445" y="-320" type="curve" smooth="yes"/>
      <point x="-445" y="-214"/>
      <point x="-528" y="-120"/>
      <point x="-655" y="-120" type="curve"/>
      <point x="-655" y="-200" type="line"/>
      <point x="-587" y="-200"/>
      <point x="-535" y="-253"/>
      <point x="-535" y="-320" type="curve" smooth="yes"/>
      <point x="-535" y="-387"/>
      <point x="-587" y="-445"/>
      <point x="-655" y="-445" type="curve"/>
      <point x="-655" y="-525" type="line"/>
      <point x="-528" y="-525"/>
      <point x="-445" y="-426"/>
    </contour>
  </outline>
</glyph>
<glyph name="CombInvBridgeBlw" format="2">
  <unicode hex="033A"/>
  <anchor x="-570" y="-500" name="L"/>
  <anchor x="-570" y="-100" name="_L"/>
  <outline>
    <contour>
      <point x="-420" y="-150" type="line"/>
      <point x="-420" y="-310" type="line"/>
      <point x="-720" y="-310" type="line"/>
      <point x="-720" y="-150" type="line"/>
      <point x="-820" y="-150" type="line"/>
      <point x="-820" y="-410" type="line"/>
      <point x="-320" y="-410" type="line"/>
      <point x="-320" y="-150" type="line"/>
    </contour>
  </outline>
</glyph>
<glyph name="CombXAbv" format="2">
  <unicode hex="033D"/>
  <anchor x="-571" y="1635" name="U"/>
  <anchor x="-571" y="1100" name="_U"/>
  <outline>
    <contour>
      <point x="-475" y="1155" type="line"/>
      <point x="-357" y="1155" type="line"/>
      <point x="-403" y="1207"/>
      <point x="-415" y="1217"/>
      <point x="-445" y="1255" type="curve" smooth="yes"/>
      <point x="-665" y="1535" type="line"/>
      <point x="-780" y="1535" type="line"/>
      <point x="-737" y="1485"/>
      <point x="-721" y="1469"/>
      <point x="-695" y="1435" type="curve" smooth="yes"/>
    </contour>
    <contour>
      <point x="-605" y="1385" type="line"/>
      <point x="-705" y="1255" type="line" smooth="yes"/>
      <point x="-730" y="1222"/>
      <point x="-739" y="1208"/>
      <point x="-785" y="1155" type="curve"/>
      <point x="-670" y="1155" type="line"/>
      <point x="-555" y="1306" type="line"/>
    </contour>
    <contour>
      <point x="-545" y="1305" type="line"/>
      <point x="-445" y="1435" type="line" smooth="yes"/>
      <point x="-420" y="1469"/>
      <point x="-404" y="1485"/>
      <point x="-365" y="1535" type="curve"/>
      <point x="-480" y="1535" type="line"/>
      <point x="-590" y="1385" type="line"/>
    </contour>
  </outline>
</glyph>
<glyph name="CombDblOverline" format="2">
  <unicode hex="033F"/>
  <anchor x="0" y="1630" name="U"/>
  <anchor x="0" y="1100" name="_U"/>
  <outline>
    <contour>
      <point x="-725" y="1240" type="line"/>
      <point x="725" y="1240" type="line"/>
      <point x="725" y="1390" type="line"/>
      <point x="-725" y="1390" type="line"/>
    </contour>
    <contour>
      <point x="-725" y="1490" type="line"/>
      <point x="725" y="1490" type="line"/>
      <point x="725" y="1640" type="line"/>
      <point x="-725" y="1640" type="line"/>
    </contour>
  </outline>
</glyph>
<glyph name="CombBridgeAbv" format="2">
  <unicode hex="0346"/>
  <anchor x="-570" y="1530" name="U"/>
  <anchor x="-570" y="1100" name="_U"/>
  <outline>
    <contour>
      <point x="-320" y="1140" type="line"/>
      <point x="-320" y="1400" type="line"/>
      <point x="-820" y="1400" type="line"/>
      <point x="-820" y="1140" type="line"/>
      <point x="-720" y="1140" type="line"/>
      <point x="-720" y="1300" type="line"/>
      <point x="-420" y="1300" type="line"/>
      <point x="-420" y="1140" type="line"/>
    </contour>
  </outline>
</glyph>
<glyph name="CombDblVertLineBlw" format="2">
  <unicode hex="0348"/>
  <anchor x="-570" y="-500" name="L"/>
  <anchor x="-570" y="-100" name="_L"/>
  <outline>
    <contour>
      <point x="-645" y="-580" type="line"/>
      <point x="-645" y="-150" type="line"/>
      <point x="-745" y="-150" type="line"/>
      <point x="-745" y="-580" type="line"/>
    </contour>
    <contour>
      <point x="-395" y="-580" type="line"/>
      <point x="-395" y="-150" type="line"/>
      <point x="-495" y="-150" type="line"/>
      <point x="-495" y="-580" type="line"/>
    </contour>
  </outline>
</glyph>
<glyph name="CombNotTildeAbv" format="2">
  <unicode hex="034A"/>
  <anchor x="-570" y="1635" name="U"/>
  <anchor x="-570" y="1100" name="_U"/>
  <outline>
    <contour>
      <point x="-260" y="1440" type="line"/>
      <point x="-260" y="1394"/>
      <point x="-328" y="1345"/>
      <point x="-375" y="1345" type="curve" smooth="yes"/>
      <point x="-427" y="1345"/>
      <point x="-488" y="1359"/>
      <point x="-560" y="1393" type="curve" smooth="yes"/>
      <point x="-630" y="1426"/>
      <point x="-687" y="1445"/>
      <point x="-763" y="1445" type="curve" smooth="yes"/>
      <point x="-882" y="1445"/>
      <point x="-985" y="1327"/>
      <point x="-985" y="1205" type="curve"/>
      <point x="-880" y="1205" type="line"/>
      <point x="-880" y="1254"/>
      <point x="-814" y="1300"/>
      <point x="-765" y="1300" type="curve" smooth="yes"/>
      <point x="-703" y="1300"/>
      <point x="-654" y="1284"/>
      <point x="-580" y="1248" type="curve" smooth="yes"/>
      <point x="-518" y="1218"/>
      <point x="-456" y="1200"/>
      <point x="-383" y="1200" type="curve" smooth="yes"/>
      <point x="-260" y="1200"/>
      <point x="-155" y="1312"/>
      <point x="-155" y="1440" type="curve"/>
    </contour>
    <contour>
      <point x="-351" y="1466" type="line"/>
      <point x="-439" y="1548" type="line"/>
      <point x="-786" y="1175" type="line"/>
      <point x="-699" y="1093" type="line"/>
    </contour>
  </outline>
</glyph>
<glyph name="CombAlmostEqToAbv" format="2">
  <unicode hex="034C"/>
  <anchor x="-570" y="1735" name="U"/>
  <anchor x="-570" y="1100" name="_U"/>
  <outline>
    <contour>
      <point x="-140" y="1437" type="line"/>
      <point x="-215" y="1348"/>
      <point x="-298" y="1312"/>
      <point x="-374" y="1312" type="curve" smooth="yes"/>
      <point x="-491" y="1312"/>
      <point x="-622" y="1419"/>
      <point x="-748" y="1419" type="curve" smooth="yes"/>
      <point x="-839" y="1419"/>
      <point x="-949" y="1373"/>
      <point x="-1000" y="1302" type="curve"/>
      <point x="-1000" y="1154" type="line"/>
      <point x="-925" y="1243"/>
      <point x="-842" y="1279"/>
      <point x="-766" y="1279" type="curve" smooth="yes"/>
      <point x="-649" y="1279"/>
      <point x="-518" y="1172"/>
      <point x="-392" y="1172" type="curve" smooth="yes"/>
      <point x="-301" y="1172"/>
      <point x="-199" y="1218"/>
      <point x="-140" y="1289" type="curve"/>
    </contour>
    <contour>
      <point x="-140" y="1698" type="line"/>
      <point x="-215" y="1609"/>
      <point x="-298" y="1573"/>
      <point x="-374" y="1573" type="curve" smooth="yes"/>
      <point x="-491" y="1573"/>
      <point x="-622" y="1680"/>
      <point x="-748" y="1680" type="curve" smooth="yes"/>
      <point x="-839" y="1680"/>
      <point x="-949" y="1634"/>
      <point x="-1000" y="1563" type="curve"/>
      <point x="-1000" y="1415" type="line"/>
      <point x="-925" y="1504"/>
      <point x="-842" y="1540"/>
      <point x="-766" y="1540" type="curve" smooth="yes"/>
      <point x="-649" y="1540"/>
      <point x="-518" y="1433"/>
      <point x="-392" y="1433" type="curve" smooth="yes"/>
      <point x="-301" y="1433"/>
      <point x="-199" y="1479"/>
      <point x="-140" y="1550" type="curve"/>
    </contour>
  </outline>
</glyph>
<glyph name="CombAsteriskBlw" format="2">
  <unicode hex="0359"/>
  <anchor x="-564" y="-650" name="L"/>
  <anchor x="-564" y="-100" name="_L"/>
  <outline>
    <contour>
      <point x="-362" y="-224" type="line"/>
      <point x="-435" y="-283"/>
      <point x="-481" y="-316"/>
      <point x="-533" y="-350" type="curve"/>
      <point x="-532" y="-289"/>
      <point x="-528" y="-233"/>
      <point x="-519" y="-140" type="curve"/>
      <point x="-621" y="-140" type="line"/>
      <point x="-606" y="-233"/>
      <point x="-598" y="-289"/>
      <point x="-596" y="-350" type="curve"/>
      <point x="-648" y="-319"/>
      <point x="-695" y="-289"/>
      <point x="-771" y="-235" type="curve"/>
      <point x="-823" y="-322" type="line"/>
      <point x="-736" y="-355"/>
      <point x="-682" y="-377"/>
      <point x="-628" y="-406" type="curve"/>
      <point x="-681" y="-436"/>
      <point x="-732" y="-462"/>
      <point x="-816" y="-500" type="curve"/>
      <point x="-768" y="-588" type="line"/>
      <point x="-694" y="-530"/>
      <point x="-647" y="-494"/>
      <point x="-596" y="-462" type="curve"/>
      <point x="-597" y="-521"/>
      <point x="-602" y="-579"/>
      <point x="-610" y="-672" type="curve"/>
      <point x="-512" y="-672" type="line"/>
      <point x="-526" y="-579"/>
      <point x="-530" y="-524"/>
      <point x="-533" y="-462" type="curve"/>
      <point x="-481" y="-493"/>
      <point x="-434" y="-523"/>
      <point x="-358" y="-577" type="curve"/>
      <point x="-305" y="-490" type="line"/>
      <point x="-394" y="-456"/>
      <point x="-447" y="-435"/>
      <point x="-501" y="-406" type="curve"/>
      <point x="-448" y="-377"/>
      <point x="-398" y="-351"/>
      <point x="-312" y="-311" type="curve"/>
    </contour>
  </outline>
</glyph>
<glyph name="CombDblRingBlw" format="2">
  <unicode hex="035A"/>
  <anchor x="-570" y="-645" name="L"/>
  <anchor x="-570" y="-100" name="_L"/>
  <outline>
    <contour>
      <point x="-948" y="-321" type="curve" smooth="yes"/>
      <point x="-948" y="-441"/>
      <point x="-853" y="-536"/>
      <point x="-733" y="-536" type="curve" smooth="yes"/>
      <point x="-668" y="-536"/>
      <point x="-610" y="-508"/>
      <point x="-571" y="-463" type="curve"/>
      <point x="-532" y="-508"/>
      <point x="-474" y="-536"/>
      <point x="-409" y="-536" type="curve" smooth="yes"/>
      <point x="-289" y="-536"/>
      <point x="-194" y="-441"/>
      <point x="-194" y="-321" type="curve" smooth="yes"/>
      <point x="-194" y="-201"/>
      <point x="-289" y="-106"/>
      <point x="-409" y="-106" type="curve" smooth="yes"/>
      <point x="-474" y="-106"/>
      <point x="-532" y="-134"/>
      <point x="-571" y="-179" type="curve"/>
      <point x="-610" y="-134"/>
      <point x="-668" y="-106"/>
      <point x="-733" y="-106" type="curve" smooth="yes"/>
      <point x="-853" y="-106"/>
      <point x="-948" y="-201"/>
    </contour>
    <contour>
      <point x="-624" y="-321" type="curve" smooth="yes"/>
      <point x="-624" y="-381"/>
      <point x="-664" y="-431"/>
      <point x="-734" y="-431" type="curve" smooth="yes"/>
      <point x="-804" y="-431"/>
      <point x="-844" y="-381"/>
      <point x="-844" y="-321" type="curve" smooth="yes"/>
      <point x="-844" y="-261"/>
      <point x="-804" y="-211"/>
      <point x="-734" y="-211" type="curve" smooth="yes"/>
      <point x="-664" y="-211"/>
      <point x="-624" y="-261"/>
    </contour>
    <contour>
      <point x="-298" y="-321" type="curve" smooth="yes"/>
      <point x="-298" y="-381"/>
      <point x="-338" y="-431"/>
      <point x="-408" y="-431" type="curve" smooth="yes"/>
      <point x="-476" y="-431"/>
      <point x="-518" y="-383"/>
      <point x="-518" y="-321" type="curve" smooth="yes"/>
      <point x="-518" y="-261"/>
      <point x="-478" y="-211"/>
      <point x="-408" y="-211" type="curve" smooth="yes"/>
      <point x="-338" y="-211"/>
      <point x="-298" y="-261"/>
    </contour>
  </outline>
</glyph>
<glyph name="CombZigZagAbv" format="2">
  <unicode hex="035B"/>
  <anchor x="-567" y="1595" name="U"/>
  <anchor x="-567" y="1100" name="_U"/>
  <outline>
    <contour>
      <point x="-670" y="1530" type="line"/>
      <point x="-745" y="1275" type="line"/>
      <point x="-515" y="1275" type="line"/>
      <point x="-560" y="1115" type="line"/>
      <point x="-460" y="1115" type="line"/>
      <point x="-390" y="1375" type="line"/>
      <point x="-615" y="1375" type="line"/>
      <point x="-570" y="1530" type="line"/>
    </contour>
  </outline>
</glyph>
<glyph name="CombDblBreve" format="2">
  <unicode hex="035D"/>
  <anchor x="0" y="-500" name="L"/>
  <anchor x="0" y="2060" name="U"/>
  <outline>
    <contour>
      <point x="0" y="1770" type="curve" smooth="yes"/>
      <point x="350" y="1770"/>
      <point x="650" y="1840"/>
      <point x="925" y="2000" type="curve"/>
      <point x="870" y="2120" type="line"/>
      <point x="630" y="1990"/>
      <point x="330" y="1930"/>
      <point x="0" y="1930" type="curve" smooth="yes"/>
      <point x="-330" y="1930"/>
      <point x="-630" y="1990"/>
      <point x="-870" y="2120" type="curve"/>
      <point x="-925" y="2000" type="line"/>
      <point x="-650" y="1840"/>
      <point x="-350" y="1770"/>
    </contour>
  </outline>
</glyph>
<glyph name="CombDblMacron" format="2">
  <unicode hex="035E"/>
  <anchor x="-4" y="-100" name="L"/>
  <anchor x="0" y="1935" name="U"/>
  <outline>
    <contour>
      <point x="750" y="1730" type="line"/>
      <point x="750" y="1880" type="line"/>
      <point x="-750" y="1880" type="line"/>
      <point x="-750" y="1730" type="line"/>
    </contour>
  </outline>
</glyph>
<glyph name="CombDblTilde" format="2">
  <unicode hex="0360"/>
  <anchor x="-3" y="-100" name="L"/>
  <anchor x="0" y="1960" name="U"/>
  <outline>
    <contour>
      <point x="-860" y="1670" type="line"/>
      <point x="-757" y="1770"/>
      <point x="-640" y="1830"/>
      <point x="-484" y="1830" type="curve" smooth="yes"/>
      <point x="-304" y="1830"/>
      <point x="-140" y="1793"/>
      <point x="0" y="1755" type="curve" smooth="yes"/>
      <point x="134" y="1718"/>
      <point x="294" y="1680"/>
      <point x="467" y="1680" type="curve" smooth="yes"/>
      <point x="631" y="1680"/>
      <point x="798" y="1750"/>
      <point x="900" y="1850" type="curve"/>
      <point x="860" y="1990" type="line"/>
      <point x="758" y="1890"/>
      <point x="648" y="1830"/>
      <point x="484" y="1830" type="curve" smooth="yes"/>
      <point x="304" y="1830"/>
      <point x="140" y="1867"/>
      <point x="0" y="1905" type="curve" smooth="yes"/>
      <point x="-134" y="1942"/>
      <point x="-294" y="1980"/>
      <point x="-467" y="1980" type="curve" smooth="yes"/>
      <point x="-631" y="1980"/>
      <point x="-798" y="1910"/>
      <point x="-900" y="1810" type="curve"/>
    </contour>
  </outline>
</glyph>
<glyph name="CombDblInvBreve" format="2">
  <unicode hex="0361"/>
  <anchor x="0" y="-500" name="L"/>
  <anchor x="0" y="2050" name="U"/>
  <outline>
    <contour>
      <point x="-870" y="1670" type="line"/>
      <point x="-630" y="1800"/>
      <point x="-330" y="1860"/>
      <point x="0" y="1860" type="curve" smooth="yes"/>
      <point x="330" y="1860"/>
      <point x="630" y="1800"/>
      <point x="870" y="1670" type="curve"/>
      <point x="925" y="1790" type="line"/>
      <point x="650" y="1950"/>
      <point x="350" y="2020"/>
      <point x="0" y="2020" type="curve" smooth="yes"/>
      <point x="-350" y="2020"/>
      <point x="-650" y="1950"/>
      <point x="-925" y="1790" type="curve"/>
    </contour>
  </outline>
</glyph>
<glyph name="CombDblRtArrwBlw" format="2">
  <unicode hex="0362"/>
  <anchor x="0" y="-1030" name="L"/>
  <anchor x="0" y="1610" name="U"/>
  <outline>
    <contour>
      <point x="920" y="-910" type="line"/>
      <point x="920" y="-790" type="line"/>
      <point x="345" y="-530" type="line"/>
      <point x="310" y="-625" type="line"/>
      <point x="715" y="-795" type="line"/>
      <point x="-920" y="-795" type="line"/>
      <point x="-920" y="-905" type="line"/>
      <point x="715" y="-905" type="line"/>
      <point x="310" y="-1075" type="line"/>
      <point x="345" y="-1170" type="line"/>
    </contour>
  </outline>
</glyph>
<glyph name="CombLtnSmA.SngStory" format="2">
  <unicode hex="0363"/>
  <anchor x="-569" y="1880" name="U"/>
  <anchor x="-569" y="1100" name="_U"/>
  <outline>
    <contour>
      <point x="-277" y="1163" type="line"/>
      <point x="-301" y="1229"/>
      <point x="-318" y="1326"/>
      <point x="-318" y="1473" type="curve" smooth="yes"/>
      <point x="-318" y="1745" type="line"/>
      <point x="-381" y="1761"/>
      <point x="-454" y="1772"/>
      <point x="-535" y="1772" type="curve" smooth="yes"/>
      <point x="-771" y="1772"/>
      <point x="-875" y="1589"/>
      <point x="-875" y="1403" type="curve" smooth="yes"/>
      <point x="-875" y="1238"/>
      <point x="-792" y="1149"/>
      <point x="-686" y="1149" type="curve" smooth="yes"/>
      <point x="-555" y="1149"/>
      <point x="-465" y="1282"/>
      <point x="-415" y="1403" type="curve"/>
      <point x="-415" y="1356" type="line" smooth="yes"/>
      <point x="-415" y="1305"/>
      <point x="-405" y="1200"/>
      <point x="-387" y="1163" type="curve"/>
    </contour>
    <contour>
      <point x="-434" y="1593" type="line" smooth="yes"/>
      <point x="-434" y="1510"/>
      <point x="-556" y="1248"/>
      <point x="-667" y="1248" type="curve" smooth="yes"/>
      <point x="-717" y="1248"/>
      <point x="-759" y="1313"/>
      <point x="-759" y="1403" type="curve" smooth="yes"/>
      <point x="-759" y="1544"/>
      <point x="-709" y="1678"/>
      <point x="-544" y="1678" type="curve" smooth="yes"/>
      <point x="-481" y="1678"/>
      <point x="-455" y="1672"/>
      <point x="-434" y="1668" type="curve"/>
    </contour>
  </outline>
</glyph>
<glyph name="CombLtnSmE" format="2">
  <unicode hex="0364"/>
  <anchor x="-569" y="1880" name="U"/>
  <anchor x="-569" y="1100" name="_U"/>
  <outline>
    <contour>
      <point x="-300" y="1447" type="line"/>
      <point x="-299" y="1458"/>
      <point x="-299" y="1482"/>
      <point x="-299" y="1493" type="curve" smooth="yes"/>
      <point x="-299" y="1624"/>
      <point x="-353" y="1772"/>
      <point x="-561" y="1772" type="curve" smooth="yes"/>
      <point x="-747" y="1772"/>
      <point x="-863" y="1647"/>
      <point x="-863" y="1453" type="curve" smooth="yes"/>
      <point x="-863" y="1254"/>
      <point x="-721" y="1149"/>
      <point x="-561" y="1149" type="curve" smooth="yes"/>
      <point x="-464" y="1149"/>
      <point x="-385" y="1165"/>
      <point x="-296" y="1207" type="curve"/>
      <point x="-309" y="1304" type="line"/>
      <point x="-385" y="1261"/>
      <point x="-464" y="1245"/>
      <point x="-545" y="1245" type="curve" smooth="yes"/>
      <point x="-662" y="1245"/>
      <point x="-746" y="1314"/>
      <point x="-746" y="1459" type="curve" smooth="yes"/>
      <point x="-746" y="1614"/>
      <point x="-680" y="1684"/>
      <point x="-570" y="1684" type="curve" smooth="yes"/>
      <point x="-479" y="1684"/>
      <point x="-412" y="1630"/>
      <point x="-412" y="1529" type="curve"/>
      <point x="-768" y="1529" type="line"/>
      <point x="-768" y="1447" type="line"/>
    </contour>
  </outline>
</glyph>
<glyph name="CombLtnSmU" format="2">
  <unicode hex="0367"/>
  <anchor x="-569" y="1880" name="U"/>
  <anchor x="-569" y="1100" name="_U"/>
  <outline>
    <contour>
      <point x="-267" y="1163" type="line"/>
      <point x="-294" y="1229"/>
      <point x="-308" y="1313"/>
      <point x="-308" y="1427" type="curve"/>
      <point x="-308" y="1760" type="line"/>
      <point x="-437" y="1760" type="line"/>
      <point x="-426" y="1689"/>
      <point x="-425" y="1650"/>
      <point x="-425" y="1573" type="curve" smooth="yes"/>
      <point x="-425" y="1409" type="line"/>
      <point x="-458" y="1338"/>
      <point x="-558" y="1245"/>
      <point x="-633" y="1245" type="curve" smooth="yes"/>
      <point x="-713" y="1245"/>
      <point x="-740" y="1303"/>
      <point x="-740" y="1435" type="curve"/>
      <point x="-740" y="1760" type="line"/>
      <point x="-869" y="1760" type="line"/>
      <point x="-858" y="1690"/>
      <point x="-856" y="1647"/>
      <point x="-856" y="1573" type="curve" smooth="yes"/>
      <point x="-856" y="1562"/>
      <point x="-856" y="1411"/>
      <point x="-856" y="1400" type="curve" smooth="yes"/>
      <point x="-856" y="1234"/>
      <point x="-789" y="1149"/>
      <point x="-655" y="1149" type="curve" smooth="yes"/>
      <point x="-567" y="1149"/>
      <point x="-485" y="1194"/>
      <point x="-409" y="1280" type="curve"/>
      <point x="-403" y="1237"/>
      <point x="-386" y="1190"/>
      <point x="-374" y="1163" type="curve"/>
    </contour>
  </outline>
</glyph>
<glyph name="CombLtnSmD" format="2">
  <unicode hex="0369"/>
  <anchor x="-569" y="1880" name="U"/>
  <anchor x="-569" y="1100" name="_U"/>
  <outline>
    <contour>
      <point x="-282" y="2099" type="line"/>
      <point x="-414" y="2099" type="line"/>
      <point x="-402" y="2050"/>
      <point x="-398" y="1979"/>
      <point x="-398" y="1886" type="curve"/>
      <point x="-398" y="1722" type="line"/>
      <point x="-447" y="1748"/>
      <point x="-512" y="1772"/>
      <point x="-565" y="1772" type="curve" smooth="yes"/>
      <point x="-734" y="1772"/>
      <point x="-864" y="1640"/>
      <point x="-864" y="1433" type="curve" smooth="yes"/>
      <point x="-864" y="1261"/>
      <point x="-766" y="1149"/>
      <point x="-612" y="1149" type="curve" smooth="yes"/>
      <point x="-520" y="1149"/>
      <point x="-442" y="1193"/>
      <point x="-382" y="1272" type="curve"/>
      <point x="-372" y="1228"/>
      <point x="-357" y="1183"/>
      <point x="-348" y="1163" type="curve"/>
      <point x="-234" y="1163" type="line"/>
      <point x="-262" y="1229"/>
      <point x="-282" y="1326"/>
      <point x="-282" y="1473" type="curve"/>
    </contour>
    <contour>
      <point x="-398" y="1397" type="line"/>
      <point x="-433" y="1320"/>
      <point x="-514" y="1242"/>
      <point x="-590" y="1242" type="curve" smooth="yes"/>
      <point x="-700" y="1242"/>
      <point x="-748" y="1314"/>
      <point x="-748" y="1450" type="curve" smooth="yes"/>
      <point x="-748" y="1589"/>
      <point x="-660" y="1672"/>
      <point x="-565" y="1672" type="curve" smooth="yes"/>
      <point x="-502" y="1672"/>
      <point x="-461" y="1659"/>
      <point x="-398" y="1628" type="curve"/>
    </contour>
  </outline>
</glyph>
<glyph name="CombLtnSmM" format="2">
  <unicode hex="036B"/>
  <anchor x="-569" y="1880" name="U"/>
  <anchor x="-569" y="1100" name="_U"/>
  <outline>
    <contour>
      <point x="-994" y="1165" type="line"/>
      <point x="-878" y="1165" type="line"/>
      <point x="-878" y="1551" type="line"/>
      <point x="-845" y="1621"/>
      <point x="-779" y="1671"/>
      <point x="-717" y="1671" type="curve" smooth="yes"/>
      <point x="-647" y="1671"/>
      <point x="-626" y="1644"/>
      <point x="-626" y="1498" type="curve" smooth="yes"/>
      <point x="-626" y="1165" type="line"/>
      <point x="-509" y="1165" type="line"/>
      <point x="-509" y="1551" type="line"/>
      <point x="-473" y="1624"/>
      <point x="-411" y="1671"/>
      <point x="-349" y="1671" type="curve" smooth="yes"/>
      <point x="-279" y="1671"/>
      <point x="-257" y="1638"/>
      <point x="-257" y="1486" type="curve" smooth="yes"/>
      <point x="-257" y="1165" type="line"/>
      <point x="-141" y="1165" type="line"/>
      <point x="-141" y="1551" type="line" smooth="yes"/>
      <point x="-141" y="1696"/>
      <point x="-183" y="1773"/>
      <point x="-311" y="1773" type="curve" smooth="yes"/>
      <point x="-377" y="1773"/>
      <point x="-446" y="1755"/>
      <point x="-525" y="1675" type="curve"/>
      <point x="-545" y="1727"/>
      <point x="-597" y="1773"/>
      <point x="-679" y="1773" type="curve" smooth="yes"/>
      <point x="-752" y="1773"/>
      <point x="-816" y="1754"/>
      <point x="-893" y="1671" type="curve"/>
      <point x="-897" y="1699"/>
      <point x="-903" y="1737"/>
      <point x="-912" y="1762" type="curve"/>
      <point x="-1026" y="1762" type="line"/>
      <point x="-1013" y="1721"/>
      <point x="-994" y="1639"/>
      <point x="-994" y="1525" type="curve" smooth="yes"/>
    </contour>
  </outline>
</glyph>
<glyph name="CombLtnSmR" format="2">
  <unicode hex="036C"/>
  <anchor x="-569" y="1880" name="U"/>
  <anchor x="-569" y="1100" name="_U"/>
  <outline>
    <contour>
      <point x="-640" y="1165" type="line"/>
      <point x="-640" y="1504" type="line"/>
      <point x="-613" y="1584"/>
      <point x="-526" y="1668"/>
      <point x="-473" y="1668" type="curve" smooth="yes"/>
      <point x="-424" y="1668"/>
      <point x="-401" y="1615"/>
      <point x="-401" y="1557" type="curve"/>
      <point x="-300" y="1577" type="line"/>
      <point x="-300" y="1680"/>
      <point x="-340" y="1773"/>
      <point x="-445" y="1773" type="curve" smooth="yes"/>
      <point x="-502" y="1773"/>
      <point x="-589" y="1729"/>
      <point x="-650" y="1648" type="curve"/>
      <point x="-654" y="1676"/>
      <point x="-665" y="1737"/>
      <point x="-675" y="1762" type="curve"/>
      <point x="-788" y="1762" type="line"/>
      <point x="-774" y="1721"/>
      <point x="-757" y="1639"/>
      <point x="-757" y="1525" type="curve" smooth="yes"/>
      <point x="-757" y="1165" type="line"/>
    </contour>
  </outline>
</glyph>
<glyph name="CombLtnSmT" format="2">
  <unicode hex="036D"/>
  <anchor x="-569" y="1980" name="U"/>
  <anchor x="-569" y="1100" name="_U"/>
  <outline>
    <contour>
      <point x="-516" y="1149" type="curve" smooth="yes"/>
      <point x="-472" y="1149"/>
      <point x="-417" y="1161"/>
      <point x="-360" y="1196" type="curve"/>
      <point x="-360" y="1289" type="line"/>
      <point x="-415" y="1261"/>
      <point x="-460" y="1245"/>
      <point x="-496" y="1245" type="curve" smooth="yes"/>
      <point x="-553" y="1245"/>
      <point x="-577" y="1271"/>
      <point x="-577" y="1391" type="curve" smooth="yes"/>
      <point x="-577" y="1936" type="line"/>
      <point x="-693" y="1936" type="line"/>
      <point x="-693" y="1321" type="line" smooth="yes"/>
      <point x="-693" y="1186"/>
      <point x="-614" y="1149"/>
    </contour>
    <contour>
      <point x="-819" y="1660" type="line"/>
      <point x="-372" y="1660" type="line"/>
      <point x="-372" y="1746" type="line"/>
      <point x="-819" y="1746" type="line"/>
    </contour>
  </outline>
</glyph>
